%FSLAX45Y45*%
G04 Gerber Fmt 4.5, Leading zero omitted, Abs format (unit mm)*
G04 Created by KiCad (PCBNEW 4.0.4-stable) date 11/20/17 17:16:34*
%MOMM*%
%LPD*%
G01*
G04 APERTURE LIST*
%ADD10C,0.127000*%
%ADD11C,0.150000*%
%ADD12C,0.200000*%
%ADD13C,0.300000*%
G04 APERTURE END LIST*
D10*
D11*
X10922000Y-9163050D02*
X17767300Y-9163050D01*
X10922000Y-14458950D02*
X10922000Y-9163050D01*
X11277600Y-14458950D02*
X10922000Y-14458950D01*
X17767300Y-14458950D02*
X11277600Y-14458950D01*
X17767300Y-9163050D02*
X17767300Y-14458950D01*
D12*
X11945940Y-9750110D02*
X11985940Y-9790110D01*
X11985940Y-9750110D02*
X11945940Y-9790110D01*
X12045000Y-10279700D02*
X12085000Y-10319700D01*
X12085000Y-10279700D02*
X12045000Y-10319700D01*
X12057700Y-11079800D02*
X12097700Y-11119800D01*
X12097700Y-11079800D02*
X12057700Y-11119800D01*
X12098340Y-10639110D02*
X12138340Y-10679110D01*
X12138340Y-10639110D02*
X12098340Y-10679110D01*
X12260900Y-11613200D02*
X12300900Y-11653200D01*
X12300900Y-11613200D02*
X12260900Y-11653200D01*
X12337100Y-9733600D02*
X12377100Y-9773600D01*
X12377100Y-9733600D02*
X12337100Y-9773600D01*
X12342180Y-12737150D02*
X12382180Y-12777150D01*
X12382180Y-12737150D02*
X12342180Y-12777150D01*
X12357420Y-13036870D02*
X12397420Y-13076870D01*
X12397420Y-13036870D02*
X12357420Y-13076870D01*
X12375200Y-10368600D02*
X12415200Y-10408600D01*
X12415200Y-10368600D02*
X12375200Y-10408600D01*
X12375200Y-10495600D02*
X12415200Y-10535600D01*
X12415200Y-10495600D02*
X12375200Y-10535600D01*
X12405680Y-10788970D02*
X12445680Y-10828970D01*
X12445680Y-10788970D02*
X12405680Y-10828970D01*
X12426000Y-10984550D02*
X12466000Y-11024550D01*
X12466000Y-10984550D02*
X12426000Y-11024550D01*
X12451400Y-9733600D02*
X12491400Y-9773600D01*
X12491400Y-9733600D02*
X12451400Y-9773600D01*
X12565700Y-9733600D02*
X12605700Y-9773600D01*
X12605700Y-9733600D02*
X12565700Y-9773600D01*
X12616500Y-10000300D02*
X12656500Y-10040300D01*
X12656500Y-10000300D02*
X12616500Y-10040300D01*
X12718100Y-10673400D02*
X12758100Y-10713400D01*
X12758100Y-10673400D02*
X12718100Y-10713400D01*
X12934000Y-10140000D02*
X12974000Y-10180000D01*
X12974000Y-10140000D02*
X12934000Y-10180000D01*
X12934000Y-10292400D02*
X12974000Y-10332400D01*
X12974000Y-10292400D02*
X12934000Y-10332400D01*
X12946700Y-11898950D02*
X12986700Y-11938950D01*
X12986700Y-11898950D02*
X12946700Y-11938950D01*
X13022900Y-10368600D02*
X13062900Y-10408600D01*
X13062900Y-10368600D02*
X13022900Y-10408600D01*
X13022900Y-10495600D02*
X13062900Y-10535600D01*
X13062900Y-10495600D02*
X13022900Y-10535600D01*
X13022900Y-11067100D02*
X13062900Y-11107100D01*
X13062900Y-11067100D02*
X13022900Y-11107100D01*
X13353100Y-10317800D02*
X13393100Y-10357800D01*
X13393100Y-10317800D02*
X13353100Y-10357800D01*
X13353100Y-10470200D02*
X13393100Y-10510200D01*
X13393100Y-10470200D02*
X13353100Y-10510200D01*
X13353100Y-10648000D02*
X13393100Y-10688000D01*
X13393100Y-10648000D02*
X13353100Y-10688000D01*
X13505500Y-12908600D02*
X13545500Y-12948600D01*
X13545500Y-12908600D02*
X13505500Y-12948600D01*
X13556300Y-11930700D02*
X13596300Y-11970700D01*
X13596300Y-11930700D02*
X13556300Y-11970700D01*
X13594400Y-10140000D02*
X13634400Y-10180000D01*
X13634400Y-10140000D02*
X13594400Y-10180000D01*
X13594400Y-10241600D02*
X13634400Y-10281600D01*
X13634400Y-10241600D02*
X13594400Y-10281600D01*
X13632500Y-12108500D02*
X13672500Y-12148500D01*
X13672500Y-12108500D02*
X13632500Y-12148500D01*
X13835700Y-12502200D02*
X13875700Y-12542200D01*
X13875700Y-12502200D02*
X13835700Y-12542200D01*
X13873800Y-12349800D02*
X13913800Y-12389800D01*
X13913800Y-12349800D02*
X13873800Y-12389800D01*
X13886500Y-12718100D02*
X13926500Y-12758100D01*
X13926500Y-12718100D02*
X13886500Y-12758100D01*
X13975400Y-10546400D02*
X14015400Y-10586400D01*
X14015400Y-10546400D02*
X13975400Y-10586400D01*
X13975400Y-12349800D02*
X14015400Y-12389800D01*
X14015400Y-12349800D02*
X13975400Y-12389800D01*
X14038900Y-12574590D02*
X14078900Y-12614590D01*
X14078900Y-12574590D02*
X14038900Y-12614590D01*
X14115100Y-12616500D02*
X14155100Y-12656500D01*
X14155100Y-12616500D02*
X14115100Y-12656500D01*
X14254800Y-11016300D02*
X14294800Y-11056300D01*
X14294800Y-11016300D02*
X14254800Y-11056300D01*
X14318300Y-10775000D02*
X14358300Y-10815000D01*
X14358300Y-10775000D02*
X14318300Y-10815000D01*
X14371640Y-12958130D02*
X14411640Y-12998130D01*
X14411640Y-12958130D02*
X14371640Y-12998130D01*
X14419900Y-10394000D02*
X14459900Y-10434000D01*
X14459900Y-10394000D02*
X14419900Y-10434000D01*
X14419900Y-11003600D02*
X14459900Y-11043600D01*
X14459900Y-11003600D02*
X14419900Y-11043600D01*
X14496100Y-10851200D02*
X14536100Y-10891200D01*
X14536100Y-10851200D02*
X14496100Y-10891200D01*
X14534200Y-10394000D02*
X14574200Y-10434000D01*
X14574200Y-10394000D02*
X14534200Y-10434000D01*
X14534200Y-11016300D02*
X14574200Y-11056300D01*
X14574200Y-11016300D02*
X14534200Y-11056300D01*
X14554520Y-12353610D02*
X14594520Y-12393610D01*
X14594520Y-12353610D02*
X14554520Y-12393610D01*
X14572300Y-10241600D02*
X14612300Y-10281600D01*
X14612300Y-10241600D02*
X14572300Y-10281600D01*
X14648500Y-11346500D02*
X14688500Y-11386500D01*
X14688500Y-11346500D02*
X14648500Y-11386500D01*
X14724700Y-11537000D02*
X14764700Y-11577000D01*
X14764700Y-11537000D02*
X14724700Y-11577000D01*
X14762800Y-10546400D02*
X14802800Y-10586400D01*
X14802800Y-10546400D02*
X14762800Y-10586400D01*
X14788200Y-11462070D02*
X14828200Y-11502070D01*
X14828200Y-11462070D02*
X14788200Y-11502070D01*
X14826300Y-10114600D02*
X14866300Y-10154600D01*
X14866300Y-10114600D02*
X14826300Y-10154600D01*
X14826300Y-10470200D02*
X14866300Y-10510200D01*
X14866300Y-10470200D02*
X14826300Y-10510200D01*
X14826300Y-10648000D02*
X14866300Y-10688000D01*
X14866300Y-10648000D02*
X14826300Y-10688000D01*
X14902500Y-10940100D02*
X14942500Y-10980100D01*
X14942500Y-10940100D02*
X14902500Y-10980100D01*
X14966000Y-10127300D02*
X15006000Y-10167300D01*
X15006000Y-10127300D02*
X14966000Y-10167300D01*
X15080300Y-10127300D02*
X15120300Y-10167300D01*
X15120300Y-10127300D02*
X15080300Y-10167300D01*
X15118400Y-11054400D02*
X15158400Y-11094400D01*
X15158400Y-11054400D02*
X15118400Y-11094400D01*
X15156500Y-10495600D02*
X15196500Y-10535600D01*
X15196500Y-10495600D02*
X15156500Y-10535600D01*
X15181900Y-11639870D02*
X15221900Y-11679870D01*
X15221900Y-11639870D02*
X15181900Y-11679870D01*
X15232700Y-12565700D02*
X15272700Y-12605700D01*
X15272700Y-12565700D02*
X15232700Y-12605700D01*
X15270800Y-9416100D02*
X15310800Y-9456100D01*
X15310800Y-9416100D02*
X15270800Y-9456100D01*
X15313980Y-11782110D02*
X15353980Y-11822110D01*
X15353980Y-11782110D02*
X15313980Y-11822110D01*
X15347000Y-10940100D02*
X15387000Y-10980100D01*
X15387000Y-10940100D02*
X15347000Y-10980100D01*
X15347000Y-13219750D02*
X15387000Y-13259750D01*
X15387000Y-13219750D02*
X15347000Y-13259750D01*
X15372400Y-11375710D02*
X15412400Y-11415710D01*
X15412400Y-11375710D02*
X15372400Y-11415710D01*
X15374940Y-13613450D02*
X15414940Y-13653450D01*
X15414940Y-13613450D02*
X15374940Y-13653450D01*
X15385100Y-9708200D02*
X15425100Y-9748200D01*
X15425100Y-9708200D02*
X15385100Y-9748200D01*
X15461300Y-10127300D02*
X15501300Y-10167300D01*
X15501300Y-10127300D02*
X15461300Y-10167300D01*
X15474000Y-9416100D02*
X15514000Y-9456100D01*
X15514000Y-9416100D02*
X15474000Y-9456100D01*
X15474000Y-12006900D02*
X15514000Y-12046900D01*
X15514000Y-12006900D02*
X15474000Y-12046900D01*
X15479080Y-12475530D02*
X15519080Y-12515530D01*
X15519080Y-12475530D02*
X15479080Y-12515530D01*
X15499400Y-10940100D02*
X15539400Y-10980100D01*
X15539400Y-10940100D02*
X15499400Y-10980100D01*
X15499400Y-13162600D02*
X15539400Y-13202600D01*
X15539400Y-13162600D02*
X15499400Y-13202600D01*
X15509560Y-11746550D02*
X15549560Y-11786550D01*
X15549560Y-11746550D02*
X15509560Y-11786550D01*
X15565440Y-9772970D02*
X15605440Y-9812970D01*
X15605440Y-9772970D02*
X15565440Y-9812970D01*
X15575600Y-12870500D02*
X15615600Y-12910500D01*
X15615600Y-12870500D02*
X15575600Y-12910500D01*
X15588300Y-9695500D02*
X15628300Y-9735500D01*
X15628300Y-9695500D02*
X15588300Y-9735500D01*
X15603540Y-12376470D02*
X15643540Y-12416470D01*
X15643540Y-12376470D02*
X15603540Y-12416470D01*
X15613700Y-10127300D02*
X15653700Y-10167300D01*
X15653700Y-10127300D02*
X15613700Y-10167300D01*
X15677200Y-12438700D02*
X15717200Y-12478700D01*
X15717200Y-12438700D02*
X15677200Y-12478700D01*
X15677200Y-12667300D02*
X15717200Y-12707300D01*
X15717200Y-12667300D02*
X15677200Y-12707300D01*
X15677200Y-12895900D02*
X15717200Y-12935900D01*
X15717200Y-12895900D02*
X15677200Y-12935900D01*
X15694980Y-13133390D02*
X15734980Y-13173390D01*
X15734980Y-13133390D02*
X15694980Y-13173390D01*
X15702600Y-11321100D02*
X15742600Y-11361100D01*
X15742600Y-11321100D02*
X15702600Y-11361100D01*
X15715300Y-10559100D02*
X15755300Y-10599100D01*
X15755300Y-10559100D02*
X15715300Y-10599100D01*
X15735620Y-9676450D02*
X15775620Y-9716450D01*
X15775620Y-9676450D02*
X15735620Y-9716450D01*
X15753400Y-13315000D02*
X15793400Y-13355000D01*
X15793400Y-13315000D02*
X15753400Y-13355000D01*
X15766100Y-10184450D02*
X15806100Y-10224450D01*
X15806100Y-10184450D02*
X15766100Y-10224450D01*
X15766100Y-11397300D02*
X15806100Y-11437300D01*
X15806100Y-11397300D02*
X15766100Y-11437300D01*
X15804200Y-10902000D02*
X15844200Y-10942000D01*
X15844200Y-10902000D02*
X15804200Y-10942000D01*
X15811820Y-9336090D02*
X15851820Y-9376090D01*
X15851820Y-9336090D02*
X15811820Y-9376090D01*
X15829600Y-12426000D02*
X15869600Y-12466000D01*
X15869600Y-12426000D02*
X15829600Y-12466000D01*
X15837220Y-9419910D02*
X15877220Y-9459910D01*
X15877220Y-9419910D02*
X15837220Y-9459910D01*
X15857540Y-13321350D02*
X15897540Y-13361350D01*
X15897540Y-13321350D02*
X15857540Y-13361350D01*
X15893100Y-10940100D02*
X15933100Y-10980100D01*
X15933100Y-10940100D02*
X15893100Y-10980100D01*
X15994700Y-11346500D02*
X16034700Y-11386500D01*
X16034700Y-11346500D02*
X15994700Y-11386500D01*
X15994700Y-13251500D02*
X16034700Y-13291500D01*
X16034700Y-13251500D02*
X15994700Y-13291500D01*
X16007400Y-11638600D02*
X16047400Y-11678600D01*
X16047400Y-11638600D02*
X16007400Y-11678600D01*
X16007400Y-12324400D02*
X16047400Y-12364400D01*
X16047400Y-12324400D02*
X16007400Y-12364400D01*
X16020100Y-11765600D02*
X16060100Y-11805600D01*
X16060100Y-11765600D02*
X16020100Y-11805600D01*
X16020100Y-12210100D02*
X16060100Y-12250100D01*
X16060100Y-12210100D02*
X16020100Y-12250100D01*
X16027720Y-13395010D02*
X16067720Y-13435010D01*
X16067720Y-13395010D02*
X16027720Y-13435010D01*
X16093760Y-12150410D02*
X16133760Y-12190410D01*
X16133760Y-12150410D02*
X16093760Y-12190410D01*
X16096300Y-10482900D02*
X16136300Y-10522900D01*
X16136300Y-10482900D02*
X16096300Y-10522900D01*
X16121700Y-10940100D02*
X16161700Y-10980100D01*
X16161700Y-10940100D02*
X16121700Y-10980100D01*
X16134400Y-11359200D02*
X16174400Y-11399200D01*
X16174400Y-11359200D02*
X16134400Y-11399200D01*
X16134400Y-11651300D02*
X16174400Y-11691300D01*
X16174400Y-11651300D02*
X16134400Y-11691300D01*
X16159800Y-11905300D02*
X16199800Y-11945300D01*
X16199800Y-11905300D02*
X16159800Y-11945300D01*
X16172500Y-13200700D02*
X16212500Y-13240700D01*
X16212500Y-13200700D02*
X16172500Y-13240700D01*
X16182660Y-10009190D02*
X16222660Y-10049190D01*
X16222660Y-10009190D02*
X16182660Y-10049190D01*
X16210600Y-10686100D02*
X16250600Y-10726100D01*
X16250600Y-10686100D02*
X16210600Y-10726100D01*
X16210600Y-11537000D02*
X16250600Y-11577000D01*
X16250600Y-11537000D02*
X16210600Y-11577000D01*
X16236000Y-10559100D02*
X16276000Y-10599100D01*
X16276000Y-10559100D02*
X16236000Y-10599100D01*
X16236000Y-11752900D02*
X16276000Y-11792900D01*
X16276000Y-11752900D02*
X16236000Y-11792900D01*
X16236000Y-12083100D02*
X16276000Y-12123100D01*
X16276000Y-12083100D02*
X16236000Y-12123100D01*
X16236000Y-12819700D02*
X16276000Y-12859700D01*
X16276000Y-12819700D02*
X16236000Y-12859700D01*
X16248700Y-12451400D02*
X16288700Y-12491400D01*
X16288700Y-12451400D02*
X16248700Y-12491400D01*
X16324900Y-13213400D02*
X16364900Y-13253400D01*
X16364900Y-13213400D02*
X16324900Y-13253400D01*
X16363000Y-12451400D02*
X16403000Y-12491400D01*
X16403000Y-12451400D02*
X16363000Y-12491400D01*
X16439200Y-10317800D02*
X16479200Y-10357800D01*
X16479200Y-10317800D02*
X16439200Y-10357800D01*
X16464600Y-10559100D02*
X16504600Y-10599100D01*
X16504600Y-10559100D02*
X16464600Y-10599100D01*
X16464600Y-13200700D02*
X16504600Y-13240700D01*
X16504600Y-13200700D02*
X16464600Y-13240700D01*
X16540800Y-11003600D02*
X16580800Y-11043600D01*
X16580800Y-11003600D02*
X16540800Y-11043600D01*
X16566200Y-12445050D02*
X16606200Y-12485050D01*
X16606200Y-12445050D02*
X16566200Y-12485050D01*
X16591600Y-10470200D02*
X16631600Y-10510200D01*
X16631600Y-10470200D02*
X16591600Y-10510200D01*
X16604300Y-11384600D02*
X16644300Y-11424600D01*
X16644300Y-11384600D02*
X16604300Y-11424600D01*
X16617000Y-13200700D02*
X16657000Y-13240700D01*
X16657000Y-13200700D02*
X16617000Y-13240700D01*
X16617000Y-13302300D02*
X16657000Y-13342300D01*
X16657000Y-13302300D02*
X16617000Y-13342300D01*
X16627160Y-10941370D02*
X16667160Y-10981370D01*
X16667160Y-10941370D02*
X16627160Y-10981370D01*
X16782100Y-12807000D02*
X16822100Y-12847000D01*
X16822100Y-12807000D02*
X16782100Y-12847000D01*
X16797340Y-11650030D02*
X16837340Y-11690030D01*
X16837340Y-11650030D02*
X16797340Y-11690030D01*
X16804960Y-11766870D02*
X16844960Y-11806870D01*
X16844960Y-11766870D02*
X16804960Y-11806870D01*
X16837980Y-10941370D02*
X16877980Y-10981370D01*
X16877980Y-10941370D02*
X16837980Y-10981370D01*
X16871000Y-10317800D02*
X16911000Y-10357800D01*
X16911000Y-10317800D02*
X16871000Y-10357800D01*
X16876080Y-9872030D02*
X16916080Y-9912030D01*
X16916080Y-9872030D02*
X16876080Y-9912030D01*
X16883700Y-10559100D02*
X16923700Y-10599100D01*
X16923700Y-10559100D02*
X16883700Y-10599100D01*
X16985300Y-10546400D02*
X17025300Y-10586400D01*
X17025300Y-10546400D02*
X16985300Y-10586400D01*
X17020860Y-10438450D02*
X17060860Y-10478450D01*
X17060860Y-10438450D02*
X17020860Y-10478450D01*
X17020860Y-12561890D02*
X17060860Y-12601890D01*
X17060860Y-12561890D02*
X17020860Y-12601890D01*
X17023400Y-12752390D02*
X17063400Y-12792390D01*
X17063400Y-12752390D02*
X17023400Y-12792390D01*
X17058960Y-9338630D02*
X17098960Y-9378630D01*
X17098960Y-9338630D02*
X17058960Y-9378630D01*
X17079280Y-10923590D02*
X17119280Y-10963590D01*
X17119280Y-10923590D02*
X17079280Y-10963590D01*
X17081820Y-10552750D02*
X17121820Y-10592750D01*
X17121820Y-10552750D02*
X17081820Y-10592750D01*
X17203740Y-12810810D02*
X17243740Y-12850810D01*
X17243740Y-12810810D02*
X17203740Y-12850810D01*
X17239300Y-11359200D02*
X17279300Y-11399200D01*
X17279300Y-11359200D02*
X17239300Y-11399200D01*
X17264700Y-10927400D02*
X17304700Y-10967400D01*
X17304700Y-10927400D02*
X17264700Y-10967400D01*
X11538420Y-12955270D02*
G75*
G03X11538420Y-12955270I-50000J0D01*
G01*
X11589220Y-11926570D02*
G75*
G03X11589220Y-11926570I-50000J0D01*
G01*
X11696836Y-9688950D02*
G75*
G03X11696836Y-9688950I-50000J0D01*
G01*
X11696836Y-9942950D02*
G75*
G03X11696836Y-9942950I-50000J0D01*
G01*
X11696836Y-10196950D02*
G75*
G03X11696836Y-10196950I-50000J0D01*
G01*
X11703286Y-10738200D02*
G75*
G03X11703286Y-10738200I-50000J0D01*
G01*
X11703286Y-10992200D02*
G75*
G03X11703286Y-10992200I-50000J0D01*
G01*
X11792420Y-12955270D02*
G75*
G03X11792420Y-12955270I-50000J0D01*
G01*
X11843220Y-11926570D02*
G75*
G03X11843220Y-11926570I-50000J0D01*
G01*
X12046420Y-12955270D02*
G75*
G03X12046420Y-12955270I-50000J0D01*
G01*
X12097220Y-11926570D02*
G75*
G03X12097220Y-11926570I-50000J0D01*
G01*
X12833820Y-11515090D02*
G75*
G03X12833820Y-11515090I-50000J0D01*
G01*
X12833820Y-11769090D02*
G75*
G03X12833820Y-11769090I-50000J0D01*
G01*
X12833820Y-12023090D02*
G75*
G03X12833820Y-12023090I-50000J0D01*
G01*
X12833820Y-12277090D02*
G75*
G03X12833820Y-12277090I-50000J0D01*
G01*
X12833820Y-12531090D02*
G75*
G03X12833820Y-12531090I-50000J0D01*
G01*
X12833820Y-12785090D02*
G75*
G03X12833820Y-12785090I-50000J0D01*
G01*
X12833820Y-13039090D02*
G75*
G03X12833820Y-13039090I-50000J0D01*
G01*
X12833820Y-13293090D02*
G75*
G03X12833820Y-13293090I-50000J0D01*
G01*
X12833820Y-13547090D02*
G75*
G03X12833820Y-13547090I-50000J0D01*
G01*
X12833820Y-13801090D02*
G75*
G03X12833820Y-13801090I-50000J0D01*
G01*
X13707580Y-11106150D02*
G75*
G03X13707580Y-11106150I-50000J0D01*
G01*
X15043620Y-11563350D02*
G75*
G03X15043620Y-11563350I-50000J0D01*
G01*
X15043620Y-11817350D02*
G75*
G03X15043620Y-11817350I-50000J0D01*
G01*
X15043620Y-12071350D02*
G75*
G03X15043620Y-12071350I-50000J0D01*
G01*
X15043620Y-12325350D02*
G75*
G03X15043620Y-12325350I-50000J0D01*
G01*
X15043620Y-12579350D02*
G75*
G03X15043620Y-12579350I-50000J0D01*
G01*
X15043620Y-12833350D02*
G75*
G03X15043620Y-12833350I-50000J0D01*
G01*
X15043620Y-13087350D02*
G75*
G03X15043620Y-13087350I-50000J0D01*
G01*
X15043620Y-13341350D02*
G75*
G03X15043620Y-13341350I-50000J0D01*
G01*
X15043620Y-13595350D02*
G75*
G03X15043620Y-13595350I-50000J0D01*
G01*
X15043620Y-13849350D02*
G75*
G03X15043620Y-13849350I-50000J0D01*
G01*
X16026600Y-13658850D02*
G75*
G03X16026600Y-13658850I-50000J0D01*
G01*
X16280600Y-13658850D02*
G75*
G03X16280600Y-13658850I-50000J0D01*
G01*
X16534600Y-13658850D02*
G75*
G03X16534600Y-13658850I-50000J0D01*
G01*
D13*
X11185928Y-14932164D02*
X11185928Y-14632164D01*
X11257357Y-14632164D01*
X11300214Y-14646450D01*
X11328786Y-14675021D01*
X11343071Y-14703593D01*
X11357357Y-14760736D01*
X11357357Y-14803593D01*
X11343071Y-14860736D01*
X11328786Y-14889307D01*
X11300214Y-14917879D01*
X11257357Y-14932164D01*
X11185928Y-14932164D01*
X11485928Y-14932164D02*
X11485928Y-14732164D01*
X11485928Y-14789307D02*
X11500214Y-14760736D01*
X11514500Y-14746450D01*
X11543071Y-14732164D01*
X11571643Y-14732164D01*
X11671643Y-14932164D02*
X11671643Y-14732164D01*
X11671643Y-14632164D02*
X11657357Y-14646450D01*
X11671643Y-14660736D01*
X11685928Y-14646450D01*
X11671643Y-14632164D01*
X11671643Y-14660736D01*
X11857357Y-14932164D02*
X11828786Y-14917879D01*
X11814500Y-14889307D01*
X11814500Y-14632164D01*
X12014500Y-14932164D02*
X11985928Y-14917879D01*
X11971643Y-14889307D01*
X11971643Y-14632164D01*
X12357357Y-14932164D02*
X12357357Y-14632164D01*
X12457357Y-14846450D01*
X12557357Y-14632164D01*
X12557357Y-14932164D01*
X12828786Y-14932164D02*
X12828786Y-14775021D01*
X12814500Y-14746450D01*
X12785928Y-14732164D01*
X12728786Y-14732164D01*
X12700214Y-14746450D01*
X12828786Y-14917879D02*
X12800214Y-14932164D01*
X12728786Y-14932164D01*
X12700214Y-14917879D01*
X12685928Y-14889307D01*
X12685928Y-14860736D01*
X12700214Y-14832164D01*
X12728786Y-14817879D01*
X12800214Y-14817879D01*
X12828786Y-14803593D01*
X12971643Y-14732164D02*
X12971643Y-15032164D01*
X12971643Y-14746450D02*
X13000214Y-14732164D01*
X13057357Y-14732164D01*
X13085928Y-14746450D01*
X13100214Y-14760736D01*
X13114500Y-14789307D01*
X13114500Y-14875021D01*
X13100214Y-14903593D01*
X13085928Y-14917879D01*
X13057357Y-14932164D01*
X13000214Y-14932164D01*
X12971643Y-14917879D01*
X13243071Y-14903593D02*
X13257357Y-14917879D01*
X13243071Y-14932164D01*
X13228786Y-14917879D01*
X13243071Y-14903593D01*
X13243071Y-14932164D01*
X13243071Y-14746450D02*
X13257357Y-14760736D01*
X13243071Y-14775021D01*
X13228786Y-14760736D01*
X13243071Y-14746450D01*
X13243071Y-14775021D01*
X10874500Y-15406450D02*
X10914500Y-15446450D01*
X10914500Y-15406450D02*
X10874500Y-15446450D01*
X11243071Y-15262164D02*
X11271643Y-15262164D01*
X11300214Y-15276450D01*
X11314500Y-15290736D01*
X11328786Y-15319307D01*
X11343071Y-15376450D01*
X11343071Y-15447879D01*
X11328786Y-15505021D01*
X11314500Y-15533593D01*
X11300214Y-15547879D01*
X11271643Y-15562164D01*
X11243071Y-15562164D01*
X11214500Y-15547879D01*
X11200214Y-15533593D01*
X11185928Y-15505021D01*
X11171643Y-15447879D01*
X11171643Y-15376450D01*
X11185928Y-15319307D01*
X11200214Y-15290736D01*
X11214500Y-15276450D01*
X11243071Y-15262164D01*
X11471643Y-15533593D02*
X11485928Y-15547879D01*
X11471643Y-15562164D01*
X11457357Y-15547879D01*
X11471643Y-15533593D01*
X11471643Y-15562164D01*
X11743071Y-15362164D02*
X11743071Y-15562164D01*
X11671643Y-15247879D02*
X11600214Y-15462164D01*
X11785928Y-15462164D01*
X11957357Y-15262164D02*
X11985928Y-15262164D01*
X12014500Y-15276450D01*
X12028786Y-15290736D01*
X12043071Y-15319307D01*
X12057357Y-15376450D01*
X12057357Y-15447879D01*
X12043071Y-15505021D01*
X12028786Y-15533593D01*
X12014500Y-15547879D01*
X11985928Y-15562164D01*
X11957357Y-15562164D01*
X11928786Y-15547879D01*
X11914500Y-15533593D01*
X11900214Y-15505021D01*
X11885928Y-15447879D01*
X11885928Y-15376450D01*
X11900214Y-15319307D01*
X11914500Y-15290736D01*
X11928786Y-15276450D01*
X11957357Y-15262164D01*
X12185928Y-15562164D02*
X12185928Y-15362164D01*
X12185928Y-15390736D02*
X12200214Y-15376450D01*
X12228786Y-15362164D01*
X12271643Y-15362164D01*
X12300214Y-15376450D01*
X12314500Y-15405021D01*
X12314500Y-15562164D01*
X12314500Y-15405021D02*
X12328786Y-15376450D01*
X12357357Y-15362164D01*
X12400214Y-15362164D01*
X12428786Y-15376450D01*
X12443071Y-15405021D01*
X12443071Y-15562164D01*
X12585928Y-15562164D02*
X12585928Y-15362164D01*
X12585928Y-15390736D02*
X12600214Y-15376450D01*
X12628786Y-15362164D01*
X12671643Y-15362164D01*
X12700214Y-15376450D01*
X12714500Y-15405021D01*
X12714500Y-15562164D01*
X12714500Y-15405021D02*
X12728786Y-15376450D01*
X12757357Y-15362164D01*
X12800214Y-15362164D01*
X12828786Y-15376450D01*
X12843071Y-15405021D01*
X12843071Y-15562164D01*
X13428786Y-15247879D02*
X13171643Y-15633593D01*
X13814500Y-15262164D02*
X13843071Y-15262164D01*
X13871643Y-15276450D01*
X13885928Y-15290736D01*
X13900214Y-15319307D01*
X13914500Y-15376450D01*
X13914500Y-15447879D01*
X13900214Y-15505021D01*
X13885928Y-15533593D01*
X13871643Y-15547879D01*
X13843071Y-15562164D01*
X13814500Y-15562164D01*
X13785928Y-15547879D01*
X13771643Y-15533593D01*
X13757357Y-15505021D01*
X13743071Y-15447879D01*
X13743071Y-15376450D01*
X13757357Y-15319307D01*
X13771643Y-15290736D01*
X13785928Y-15276450D01*
X13814500Y-15262164D01*
X14043071Y-15533593D02*
X14057357Y-15547879D01*
X14043071Y-15562164D01*
X14028786Y-15547879D01*
X14043071Y-15533593D01*
X14043071Y-15562164D01*
X14243071Y-15262164D02*
X14271643Y-15262164D01*
X14300214Y-15276450D01*
X14314500Y-15290736D01*
X14328785Y-15319307D01*
X14343071Y-15376450D01*
X14343071Y-15447879D01*
X14328785Y-15505021D01*
X14314500Y-15533593D01*
X14300214Y-15547879D01*
X14271643Y-15562164D01*
X14243071Y-15562164D01*
X14214500Y-15547879D01*
X14200214Y-15533593D01*
X14185928Y-15505021D01*
X14171643Y-15447879D01*
X14171643Y-15376450D01*
X14185928Y-15319307D01*
X14200214Y-15290736D01*
X14214500Y-15276450D01*
X14243071Y-15262164D01*
X14628785Y-15562164D02*
X14457357Y-15562164D01*
X14543071Y-15562164D02*
X14543071Y-15262164D01*
X14514500Y-15305021D01*
X14485928Y-15333593D01*
X14457357Y-15347879D01*
X14885928Y-15262164D02*
X14828785Y-15262164D01*
X14800214Y-15276450D01*
X14785928Y-15290736D01*
X14757357Y-15333593D01*
X14743071Y-15390736D01*
X14743071Y-15505021D01*
X14757357Y-15533593D01*
X14771643Y-15547879D01*
X14800214Y-15562164D01*
X14857357Y-15562164D01*
X14885928Y-15547879D01*
X14900214Y-15533593D01*
X14914500Y-15505021D01*
X14914500Y-15433593D01*
X14900214Y-15405021D01*
X14885928Y-15390736D01*
X14857357Y-15376450D01*
X14800214Y-15376450D01*
X14771643Y-15390736D01*
X14757357Y-15405021D01*
X14743071Y-15433593D01*
X15028786Y-15262164D02*
X15028786Y-15319307D01*
X15143071Y-15262164D02*
X15143071Y-15319307D01*
X15585928Y-15676450D02*
X15571643Y-15662164D01*
X15543071Y-15619307D01*
X15528785Y-15590736D01*
X15514500Y-15547879D01*
X15500214Y-15476450D01*
X15500214Y-15419307D01*
X15514500Y-15347879D01*
X15528785Y-15305021D01*
X15543071Y-15276450D01*
X15571643Y-15233593D01*
X15585928Y-15219307D01*
X15857357Y-15562164D02*
X15685928Y-15562164D01*
X15771643Y-15562164D02*
X15771643Y-15262164D01*
X15743071Y-15305021D01*
X15714500Y-15333593D01*
X15685928Y-15347879D01*
X16114500Y-15362164D02*
X16114500Y-15562164D01*
X16043071Y-15247879D02*
X15971643Y-15462164D01*
X16157357Y-15462164D01*
X16243071Y-15262164D02*
X16443071Y-15262164D01*
X16314500Y-15562164D01*
X16785928Y-15562164D02*
X16785928Y-15262164D01*
X16914500Y-15562164D02*
X16914500Y-15405021D01*
X16900214Y-15376450D01*
X16871643Y-15362164D01*
X16828786Y-15362164D01*
X16800214Y-15376450D01*
X16785928Y-15390736D01*
X17100214Y-15562164D02*
X17071643Y-15547879D01*
X17057357Y-15533593D01*
X17043071Y-15505021D01*
X17043071Y-15419307D01*
X17057357Y-15390736D01*
X17071643Y-15376450D01*
X17100214Y-15362164D01*
X17143071Y-15362164D01*
X17171643Y-15376450D01*
X17185928Y-15390736D01*
X17200214Y-15419307D01*
X17200214Y-15505021D01*
X17185928Y-15533593D01*
X17171643Y-15547879D01*
X17143071Y-15562164D01*
X17100214Y-15562164D01*
X17371643Y-15562164D02*
X17343071Y-15547879D01*
X17328786Y-15519307D01*
X17328786Y-15262164D01*
X17600214Y-15547879D02*
X17571643Y-15562164D01*
X17514500Y-15562164D01*
X17485929Y-15547879D01*
X17471643Y-15519307D01*
X17471643Y-15405021D01*
X17485929Y-15376450D01*
X17514500Y-15362164D01*
X17571643Y-15362164D01*
X17600214Y-15376450D01*
X17614500Y-15405021D01*
X17614500Y-15433593D01*
X17471643Y-15462164D01*
X17728786Y-15547879D02*
X17757357Y-15562164D01*
X17814500Y-15562164D01*
X17843071Y-15547879D01*
X17857357Y-15519307D01*
X17857357Y-15505021D01*
X17843071Y-15476450D01*
X17814500Y-15462164D01*
X17771643Y-15462164D01*
X17743071Y-15447879D01*
X17728786Y-15419307D01*
X17728786Y-15405021D01*
X17743071Y-15376450D01*
X17771643Y-15362164D01*
X17814500Y-15362164D01*
X17843071Y-15376450D01*
X17957357Y-15676450D02*
X17971643Y-15662164D01*
X18000214Y-15619307D01*
X18014500Y-15590736D01*
X18028786Y-15547879D01*
X18043071Y-15476450D01*
X18043071Y-15419307D01*
X18028786Y-15347879D01*
X18014500Y-15305021D01*
X18000214Y-15276450D01*
X17971643Y-15233593D01*
X17957357Y-15219307D01*
X10914500Y-15822450D02*
G75*
G03X10914500Y-15822450I-50000J0D01*
G01*
X11343071Y-15958164D02*
X11171643Y-15958164D01*
X11257357Y-15958164D02*
X11257357Y-15658164D01*
X11228786Y-15701021D01*
X11200214Y-15729593D01*
X11171643Y-15743879D01*
X11471643Y-15929593D02*
X11485928Y-15943879D01*
X11471643Y-15958164D01*
X11457357Y-15943879D01*
X11471643Y-15929593D01*
X11471643Y-15958164D01*
X11671643Y-15658164D02*
X11700214Y-15658164D01*
X11728786Y-15672450D01*
X11743071Y-15686736D01*
X11757357Y-15715307D01*
X11771643Y-15772450D01*
X11771643Y-15843879D01*
X11757357Y-15901021D01*
X11743071Y-15929593D01*
X11728786Y-15943879D01*
X11700214Y-15958164D01*
X11671643Y-15958164D01*
X11643071Y-15943879D01*
X11628786Y-15929593D01*
X11614500Y-15901021D01*
X11600214Y-15843879D01*
X11600214Y-15772450D01*
X11614500Y-15715307D01*
X11628786Y-15686736D01*
X11643071Y-15672450D01*
X11671643Y-15658164D01*
X11957357Y-15658164D02*
X11985928Y-15658164D01*
X12014500Y-15672450D01*
X12028786Y-15686736D01*
X12043071Y-15715307D01*
X12057357Y-15772450D01*
X12057357Y-15843879D01*
X12043071Y-15901021D01*
X12028786Y-15929593D01*
X12014500Y-15943879D01*
X11985928Y-15958164D01*
X11957357Y-15958164D01*
X11928786Y-15943879D01*
X11914500Y-15929593D01*
X11900214Y-15901021D01*
X11885928Y-15843879D01*
X11885928Y-15772450D01*
X11900214Y-15715307D01*
X11914500Y-15686736D01*
X11928786Y-15672450D01*
X11957357Y-15658164D01*
X12185928Y-15958164D02*
X12185928Y-15758164D01*
X12185928Y-15786736D02*
X12200214Y-15772450D01*
X12228786Y-15758164D01*
X12271643Y-15758164D01*
X12300214Y-15772450D01*
X12314500Y-15801021D01*
X12314500Y-15958164D01*
X12314500Y-15801021D02*
X12328786Y-15772450D01*
X12357357Y-15758164D01*
X12400214Y-15758164D01*
X12428786Y-15772450D01*
X12443071Y-15801021D01*
X12443071Y-15958164D01*
X12585928Y-15958164D02*
X12585928Y-15758164D01*
X12585928Y-15786736D02*
X12600214Y-15772450D01*
X12628786Y-15758164D01*
X12671643Y-15758164D01*
X12700214Y-15772450D01*
X12714500Y-15801021D01*
X12714500Y-15958164D01*
X12714500Y-15801021D02*
X12728786Y-15772450D01*
X12757357Y-15758164D01*
X12800214Y-15758164D01*
X12828786Y-15772450D01*
X12843071Y-15801021D01*
X12843071Y-15958164D01*
X13428786Y-15643879D02*
X13171643Y-16029593D01*
X13814500Y-15658164D02*
X13843071Y-15658164D01*
X13871643Y-15672450D01*
X13885928Y-15686736D01*
X13900214Y-15715307D01*
X13914500Y-15772450D01*
X13914500Y-15843879D01*
X13900214Y-15901021D01*
X13885928Y-15929593D01*
X13871643Y-15943879D01*
X13843071Y-15958164D01*
X13814500Y-15958164D01*
X13785928Y-15943879D01*
X13771643Y-15929593D01*
X13757357Y-15901021D01*
X13743071Y-15843879D01*
X13743071Y-15772450D01*
X13757357Y-15715307D01*
X13771643Y-15686736D01*
X13785928Y-15672450D01*
X13814500Y-15658164D01*
X14043071Y-15929593D02*
X14057357Y-15943879D01*
X14043071Y-15958164D01*
X14028786Y-15943879D01*
X14043071Y-15929593D01*
X14043071Y-15958164D01*
X14243071Y-15658164D02*
X14271643Y-15658164D01*
X14300214Y-15672450D01*
X14314500Y-15686736D01*
X14328785Y-15715307D01*
X14343071Y-15772450D01*
X14343071Y-15843879D01*
X14328785Y-15901021D01*
X14314500Y-15929593D01*
X14300214Y-15943879D01*
X14271643Y-15958164D01*
X14243071Y-15958164D01*
X14214500Y-15943879D01*
X14200214Y-15929593D01*
X14185928Y-15901021D01*
X14171643Y-15843879D01*
X14171643Y-15772450D01*
X14185928Y-15715307D01*
X14200214Y-15686736D01*
X14214500Y-15672450D01*
X14243071Y-15658164D01*
X14443071Y-15658164D02*
X14628785Y-15658164D01*
X14528785Y-15772450D01*
X14571643Y-15772450D01*
X14600214Y-15786736D01*
X14614500Y-15801021D01*
X14628785Y-15829593D01*
X14628785Y-15901021D01*
X14614500Y-15929593D01*
X14600214Y-15943879D01*
X14571643Y-15958164D01*
X14485928Y-15958164D01*
X14457357Y-15943879D01*
X14443071Y-15929593D01*
X14771643Y-15958164D02*
X14828785Y-15958164D01*
X14857357Y-15943879D01*
X14871643Y-15929593D01*
X14900214Y-15886736D01*
X14914500Y-15829593D01*
X14914500Y-15715307D01*
X14900214Y-15686736D01*
X14885928Y-15672450D01*
X14857357Y-15658164D01*
X14800214Y-15658164D01*
X14771643Y-15672450D01*
X14757357Y-15686736D01*
X14743071Y-15715307D01*
X14743071Y-15786736D01*
X14757357Y-15815307D01*
X14771643Y-15829593D01*
X14800214Y-15843879D01*
X14857357Y-15843879D01*
X14885928Y-15829593D01*
X14900214Y-15815307D01*
X14914500Y-15786736D01*
X15028786Y-15658164D02*
X15028786Y-15715307D01*
X15143071Y-15658164D02*
X15143071Y-15715307D01*
X15585928Y-16072450D02*
X15571643Y-16058164D01*
X15543071Y-16015307D01*
X15528785Y-15986736D01*
X15514500Y-15943879D01*
X15500214Y-15872450D01*
X15500214Y-15815307D01*
X15514500Y-15743879D01*
X15528785Y-15701021D01*
X15543071Y-15672450D01*
X15571643Y-15629593D01*
X15585928Y-15615307D01*
X15671643Y-15658164D02*
X15857357Y-15658164D01*
X15757357Y-15772450D01*
X15800214Y-15772450D01*
X15828785Y-15786736D01*
X15843071Y-15801021D01*
X15857357Y-15829593D01*
X15857357Y-15901021D01*
X15843071Y-15929593D01*
X15828785Y-15943879D01*
X15800214Y-15958164D01*
X15714500Y-15958164D01*
X15685928Y-15943879D01*
X15671643Y-15929593D01*
X16128785Y-15658164D02*
X15985928Y-15658164D01*
X15971643Y-15801021D01*
X15985928Y-15786736D01*
X16014500Y-15772450D01*
X16085928Y-15772450D01*
X16114500Y-15786736D01*
X16128785Y-15801021D01*
X16143071Y-15829593D01*
X16143071Y-15901021D01*
X16128785Y-15929593D01*
X16114500Y-15943879D01*
X16085928Y-15958164D01*
X16014500Y-15958164D01*
X15985928Y-15943879D01*
X15971643Y-15929593D01*
X16500214Y-15958164D02*
X16500214Y-15658164D01*
X16628785Y-15958164D02*
X16628785Y-15801021D01*
X16614500Y-15772450D01*
X16585928Y-15758164D01*
X16543071Y-15758164D01*
X16514500Y-15772450D01*
X16500214Y-15786736D01*
X16814500Y-15958164D02*
X16785928Y-15943879D01*
X16771643Y-15929593D01*
X16757357Y-15901021D01*
X16757357Y-15815307D01*
X16771643Y-15786736D01*
X16785928Y-15772450D01*
X16814500Y-15758164D01*
X16857357Y-15758164D01*
X16885928Y-15772450D01*
X16900214Y-15786736D01*
X16914500Y-15815307D01*
X16914500Y-15901021D01*
X16900214Y-15929593D01*
X16885928Y-15943879D01*
X16857357Y-15958164D01*
X16814500Y-15958164D01*
X17085928Y-15958164D02*
X17057357Y-15943879D01*
X17043071Y-15915307D01*
X17043071Y-15658164D01*
X17314500Y-15943879D02*
X17285929Y-15958164D01*
X17228786Y-15958164D01*
X17200214Y-15943879D01*
X17185929Y-15915307D01*
X17185929Y-15801021D01*
X17200214Y-15772450D01*
X17228786Y-15758164D01*
X17285929Y-15758164D01*
X17314500Y-15772450D01*
X17328786Y-15801021D01*
X17328786Y-15829593D01*
X17185929Y-15858164D01*
X17443071Y-15943879D02*
X17471643Y-15958164D01*
X17528786Y-15958164D01*
X17557357Y-15943879D01*
X17571643Y-15915307D01*
X17571643Y-15901021D01*
X17557357Y-15872450D01*
X17528786Y-15858164D01*
X17485929Y-15858164D01*
X17457357Y-15843879D01*
X17443071Y-15815307D01*
X17443071Y-15801021D01*
X17457357Y-15772450D01*
X17485929Y-15758164D01*
X17528786Y-15758164D01*
X17557357Y-15772450D01*
X17671643Y-16072450D02*
X17685929Y-16058164D01*
X17714500Y-16015307D01*
X17728786Y-15986736D01*
X17743071Y-15943879D01*
X17757357Y-15872450D01*
X17757357Y-15815307D01*
X17743071Y-15743879D01*
X17728786Y-15701021D01*
X17714500Y-15672450D01*
X17685929Y-15629593D01*
X17671643Y-15615307D01*
M02*
