M48
INCH,TZ
T1C0.016
T2C0.039
%
G90
G05
T1
X47110Y-38465
X47500Y-40550
X47550Y-43700
X47710Y-41965
X48350Y-45800
X48650Y-38400
X48670Y-50225
X48730Y-51405
X48800Y-40900
X48800Y-41400
X48920Y-42555
X49000Y-43325
X49100Y-38400
X49550Y-38400
X49750Y-39450
X50150Y-42100
X51000Y-40000
X51000Y-40600
X51050Y-46925
X51350Y-40900
X51350Y-41400
X51350Y-43650
X52650Y-40700
X52650Y-41300
X52650Y-42000
X53250Y-50900
X53450Y-47050
X53600Y-40000
X53600Y-40400
X53750Y-47750
X54550Y-49300
X54700Y-48700
X54750Y-50150
X55100Y-41600
X55100Y-48700
X55350Y-49585
X55650Y-49750
X56200Y-43450
X56450Y-42500
X56660Y-51095
X56850Y-41000
X56850Y-43400
X57150Y-42800
X57300Y-41000
X57300Y-43450
X57380Y-48715
X57450Y-40400
X57750Y-44750
X58050Y-45500
X58200Y-41600
X58300Y-45205
X58450Y-39900
X58450Y-41300
X58450Y-42000
X58750Y-43150
X59000Y-39950
X59450Y-39950
X59600Y-43600
X59750Y-41400
X59850Y-45905
X60050Y-49550
X60200Y-37150
X60370Y-46465
X60500Y-43150
X60500Y-52125
X60600Y-44865
X60610Y-53675
X60650Y-38300
X60950Y-39950
X61000Y-37150
X61000Y-47350
X61020Y-49195
X61100Y-43150
X61100Y-51900
X61140Y-46325
X61360Y-38555
X61400Y-50750
X61450Y-38250
X61510Y-48805
X61550Y-39950
X61800Y-49050
X61800Y-49950
X61800Y-50850
X61870Y-51785
X61900Y-44650
X61950Y-41650
X62030Y-38175
X62100Y-52500
X62150Y-40175
X62150Y-44950
X62300Y-43000
X62330Y-36835
X62400Y-49000
X62430Y-37165
X62510Y-52525
X62650Y-43150
X63050Y-44750
X63050Y-52250
X63100Y-45900
X63100Y-48600
X63150Y-46400
X63150Y-48150
X63180Y-52815
X63440Y-47915
X63450Y-41350
X63550Y-43150
X63600Y-44800
X63600Y-45950
X63700Y-46950
X63750Y-52050
X63790Y-39485
X63900Y-42150
X63900Y-45500
X64000Y-41650
X64000Y-46350
X64000Y-47650
X64000Y-50550
X64050Y-49100
X64350Y-52100
X64500Y-49100
X64800Y-40700
X64900Y-41650
X64900Y-52050
X65200Y-43400
X65300Y-49075
X65400Y-41300
X65450Y-44900
X65500Y-52050
X65500Y-52450
X65540Y-43155
X66150Y-50500
X66210Y-45945
X66240Y-46405
X66370Y-43155
X66500Y-40700
X66520Y-38945
X66550Y-41650
X66950Y-41600
X67090Y-41175
X67090Y-49535
X67100Y-50285
X67240Y-36845
X67320Y-43085
X67330Y-41625
X67810Y-50515
X67950Y-44800
X68050Y-43100
T2
X45230Y-51005
X45430Y-46955
X45854Y-38145
X45854Y-39145
X45854Y-40145
X45879Y-42276
X45879Y-43276
X46230Y-51005
X46430Y-46955
X47230Y-51005
X47430Y-46955
X50330Y-45335
X50330Y-46335
X50330Y-47335
X50330Y-48335
X50330Y-49335
X50330Y-50335
X50330Y-51335
X50330Y-52335
X50330Y-53335
X50330Y-54335
X53770Y-43725
X59030Y-45525
X59030Y-46525
X59030Y-47525
X59030Y-48525
X59030Y-49525
X59030Y-50525
X59030Y-51525
X59030Y-52525
X59030Y-53525
X59030Y-54525
X62900Y-53775
X63900Y-53775
X64900Y-53775
T0
M30
