M48
INCH,TZ
T1C0.016
T2C0.039
%
G90
G05
T1
X42250Y-43500
X44500Y-43750
X44500Y-52000
X45000Y-55000
X45250Y-43500
X46250Y-42250
X46500Y-54750
X46750Y-42750
X47250Y-41250
X47250Y-51000
X47750Y-55250
X48000Y-42500
X48750Y-41250
X48750Y-41750
X49475Y-43800
X49750Y-48000
X50000Y-42750
X50200Y-43800
X50475Y-42675
X50500Y-42025
X51000Y-49250
X51225Y-44650
X51250Y-46500
X51475Y-47000
X51750Y-41750
X52250Y-44000
X52250Y-53750
X52500Y-45500
X52500Y-52500
X52750Y-55500
X53500Y-46250
X54000Y-46750
X54000Y-55500
X54500Y-41750
X54750Y-40750
X55000Y-54750
X55500Y-40750
X55750Y-47500
X56250Y-52000
X56750Y-41000
X56750Y-53500
X56750Y-55000
X57250Y-50500
X59250Y-46500
X59250Y-50500
X59250Y-52000
X59750Y-49000
X59750Y-50000
X59750Y-53750
X60000Y-42750
X60000Y-52725
X60475Y-52300
X60500Y-48250
X60725Y-51550
X60750Y-41750
X60750Y-47500
X61500Y-48000
X61750Y-41250
X61750Y-45250
X61750Y-46250
X61950Y-49125
X62000Y-42500
X62250Y-45000
X62500Y-43500
X62750Y-46000
X62750Y-51500
X63000Y-47500
X63250Y-42000
X63250Y-43000
X63500Y-41250
X63500Y-43250
X64000Y-41750
X64000Y-47250
X64500Y-41000
X65000Y-52250
X66225Y-43425
X66250Y-44250
X66500Y-43500
T2
X43279Y-46049
X43279Y-47049
X43279Y-48049
X43395Y-50407
X43395Y-51407
X43395Y-52407
X45594Y-45962
X45594Y-46962
X45594Y-47962
X48609Y-43772
X48609Y-44772
X48609Y-45772
X48609Y-46772
X48609Y-47772
X48609Y-48772
X48609Y-49772
X48609Y-50772
X48609Y-51772
X48609Y-52772
X53495Y-45148
X58224Y-44022
X58224Y-45022
X58224Y-46022
X58224Y-47022
X58224Y-48022
X58224Y-49022
X58224Y-50022
X58224Y-51022
X58224Y-52022
X58224Y-53022
X60753Y-45022
X60753Y-46022
T0
M30
