G04 #@! TF.FileFunction,Paste,Top*
%FSLAX46Y46*%
G04 Gerber Fmt 4.6, Leading zero omitted, Abs format (unit mm)*
G04 Created by KiCad (PCBNEW 4.0.7) date 11/28/17 14:48:26*
%MOMM*%
%LPD*%
G01*
G04 APERTURE LIST*
%ADD10C,0.100000*%
%ADD11R,0.750000X0.800000*%
%ADD12R,0.800000X0.750000*%
%ADD13R,0.280000X0.300000*%
%ADD14R,0.450000X1.450000*%
%ADD15R,0.500000X0.900000*%
%ADD16R,0.900000X0.500000*%
%ADD17R,1.400000X2.100000*%
%ADD18R,1.450000X0.450000*%
%ADD19R,1.550000X0.600000*%
%ADD20R,0.600000X1.550000*%
G04 APERTURE END LIST*
D10*
D11*
X164274500Y-112510000D03*
X164274500Y-111010000D03*
X157226000Y-98627500D03*
X157226000Y-100127500D03*
D12*
X154875800Y-133311900D03*
X156375800Y-133311900D03*
X118529800Y-124752100D03*
X117029800Y-124752100D03*
D11*
X159448500Y-98627500D03*
X159448500Y-100127500D03*
X166166800Y-108458700D03*
X166166800Y-106958700D03*
X169227500Y-112446500D03*
X169227500Y-110946500D03*
D12*
X123506800Y-96202500D03*
X125006800Y-96202500D03*
D11*
X167068500Y-112446500D03*
X167068500Y-110946500D03*
D12*
X154926600Y-130492500D03*
X156426600Y-130492500D03*
X160465200Y-107759500D03*
X158965200Y-107759500D03*
D11*
X154781250Y-98659250D03*
X154781250Y-100159250D03*
X161353500Y-112446500D03*
X161353500Y-110946500D03*
X152781000Y-112446500D03*
X152781000Y-110946500D03*
D12*
X153023000Y-95758000D03*
X151523000Y-95758000D03*
D11*
X152019000Y-100127500D03*
X152019000Y-98627500D03*
D12*
X123152600Y-109029500D03*
X121652600Y-109029500D03*
D11*
X158559500Y-112510000D03*
X158559500Y-111010000D03*
X173545500Y-112383000D03*
X173545500Y-110883000D03*
X171475400Y-108509500D03*
X171475400Y-107009500D03*
X155321000Y-112446500D03*
X155321000Y-110946500D03*
X171640500Y-112446500D03*
X171640500Y-110946500D03*
D12*
X125564200Y-108927900D03*
X127064200Y-108927900D03*
D13*
X129159000Y-110096300D03*
X129549000Y-110096300D03*
D14*
X158668000Y-115934700D03*
X158018000Y-115934700D03*
X157368000Y-115934700D03*
X156718000Y-115934700D03*
X156068000Y-115934700D03*
X155418000Y-115934700D03*
X154768000Y-115934700D03*
X154768000Y-121834700D03*
X155418000Y-121834700D03*
X156068000Y-121834700D03*
X156718000Y-121834700D03*
X157368000Y-121834700D03*
X158018000Y-121834700D03*
X158668000Y-121834700D03*
D15*
X159854200Y-103619300D03*
X161354200Y-103619300D03*
D16*
X158521400Y-127508700D03*
X158521400Y-126008700D03*
D15*
X121957400Y-112077500D03*
X123457400Y-112077500D03*
X125665800Y-112077500D03*
X127165800Y-112077500D03*
D16*
X169494200Y-129463100D03*
X169494200Y-130963100D03*
X165684200Y-131013900D03*
X165684200Y-129513900D03*
D15*
X125159200Y-99021900D03*
X123659200Y-99021900D03*
D16*
X127635000Y-98197100D03*
X127635000Y-96697100D03*
X161163000Y-125957900D03*
X161163000Y-127457900D03*
X163804600Y-125907100D03*
X163804600Y-127407100D03*
X166547800Y-127407100D03*
X166547800Y-125907100D03*
X169291000Y-120142700D03*
X169291000Y-118642700D03*
X169392600Y-117094700D03*
X169392600Y-115594700D03*
X163753800Y-108458700D03*
X163753800Y-106958700D03*
X167335200Y-120066500D03*
X167335200Y-118566500D03*
X167081200Y-117094700D03*
X167081200Y-115594700D03*
X149733000Y-100076700D03*
X149733000Y-98576700D03*
D15*
X154761500Y-95758000D03*
X156261500Y-95758000D03*
X163919600Y-122466100D03*
X162419600Y-122466100D03*
D16*
X167563800Y-129513900D03*
X167563800Y-131013900D03*
X163398200Y-131064700D03*
X163398200Y-129564700D03*
X168757600Y-108458700D03*
X168757600Y-106958700D03*
X171323000Y-120142700D03*
X171323000Y-118642700D03*
X171729400Y-116993100D03*
X171729400Y-115493100D03*
X161163000Y-131013900D03*
X161163000Y-129513900D03*
X158775400Y-130580700D03*
X158775400Y-132080700D03*
X155575000Y-126186500D03*
X155575000Y-127686500D03*
D17*
X167513000Y-94488000D03*
X167513000Y-103588000D03*
X163013000Y-94488000D03*
X163013000Y-103588000D03*
D18*
X142929400Y-128439100D03*
X142929400Y-127789100D03*
X142929400Y-127139100D03*
X142929400Y-126489100D03*
X142929400Y-125839100D03*
X142929400Y-125189100D03*
X142929400Y-124539100D03*
X142929400Y-123889100D03*
X142929400Y-123239100D03*
X142929400Y-122589100D03*
X137029400Y-122589100D03*
X137029400Y-123239100D03*
X137029400Y-123889100D03*
X137029400Y-124539100D03*
X137029400Y-125189100D03*
X137029400Y-125839100D03*
X137029400Y-126489100D03*
X137029400Y-127139100D03*
X137029400Y-127789100D03*
X137029400Y-128439100D03*
D19*
X127845800Y-105473500D03*
X127845800Y-104203500D03*
X127845800Y-102933500D03*
X127845800Y-101663500D03*
X122445800Y-101663500D03*
X122445800Y-102933500D03*
X122445800Y-104203500D03*
X122445800Y-105473500D03*
X155658800Y-106794300D03*
X155658800Y-105524300D03*
X155658800Y-104254300D03*
X155658800Y-102984300D03*
X150258800Y-102984300D03*
X150258800Y-104254300D03*
X150258800Y-105524300D03*
X150258800Y-106794300D03*
X137624800Y-105168700D03*
X137624800Y-103898700D03*
X137624800Y-102628700D03*
X137624800Y-101358700D03*
X132224800Y-101358700D03*
X132224800Y-102628700D03*
X132224800Y-103898700D03*
X132224800Y-105168700D03*
D20*
X146304000Y-106481900D03*
X145034000Y-106481900D03*
X143764000Y-106481900D03*
X142494000Y-106481900D03*
X142494000Y-111881900D03*
X143764000Y-111881900D03*
X145034000Y-111881900D03*
X146304000Y-111881900D03*
D12*
X139180000Y-113474500D03*
X137680000Y-113474500D03*
M02*
