M48
;DRILL file {KiCad 4.0.7} date 11/28/17 14:49:49
;FORMAT={-:-/ absolute / metric / decimal}
FMAT,2
METRIC,TZ
T1C0.400
T2C0.450
T3C1.000
%
G90
G05
M71
T1
X119.659Y-97.701
X120.65Y-102.997
X120.777Y-110.998
X121.183Y-106.591
X122.809Y-116.332
X123.571Y-97.536
X123.622Y-127.572
X123.774Y-130.569
X123.952Y-103.886
X123.952Y-105.156
X124.257Y-108.09
X124.46Y-110.045
X124.714Y-97.536
X125.857Y-97.536
X126.365Y-100.203
X127.381Y-106.934
X129.54Y-101.6
X129.54Y-103.124
X129.667Y-119.189
X130.429Y-103.886
X130.429Y-105.156
X130.429Y-110.871
X133.731Y-103.378
X133.731Y-104.902
X133.731Y-106.68
X135.763Y-119.507
X136.144Y-101.6
X136.144Y-102.616
X137.033Y-119.062
X138.557Y-125.222
X139.065Y-127.381
X139.129Y-120.904
X139.954Y-105.664
X139.954Y-123.698
X140.589Y-125.946
X141.351Y-126.365
X142.113Y-115.57
X143.383Y-107.95
X143.916Y-129.781
X144.399Y-104.14
X144.399Y-110.236
X145.161Y-108.712
X145.542Y-104.14
X145.542Y-110.363
X145.745Y-123.736
X145.923Y-102.616
X146.685Y-113.665
X147.447Y-115.57
X147.828Y-105.664
X148.082Y-114.821
X148.463Y-101.346
X148.463Y-104.902
X148.463Y-106.68
X149.225Y-109.601
X149.86Y-101.473
X151.003Y-101.473
X151.384Y-110.744
X151.765Y-105.156
X152.019Y-116.599
X152.527Y-125.857
X152.908Y-94.361
X153.34Y-118.021
X153.67Y-109.601
X153.67Y-132.398
X153.797Y-120.587
X153.924Y-113.957
X153.924Y-122.682
X153.949Y-136.334
X154.051Y-97.282
X154.813Y-101.473
X154.94Y-94.361
X154.94Y-120.269
X154.991Y-124.955
X155.194Y-109.601
X155.194Y-131.826
X155.296Y-117.665
X155.854Y-97.93
X155.956Y-128.905
X156.083Y-97.155
X156.235Y-123.965
X156.337Y-101.473
X156.972Y-124.587
X156.972Y-126.873
X156.972Y-129.159
X157.15Y-131.534
X157.226Y-113.411
X157.353Y-105.791
X157.556Y-96.965
X157.861Y-102.044
X157.861Y-114.173
X158.242Y-109.22
X158.318Y-93.561
X158.496Y-124.46
X158.572Y-94.399
X158.775Y-133.413
X159.131Y-109.601
X159.639Y-127.889
X160.147Y-113.665
X160.147Y-132.715
X160.274Y-116.586
X160.274Y-123.444
X160.401Y-117.856
X160.401Y-122.301
X160.477Y-134.15
X161.138Y-121.704
X161.163Y-105.029
X161.417Y-109.601
X161.544Y-113.792
X161.544Y-116.713
X161.798Y-119.253
X161.925Y-132.207
X162.027Y-100.292
X162.306Y-107.061
X162.306Y-115.57
X162.56Y-105.791
X162.56Y-117.729
X162.56Y-121.031
X162.56Y-128.397
X162.687Y-124.714
X163.449Y-132.334
X163.83Y-124.714
X164.592Y-103.378
X164.846Y-105.791
X164.846Y-132.207
X165.608Y-110.236
X165.862Y-124.65
X166.116Y-104.902
X166.243Y-114.744
X166.37Y-132.207
X166.37Y-133.223
X166.472Y-109.614
X168.021Y-128.27
X168.173Y-116.7
X168.25Y-117.869
X168.58Y-109.614
X168.91Y-103.378
X168.961Y-98.92
X169.037Y-105.791
X170.053Y-105.664
X170.409Y-104.584
X170.409Y-125.819
X170.434Y-127.724
X170.79Y-93.586
X170.993Y-109.436
X171.018Y-105.727
X172.237Y-128.308
X172.593Y-113.792
X172.847Y-109.474
T2
X168.148Y-110.236
X168.148Y-111.697
T3
X114.884Y-129.553
X115.392Y-119.266
X116.468Y-96.889
X116.468Y-99.429
X116.468Y-101.969
X116.533Y-107.382
X116.533Y-109.922
X117.424Y-129.553
X117.932Y-119.266
X119.964Y-129.553
X120.472Y-119.266
X127.838Y-115.151
X127.838Y-117.691
X127.838Y-120.231
X127.838Y-122.771
X127.838Y-125.311
X127.838Y-127.851
X127.838Y-130.391
X127.838Y-132.931
X127.838Y-135.471
X127.838Y-138.011
X134.175Y-111.061
X149.936Y-115.633
X149.936Y-118.173
X149.936Y-120.713
X149.936Y-123.253
X149.936Y-125.793
X149.936Y-128.333
X149.936Y-130.874
X149.936Y-133.413
X149.936Y-135.953
X149.936Y-138.493
X159.766Y-136.588
X162.306Y-136.588
X164.846Y-136.588
T0
M30
