G04 #@! TF.FileFunction,Copper,L1,Top,Signal*
%FSLAX46Y46*%
G04 Gerber Fmt 4.6, Leading zero omitted, Abs format (unit mm)*
G04 Created by KiCad (PCBNEW 4.0.4-stable) date 11/01/17 22:21:58*
%MOMM*%
%LPD*%
G01*
G04 APERTURE LIST*
%ADD10C,0.100000*%
%ADD11R,0.750000X0.800000*%
%ADD12R,0.800000X0.750000*%
%ADD13R,0.280000X0.300000*%
%ADD14R,1.700000X1.700000*%
%ADD15O,1.700000X1.700000*%
%ADD16R,0.450000X1.450000*%
%ADD17R,0.500000X0.900000*%
%ADD18R,0.900000X0.500000*%
%ADD19R,2.100000X1.400000*%
%ADD20R,1.550000X0.600000*%
%ADD21R,1.450000X0.450000*%
%ADD22R,0.600000X1.550000*%
%ADD23C,0.600000*%
%ADD24C,0.200000*%
%ADD25C,0.250000*%
G04 APERTURE END LIST*
D10*
D11*
X137709999Y-103449998D03*
X137709999Y-104949998D03*
X120145001Y-126944048D03*
X120145001Y-125444048D03*
X129424999Y-107440952D03*
X129424999Y-108940952D03*
X116652501Y-127104882D03*
X116652501Y-125604882D03*
D12*
X166347382Y-103624999D03*
X164847382Y-103624999D03*
D11*
X116142501Y-104741548D03*
X116142501Y-103241548D03*
X115859999Y-106845952D03*
X115859999Y-108345952D03*
X133929999Y-103422618D03*
X133929999Y-104922618D03*
X167442499Y-107173452D03*
X167442499Y-108673452D03*
X118717499Y-110185118D03*
X118717499Y-111685118D03*
D12*
X125702382Y-103434999D03*
X124202382Y-103434999D03*
X120469048Y-103404999D03*
X118969048Y-103404999D03*
X125549048Y-107244999D03*
X124049048Y-107244999D03*
X120762382Y-106969999D03*
X119262382Y-106969999D03*
X138637382Y-108529999D03*
X137137382Y-108529999D03*
X164289048Y-108039999D03*
X162789048Y-108039999D03*
X141969048Y-112974999D03*
X140469048Y-112974999D03*
D11*
X129439999Y-103342142D03*
X129439999Y-104842142D03*
D13*
X128701191Y-111504999D03*
X129091191Y-111504999D03*
D14*
X154312859Y-114354999D03*
D15*
X154312859Y-116894999D03*
D14*
X110222859Y-128034999D03*
D15*
X110222859Y-130574999D03*
X110222859Y-133114999D03*
D14*
X135877859Y-114674999D03*
X123467859Y-111179999D03*
D15*
X123467859Y-113719999D03*
X123467859Y-116259999D03*
X123467859Y-118799999D03*
X123467859Y-121339999D03*
X123467859Y-123879999D03*
X123467859Y-126419999D03*
X123467859Y-128959999D03*
X123467859Y-131499999D03*
X123467859Y-134039999D03*
D14*
X115809641Y-121822501D03*
D15*
X115809641Y-119282501D03*
X115809641Y-116742501D03*
D14*
X147887859Y-111814999D03*
D15*
X147887859Y-114354999D03*
X147887859Y-116894999D03*
X147887859Y-119434999D03*
X147887859Y-121974999D03*
X147887859Y-124514999D03*
X147887859Y-127054999D03*
X147887859Y-129594999D03*
X147887859Y-132134999D03*
X147887859Y-134674999D03*
D14*
X109927859Y-116964999D03*
D15*
X109927859Y-119504999D03*
X109927859Y-122044999D03*
D16*
X155534999Y-129096904D03*
X156184999Y-129096904D03*
X156834999Y-129096904D03*
X157484999Y-129096904D03*
X158134999Y-129096904D03*
X158784999Y-129096904D03*
X159434999Y-129096904D03*
X159434999Y-123196904D03*
X158784999Y-123196904D03*
X158134999Y-123196904D03*
X157484999Y-123196904D03*
X156834999Y-123196904D03*
X156184999Y-123196904D03*
X155534999Y-123196904D03*
D17*
X111657856Y-107305001D03*
X110157856Y-107305001D03*
X109841429Y-111624999D03*
X111341429Y-111624999D03*
D18*
X128547501Y-114269644D03*
X128547501Y-115769644D03*
X119819999Y-123037856D03*
X119819999Y-121537856D03*
D17*
X134152856Y-108165001D03*
X132652856Y-108165001D03*
X158307144Y-107879999D03*
X159807144Y-107879999D03*
D18*
X151345001Y-121605002D03*
X151345001Y-123105002D03*
X151960001Y-128910002D03*
X151960001Y-130410002D03*
D17*
X161193572Y-102734999D03*
X162693572Y-102734999D03*
X156592382Y-102829999D03*
X158092382Y-102829999D03*
D18*
X129787499Y-135350118D03*
X129787499Y-133850118D03*
D17*
X124680118Y-138897501D03*
X123180118Y-138897501D03*
D18*
X159089999Y-134027618D03*
X159089999Y-132527618D03*
D17*
X154652382Y-133864999D03*
X156152382Y-133864999D03*
D18*
X163679999Y-133762618D03*
X163679999Y-132262618D03*
D19*
X143732499Y-102677499D03*
X152832499Y-102677499D03*
X143732499Y-107177499D03*
X152832499Y-107177499D03*
D20*
X161609882Y-112667499D03*
X161609882Y-113937499D03*
X161609882Y-115207499D03*
X161609882Y-116477499D03*
X167009882Y-116477499D03*
X167009882Y-115207499D03*
X167009882Y-113937499D03*
X167009882Y-112667499D03*
D21*
X133531429Y-120744999D03*
X133531429Y-121394999D03*
X133531429Y-122044999D03*
X133531429Y-122694999D03*
X133531429Y-123344999D03*
X133531429Y-123994999D03*
X133531429Y-124644999D03*
X133531429Y-125294999D03*
X133531429Y-125944999D03*
X133531429Y-126594999D03*
X139431429Y-126594999D03*
X139431429Y-125944999D03*
X139431429Y-125294999D03*
X139431429Y-124644999D03*
X139431429Y-123994999D03*
X139431429Y-123344999D03*
X139431429Y-122694999D03*
X139431429Y-122044999D03*
X139431429Y-121394999D03*
X139431429Y-120744999D03*
D20*
X135438691Y-132077499D03*
X135438691Y-133347499D03*
X135438691Y-134617499D03*
X135438691Y-135887499D03*
X140838691Y-135887499D03*
X140838691Y-134617499D03*
X140838691Y-133347499D03*
X140838691Y-132077499D03*
D22*
X114414999Y-137633809D03*
X115684999Y-137633809D03*
X116954999Y-137633809D03*
X118224999Y-137633809D03*
X118224999Y-132233809D03*
X116954999Y-132233809D03*
X115684999Y-132233809D03*
X114414999Y-132233809D03*
D23*
X157480000Y-107950000D03*
X160020000Y-120650000D03*
X129540000Y-125095000D03*
X132715000Y-111760000D03*
X127000000Y-108585000D03*
X121920000Y-107950000D03*
X117475000Y-107315000D03*
X118745000Y-108585000D03*
X140970000Y-103505000D03*
X139065000Y-103505000D03*
X157353000Y-124777500D03*
X154241500Y-130937000D03*
X153606500Y-132842000D03*
X152400000Y-133921500D03*
X126365000Y-121920000D03*
X130175000Y-118110000D03*
X133350000Y-115570000D03*
X138430000Y-106045000D03*
X154305000Y-106045000D03*
X120015000Y-104775000D03*
X113030000Y-111125000D03*
X114935000Y-110490000D03*
X107315000Y-110490000D03*
X114300000Y-139700000D03*
X118110000Y-139065000D03*
X168910000Y-110490000D03*
X158750000Y-110490000D03*
X151765000Y-136525000D03*
X168211500Y-110299500D03*
X144145000Y-104140000D03*
X168275000Y-112395000D03*
X131445000Y-106045000D03*
X123825000Y-106045000D03*
X123825000Y-104775000D03*
X128270000Y-106743500D03*
X128206500Y-108394500D03*
X127508000Y-111252000D03*
X125666500Y-111252000D03*
X165100000Y-132715000D03*
X162560000Y-120015000D03*
X159385000Y-116840000D03*
X158115000Y-114300000D03*
X152400000Y-108585000D03*
X135890000Y-117475000D03*
X130746500Y-119380000D03*
X130111500Y-113411000D03*
X137160000Y-118745000D03*
X120015000Y-129540000D03*
X141605000Y-120650000D03*
X150495000Y-128270000D03*
X139700000Y-139065000D03*
X132715000Y-136525000D03*
X156845000Y-117475000D03*
X156210000Y-121920000D03*
X150495000Y-118110000D03*
X154305000Y-120650000D03*
X113030000Y-132080000D03*
X145415000Y-128270000D03*
X142875000Y-132080000D03*
X150495000Y-132080000D03*
X159385000Y-130810000D03*
X156845000Y-114935000D03*
X153670000Y-122555000D03*
X151765000Y-124460000D03*
X151765000Y-127000000D03*
X161290000Y-104775000D03*
X161290000Y-109855000D03*
X163830000Y-104140000D03*
X162560000Y-106045000D03*
X160655000Y-106680000D03*
X160655000Y-109220000D03*
X156845000Y-104775000D03*
X121285000Y-140335000D03*
X133350000Y-133350000D03*
X133985000Y-140970000D03*
X137160000Y-140970000D03*
X144145000Y-139700000D03*
X144145000Y-135890000D03*
D24*
X133929999Y-103422618D02*
X135172618Y-103422618D01*
X129439999Y-103342142D02*
X133849523Y-103342142D01*
X133849523Y-103342142D02*
X133929999Y-103422618D01*
X135890000Y-105410000D02*
X135890000Y-104330500D01*
D25*
X134982118Y-103422618D02*
X135172618Y-103422618D01*
D24*
X135890000Y-104330500D02*
X134982118Y-103422618D01*
X138637382Y-108157382D02*
X135890000Y-105410000D01*
X159385000Y-105410000D02*
X166624000Y-105410000D01*
D25*
X158307144Y-106487856D02*
X159385000Y-105410000D01*
X158307144Y-107879999D02*
X158307144Y-106487856D01*
D24*
X167393001Y-106228499D02*
X167442499Y-106179001D01*
X167442499Y-106228499D02*
X167393001Y-106228499D01*
X166624000Y-105410000D02*
X167442499Y-106228499D01*
X158307144Y-107879999D02*
X158298999Y-107879999D01*
X158298999Y-107879999D02*
X156972000Y-106553000D01*
X156972000Y-106553000D02*
X156972000Y-106544855D01*
X157480000Y-107442000D02*
X157480000Y-107061000D01*
X157353000Y-106934000D02*
X157353000Y-106925855D01*
X157480000Y-107061000D02*
X157353000Y-106934000D01*
D25*
X163679999Y-132262618D02*
X163679999Y-124309999D01*
X157480000Y-107950000D02*
X157480000Y-107442000D01*
X157480000Y-107442000D02*
X157480000Y-107315000D01*
X163679999Y-124309999D02*
X160020000Y-120650000D01*
X126365000Y-123994999D02*
X126365000Y-124460000D01*
X132652856Y-111697856D02*
X132652856Y-108165001D01*
X132652856Y-111697856D02*
X132715000Y-111760000D01*
X127000000Y-125095000D02*
X129540000Y-125095000D01*
X126365000Y-124460000D02*
X127000000Y-125095000D01*
X120762382Y-106969999D02*
X120939999Y-106969999D01*
X120939999Y-106969999D02*
X121920000Y-107950000D01*
X128144048Y-107440952D02*
X128270000Y-107315000D01*
X127000000Y-108585000D02*
X128144048Y-107440952D01*
X119697500Y-109537500D02*
X120332500Y-109537500D01*
X117005952Y-106845952D02*
X117475000Y-107315000D01*
X118745000Y-108585000D02*
X119697500Y-109537500D01*
X115859999Y-106845952D02*
X117005952Y-106845952D01*
X120332500Y-109537500D02*
X120015000Y-109855000D01*
X156845000Y-127635000D02*
X157480000Y-127635000D01*
X158134999Y-128289999D02*
X158134999Y-129096904D01*
X157480000Y-127635000D02*
X158134999Y-128289999D01*
X156184999Y-127025001D02*
X156235001Y-127025001D01*
X157484999Y-128274999D02*
X157484999Y-129096904D01*
X156235001Y-127025001D02*
X156845000Y-127635000D01*
X156845000Y-127635000D02*
X157484999Y-128274999D01*
X137709999Y-103449998D02*
X139009998Y-103449998D01*
X141797501Y-102677499D02*
X143732499Y-102677499D01*
X140970000Y-103505000D02*
X141797501Y-102677499D01*
X139009998Y-103449998D02*
X139065000Y-103505000D01*
X152832499Y-102677499D02*
X153104644Y-102677499D01*
X153104644Y-102677499D02*
X156972000Y-106544855D01*
X156972000Y-106544855D02*
X157353000Y-106925855D01*
X157353000Y-106925855D02*
X158307144Y-107879999D01*
X156184999Y-129096904D02*
X156184999Y-127025001D01*
X156184999Y-127025001D02*
X156210000Y-127000000D01*
X155534999Y-129096904D02*
X155534999Y-127675001D01*
X155534999Y-127675001D02*
X156210000Y-127000000D01*
X164289048Y-108039999D02*
X166575952Y-108039999D01*
X166575952Y-108039999D02*
X167442499Y-107173452D01*
X166347382Y-103624999D02*
X166347382Y-104117382D01*
X166347382Y-104117382D02*
X167442499Y-105212499D01*
X167442499Y-105212499D02*
X167442499Y-106179001D01*
X167442499Y-106179001D02*
X167442499Y-107173452D01*
X158134999Y-129096904D02*
X158134999Y-131572618D01*
X158134999Y-131572618D02*
X159089999Y-132527618D01*
X143732499Y-102677499D02*
X152832499Y-102677499D01*
X159089999Y-132527618D02*
X163414999Y-132527618D01*
X163414999Y-132527618D02*
X163679999Y-132262618D01*
X133531429Y-123994999D02*
X134789999Y-123994999D01*
X129787499Y-132467501D02*
X129787499Y-133850118D01*
X135255000Y-127000000D02*
X129787499Y-132467501D01*
X135255000Y-124460000D02*
X135255000Y-127000000D01*
X134789999Y-123994999D02*
X135255000Y-124460000D01*
X115859999Y-106845952D02*
X115859999Y-105024050D01*
X115859999Y-105024050D02*
X116142501Y-104741548D01*
X116652501Y-127104882D02*
X113692976Y-127104882D01*
X113692976Y-127104882D02*
X110222859Y-130574999D01*
X116177499Y-104776546D02*
X116142501Y-104741548D01*
X118717499Y-110185118D02*
X119684882Y-110185118D01*
X119684882Y-110185118D02*
X120015000Y-109855000D01*
X120762382Y-109107618D02*
X120762382Y-106969999D01*
X120015000Y-109855000D02*
X120762382Y-109107618D01*
X120762382Y-106969999D02*
X120762382Y-103698333D01*
X120762382Y-103698333D02*
X120469048Y-103404999D01*
X120469048Y-103404999D02*
X121184999Y-103404999D01*
X123190000Y-105410000D02*
X125702382Y-105410000D01*
X121184999Y-103404999D02*
X123190000Y-105410000D01*
X125702382Y-105410000D02*
X125730000Y-105410000D01*
X125730000Y-105410000D02*
X125702382Y-105410000D01*
X138637382Y-108529999D02*
X138637382Y-108157382D01*
X135890000Y-103422618D02*
X135890000Y-103505000D01*
X135890000Y-103505000D02*
X135890000Y-103422618D01*
X125702382Y-103434999D02*
X129347142Y-103434999D01*
X129347142Y-103434999D02*
X129359523Y-103422618D01*
X135172618Y-103422618D02*
X135890000Y-103422618D01*
X135890000Y-103422618D02*
X137682619Y-103422618D01*
X137682619Y-103422618D02*
X137709999Y-103449998D01*
X125702382Y-103434999D02*
X125702382Y-105410000D01*
X125702382Y-105410000D02*
X125702382Y-107091665D01*
X125702382Y-107091665D02*
X125549048Y-107244999D01*
X129424999Y-107440952D02*
X125745001Y-107440952D01*
X125745001Y-107440952D02*
X125549048Y-107244999D01*
X129424999Y-107440952D02*
X131928807Y-107440952D01*
X131928807Y-107440952D02*
X132652856Y-108165001D01*
X141969048Y-112974999D02*
X141969048Y-111861665D01*
X141969048Y-111861665D02*
X138637382Y-108529999D01*
X116652501Y-127104882D02*
X119984167Y-127104882D01*
X119984167Y-127104882D02*
X120145001Y-126944048D01*
X120145001Y-126944048D02*
X120403810Y-126944048D01*
X120403810Y-126944048D02*
X123467859Y-123879999D01*
X133531429Y-123994999D02*
X126365000Y-123994999D01*
X126365000Y-123994999D02*
X123582859Y-123994999D01*
X123582859Y-123994999D02*
X123467859Y-123879999D01*
D24*
X133531429Y-123344999D02*
X135092499Y-123344999D01*
X157484999Y-124645501D02*
X157484999Y-123196904D01*
X157353000Y-124777500D02*
X157484999Y-124645501D01*
X154241500Y-132207000D02*
X154241500Y-130937000D01*
X153606500Y-132842000D02*
X154241500Y-132207000D01*
X152273000Y-133921500D02*
X152400000Y-133921500D01*
X150241000Y-135953500D02*
X152273000Y-133921500D01*
X147510500Y-135953500D02*
X150241000Y-135953500D01*
X142494000Y-130937000D02*
X147510500Y-135953500D01*
X142176500Y-130937000D02*
X142494000Y-130937000D01*
X138176000Y-126936500D02*
X142176500Y-130937000D01*
X138176000Y-126428500D02*
X138176000Y-126936500D01*
X135092499Y-123344999D02*
X138176000Y-126428500D01*
D25*
X130175000Y-118110000D02*
X132715000Y-115570000D01*
X132715000Y-115570000D02*
X133350000Y-115570000D01*
X126365000Y-123344999D02*
X126365000Y-121920000D01*
X138430000Y-106045000D02*
X137709999Y-105324999D01*
X137709999Y-105324999D02*
X137709999Y-104949998D01*
X111635001Y-119504999D02*
X112395000Y-118745000D01*
X109927859Y-119504999D02*
X111635001Y-119504999D01*
X114300000Y-105084049D02*
X116142501Y-103241548D01*
X114300000Y-113030000D02*
X114300000Y-105084049D01*
X112395000Y-114935000D02*
X114300000Y-113030000D01*
X112395000Y-118745000D02*
X112395000Y-114935000D01*
X116652501Y-125604882D02*
X116027742Y-125604882D01*
X116027742Y-125604882D02*
X109927859Y-119504999D01*
X116652501Y-125604882D02*
X119984167Y-125604882D01*
X119984167Y-125604882D02*
X120145001Y-125444048D01*
X119819999Y-123037856D02*
X119819999Y-125119046D01*
X119819999Y-125119046D02*
X120145001Y-125444048D01*
X119819999Y-123037856D02*
X121770002Y-123037856D01*
X121770002Y-123037856D02*
X123467859Y-121339999D01*
X133531429Y-123344999D02*
X126365000Y-123344999D01*
X126365000Y-123344999D02*
X125472859Y-123344999D01*
X125472859Y-123344999D02*
X123467859Y-121339999D01*
X128547501Y-114269644D02*
X131030856Y-114269644D01*
X131953000Y-111468953D02*
X129424999Y-108940952D01*
X131953000Y-113347500D02*
X131953000Y-111468953D01*
X131030856Y-114269644D02*
X131953000Y-113347500D01*
X128547501Y-114269644D02*
X128239644Y-114269644D01*
X128239644Y-114269644D02*
X126365000Y-112395000D01*
X113030000Y-119042860D02*
X115809641Y-121822501D01*
X113030000Y-115570000D02*
X113030000Y-119042860D01*
X113665000Y-114935000D02*
X113030000Y-115570000D01*
X114935000Y-114935000D02*
X113665000Y-114935000D01*
X116840000Y-114935000D02*
X114935000Y-114935000D01*
X120015000Y-111760000D02*
X116840000Y-114935000D01*
X120015000Y-111125000D02*
X120015000Y-111760000D01*
X122555000Y-108585000D02*
X120015000Y-111125000D01*
X125730000Y-108585000D02*
X122555000Y-108585000D01*
X126365000Y-109220000D02*
X125730000Y-108585000D01*
X126365000Y-112395000D02*
X126365000Y-109220000D01*
X115809641Y-121822501D02*
X117572499Y-121822501D01*
X117857144Y-121537856D02*
X119819999Y-121537856D01*
X117572499Y-121822501D02*
X117857144Y-121537856D01*
X118969048Y-106045000D02*
X118969048Y-105820952D01*
X158115000Y-109855000D02*
X159385000Y-109855000D01*
X154305000Y-106045000D02*
X158115000Y-109855000D01*
X118969048Y-105820952D02*
X120015000Y-104775000D01*
X111341429Y-111624999D02*
X112530001Y-111624999D01*
X112530001Y-111624999D02*
X113030000Y-111125000D01*
X118224999Y-137633809D02*
X118224999Y-138950001D01*
X116130118Y-111685118D02*
X117400118Y-111685118D01*
X114935000Y-110490000D02*
X116130118Y-111685118D01*
X106045000Y-111760000D02*
X107315000Y-110490000D01*
X106045000Y-131445000D02*
X106045000Y-111760000D01*
X114300000Y-139700000D02*
X106045000Y-131445000D01*
X118224999Y-138950001D02*
X118110000Y-139065000D01*
X161609882Y-116477499D02*
X162922501Y-116477499D01*
X162789048Y-108814048D02*
X162789048Y-108039999D01*
X163830000Y-109855000D02*
X162789048Y-108814048D01*
X163830000Y-115570000D02*
X163830000Y-109855000D01*
X162922501Y-116477499D02*
X163830000Y-115570000D01*
X164847382Y-103624999D02*
X164847382Y-102487618D01*
X164847382Y-102487618D02*
X165100000Y-102235000D01*
X165100000Y-102235000D02*
X166370000Y-102235000D01*
X166370000Y-102235000D02*
X168910000Y-104775000D01*
X168910000Y-104775000D02*
X168910000Y-110490000D01*
X158750000Y-110490000D02*
X159385000Y-109855000D01*
X159807144Y-109432856D02*
X159807144Y-107879999D01*
X159385000Y-109855000D02*
X159807144Y-109432856D01*
X162789048Y-108039999D02*
X159967144Y-108039999D01*
X159967144Y-108039999D02*
X159807144Y-107879999D01*
X118224999Y-137633809D02*
X133692381Y-137633809D01*
X133692381Y-137633809D02*
X135438691Y-135887499D01*
X115859999Y-108345952D02*
X117886429Y-108345952D01*
X117886429Y-108345952D02*
X119262382Y-106969999D01*
X118717499Y-111685118D02*
X117400118Y-111685118D01*
X115859999Y-110144999D02*
X115859999Y-108345952D01*
X117400118Y-111685118D02*
X115859999Y-110144999D01*
X118969048Y-103404999D02*
X118969048Y-106045000D01*
X118969048Y-106045000D02*
X118969048Y-106676665D01*
X118969048Y-106676665D02*
X119262382Y-106969999D01*
X143507499Y-133347499D02*
X140838691Y-133347499D01*
X146685000Y-136525000D02*
X151765000Y-136525000D01*
X143507499Y-133347499D02*
X146685000Y-136525000D01*
D24*
X167442499Y-110101999D02*
X167442499Y-108673452D01*
X167703500Y-110363000D02*
X167442499Y-110101999D01*
X168148000Y-110363000D02*
X167703500Y-110363000D01*
X168211500Y-110299500D02*
X168148000Y-110363000D01*
D25*
X140335000Y-108585000D02*
X140335000Y-107950000D01*
X140970000Y-107315000D02*
X140335000Y-107950000D01*
X144145000Y-104140000D02*
X142240000Y-106045000D01*
X140970000Y-107315000D02*
X142240000Y-106045000D01*
X168002501Y-112667499D02*
X167009882Y-112667499D01*
X168275000Y-112395000D02*
X168002501Y-112667499D01*
X134152856Y-107315000D02*
X133985000Y-107315000D01*
X132715000Y-106045000D02*
X131445000Y-106045000D01*
X133985000Y-107315000D02*
X132715000Y-106045000D01*
X124049048Y-107244999D02*
X124049048Y-106269048D01*
X124049048Y-106269048D02*
X123825000Y-106045000D01*
X124202382Y-104397618D02*
X124202382Y-103434999D01*
X123825000Y-104775000D02*
X124202382Y-104397618D01*
X140335000Y-104775000D02*
X140335000Y-102870000D01*
X140335000Y-102870000D02*
X139700000Y-102235000D01*
X139700000Y-102235000D02*
X137795000Y-102235000D01*
X140335000Y-104775000D02*
X140335000Y-108585000D01*
X114935000Y-102235000D02*
X137795000Y-102235000D01*
X111760000Y-105410000D02*
X114935000Y-102235000D01*
X140335000Y-108585000D02*
X140335000Y-109220000D01*
X139065000Y-114300000D02*
X139065000Y-112974999D01*
X139700000Y-114935000D02*
X139065000Y-114300000D01*
X142875000Y-114935000D02*
X139700000Y-114935000D01*
X143510000Y-114300000D02*
X142875000Y-114935000D01*
X143510000Y-112395000D02*
X143510000Y-114300000D01*
X140335000Y-109220000D02*
X143510000Y-112395000D01*
X115684999Y-132233809D02*
X115684999Y-133235001D01*
X111092860Y-133985000D02*
X110222859Y-133114999D01*
X114935000Y-133985000D02*
X111092860Y-133985000D01*
X115684999Y-133235001D02*
X114935000Y-133985000D01*
X110222859Y-133114999D02*
X108984999Y-133114999D01*
X110490000Y-105410000D02*
X111760000Y-105410000D01*
X108585000Y-107315000D02*
X110490000Y-105410000D01*
X108585000Y-113030000D02*
X108585000Y-107315000D01*
X107315000Y-114300000D02*
X108585000Y-113030000D01*
X107315000Y-131445000D02*
X107315000Y-114300000D01*
X108984999Y-133114999D02*
X107315000Y-131445000D01*
X111657856Y-107305001D02*
X111657856Y-105512144D01*
X111657856Y-105512144D02*
X111760000Y-105410000D01*
X134152856Y-108165001D02*
X134152856Y-107315000D01*
X134152856Y-107315000D02*
X134152856Y-105145475D01*
X134152856Y-105145475D02*
X133929999Y-104922618D01*
X134152856Y-108165001D02*
X135470001Y-108165001D01*
X135834999Y-108529999D02*
X137137382Y-108529999D01*
X135470001Y-108165001D02*
X135834999Y-108529999D01*
X140469048Y-112974999D02*
X139065000Y-112974999D01*
X139065000Y-112974999D02*
X138962854Y-112974999D01*
X138962854Y-112974999D02*
X133985000Y-107997145D01*
X133985000Y-107997145D02*
X133985000Y-107950000D01*
X133985000Y-107950000D02*
X134152856Y-108165001D01*
D24*
X128701191Y-111504999D02*
X128701191Y-109968691D01*
X128837858Y-104842142D02*
X129439999Y-104842142D01*
X128270000Y-105410000D02*
X128837858Y-104842142D01*
X128270000Y-106743500D02*
X128270000Y-105410000D01*
X128206500Y-109474000D02*
X128206500Y-108394500D01*
X128701191Y-109968691D02*
X128206500Y-109474000D01*
X123467859Y-111179999D02*
X125594499Y-111179999D01*
X127760999Y-111504999D02*
X128701191Y-111504999D01*
X127508000Y-111252000D02*
X127760999Y-111504999D01*
X125594499Y-111179999D02*
X125666500Y-111252000D01*
D25*
X130810000Y-120744999D02*
X130810000Y-120650000D01*
X165100000Y-132715000D02*
X164052382Y-133762618D01*
X159385000Y-116840000D02*
X162560000Y-120015000D01*
X152400000Y-108585000D02*
X158115000Y-114300000D01*
X133985000Y-117475000D02*
X135890000Y-117475000D01*
X130810000Y-120650000D02*
X133985000Y-117475000D01*
X164052382Y-133762618D02*
X163679999Y-133762618D01*
X133531429Y-120744999D02*
X130810000Y-120744999D01*
X130810000Y-120744999D02*
X130085001Y-120744999D01*
X125730000Y-113442140D02*
X123467859Y-111179999D01*
X125730000Y-116389998D02*
X125730000Y-113442140D01*
X130085001Y-120744999D02*
X125730000Y-116389998D01*
D24*
X129091191Y-111504999D02*
X129091191Y-112390691D01*
X130746500Y-119380000D02*
X135451501Y-114674999D01*
X129091191Y-112390691D02*
X130111500Y-113411000D01*
X135451501Y-114674999D02*
X135877859Y-114674999D01*
D25*
X116954999Y-132233809D02*
X116954999Y-130695001D01*
X137795000Y-118110000D02*
X138430000Y-118110000D01*
X137160000Y-118745000D02*
X137795000Y-118110000D01*
X118110000Y-129540000D02*
X120015000Y-129540000D01*
X116954999Y-130695001D02*
X118110000Y-129540000D01*
X154652382Y-133864999D02*
X153549999Y-133864999D01*
X141510001Y-120744999D02*
X139431429Y-120744999D01*
X141605000Y-120650000D02*
X141510001Y-120744999D01*
X150495000Y-130810000D02*
X150495000Y-128270000D01*
X153549999Y-133864999D02*
X150495000Y-130810000D01*
X135877859Y-114674999D02*
X135877859Y-115557859D01*
X139065000Y-118745000D02*
X142240000Y-118745000D01*
X135877859Y-115557859D02*
X138430000Y-118110000D01*
X138430000Y-118110000D02*
X139065000Y-118745000D01*
X139431429Y-120744999D02*
X140240001Y-120744999D01*
X145415000Y-114287858D02*
X147887859Y-111814999D01*
X145415000Y-115570000D02*
X145415000Y-114287858D01*
X140240001Y-120744999D02*
X142240000Y-118745000D01*
X142240000Y-118745000D02*
X145415000Y-115570000D01*
X154312859Y-114354999D02*
X154994999Y-114354999D01*
X154994999Y-114354999D02*
X162560000Y-121920000D01*
X162560000Y-121920000D02*
X165735000Y-121920000D01*
X165735000Y-121920000D02*
X166370000Y-122555000D01*
X166370000Y-122555000D02*
X166370000Y-135255000D01*
X166370000Y-135255000D02*
X162560000Y-139065000D01*
X162560000Y-139065000D02*
X139700000Y-139065000D01*
X132715000Y-136525000D02*
X132715000Y-135255000D01*
X132715000Y-135255000D02*
X132715000Y-135350118D01*
X133350000Y-135350118D02*
X133350000Y-135255000D01*
X133987501Y-134617499D02*
X135438691Y-134617499D01*
X133350000Y-135255000D02*
X133987501Y-134617499D01*
X129787499Y-135350118D02*
X132715000Y-135350118D01*
X132715000Y-135350118D02*
X133350000Y-135350118D01*
X133350000Y-135350118D02*
X133436072Y-135350118D01*
X135341072Y-134715118D02*
X135438691Y-134617499D01*
X156184999Y-123196904D02*
X156184999Y-121945001D01*
X156264999Y-116894999D02*
X154312859Y-116894999D01*
X156845000Y-117475000D02*
X156264999Y-116894999D01*
X156184999Y-121945001D02*
X156210000Y-121920000D01*
X109927859Y-122044999D02*
X109927859Y-127739999D01*
X109927859Y-127739999D02*
X110222859Y-128034999D01*
X133531429Y-121394999D02*
X129649999Y-121394999D01*
X125095000Y-115347140D02*
X123467859Y-113719999D01*
X125095000Y-116840000D02*
X125095000Y-115347140D01*
X129649999Y-121394999D02*
X125095000Y-116840000D01*
X133531429Y-122044999D02*
X129252859Y-122044999D01*
X129252859Y-122044999D02*
X123467859Y-116259999D01*
X115809641Y-116742501D02*
X121410361Y-116742501D01*
X121410361Y-116742501D02*
X123467859Y-118799999D01*
X133531429Y-124644999D02*
X131260001Y-124644999D01*
X129485001Y-126419999D02*
X123467859Y-126419999D01*
X131260001Y-124644999D02*
X129485001Y-126419999D01*
X133531429Y-125294999D02*
X131880001Y-125294999D01*
X128215001Y-128959999D02*
X123467859Y-128959999D01*
X131880001Y-125294999D02*
X128215001Y-128959999D01*
X133531429Y-125944999D02*
X132500001Y-125944999D01*
X126945001Y-131499999D02*
X123467859Y-131499999D01*
X132500001Y-125944999D02*
X126945001Y-131499999D01*
X133531429Y-126594999D02*
X133531429Y-126818571D01*
X133531429Y-126818571D02*
X126310001Y-134039999D01*
X126310001Y-134039999D02*
X123467859Y-134039999D01*
X115809641Y-119282501D02*
X121187501Y-119282501D01*
X128409999Y-122694999D02*
X133531429Y-122694999D01*
X125730000Y-120015000D02*
X128409999Y-122694999D01*
X121920000Y-120015000D02*
X125730000Y-120015000D01*
X121187501Y-119282501D02*
X121920000Y-120015000D01*
X139431429Y-121394999D02*
X141495001Y-121394999D01*
X144780000Y-117462858D02*
X147887859Y-114354999D01*
X144780000Y-118745000D02*
X144780000Y-117462858D01*
X142240000Y-121285000D02*
X144780000Y-118745000D01*
X141605000Y-121285000D02*
X142240000Y-121285000D01*
X141495001Y-121394999D02*
X141605000Y-121285000D01*
X158134999Y-123196904D02*
X158134999Y-121304999D01*
X149279999Y-116894999D02*
X147887859Y-116894999D01*
X150495000Y-118110000D02*
X149279999Y-116894999D01*
X157480000Y-120650000D02*
X154305000Y-120650000D01*
X158134999Y-121304999D02*
X157480000Y-120650000D01*
X139431429Y-122044999D02*
X142750001Y-122044999D01*
X145415000Y-119367858D02*
X147887859Y-116894999D01*
X145415000Y-119380000D02*
X145415000Y-119367858D01*
X142750001Y-122044999D02*
X145415000Y-119380000D01*
X158784999Y-123196904D02*
X158784999Y-120049999D01*
X158169999Y-119434999D02*
X147887859Y-119434999D01*
X158784999Y-120049999D02*
X158169999Y-119434999D01*
X139431429Y-122694999D02*
X143370001Y-122694999D01*
X146630001Y-119434999D02*
X147887859Y-119434999D01*
X143370001Y-122694999D02*
X146630001Y-119434999D01*
X139431429Y-123344999D02*
X145260001Y-123344999D01*
X146630001Y-121974999D02*
X147887859Y-121974999D01*
X145260001Y-123344999D02*
X146630001Y-121974999D01*
X147887859Y-124514999D02*
X149279999Y-124514999D01*
X159434999Y-124410001D02*
X159434999Y-123196904D01*
X158115000Y-125730000D02*
X159434999Y-124410001D01*
X150495000Y-125730000D02*
X158115000Y-125730000D01*
X149279999Y-124514999D02*
X150495000Y-125730000D01*
X139431429Y-123994999D02*
X142409999Y-123994999D01*
X142929999Y-124514999D02*
X147887859Y-124514999D01*
X142409999Y-123994999D02*
X142929999Y-124514999D01*
X114300000Y-130175000D02*
X114300000Y-132118810D01*
X113665000Y-129540000D02*
X114300000Y-130175000D01*
X113030000Y-130175000D02*
X113665000Y-129540000D01*
X113030000Y-132080000D02*
X113030000Y-130175000D01*
X114300000Y-132118810D02*
X114414999Y-132233809D01*
X140838691Y-132077499D02*
X142872499Y-132077499D01*
X145415000Y-128270000D02*
X145415000Y-127054999D01*
X142872499Y-132077499D02*
X142875000Y-132080000D01*
X145415000Y-127054999D02*
X145415000Y-127000000D01*
X145415000Y-127000000D02*
X145415000Y-127054999D01*
X139431429Y-124644999D02*
X141789999Y-124644999D01*
X144199999Y-127054999D02*
X145415000Y-127054999D01*
X145415000Y-127054999D02*
X147887859Y-127054999D01*
X141789999Y-124644999D02*
X144199999Y-127054999D01*
X158784999Y-129096904D02*
X158784999Y-127669999D01*
X151117858Y-126365000D02*
X147887859Y-129594999D01*
X157480000Y-126365000D02*
X151117858Y-126365000D01*
X158784999Y-127669999D02*
X157480000Y-126365000D01*
X147887859Y-129594999D02*
X148009999Y-129594999D01*
X139431429Y-125294999D02*
X141169999Y-125294999D01*
X145469999Y-129594999D02*
X147887859Y-129594999D01*
X141169999Y-125294999D02*
X145469999Y-129594999D01*
X159434999Y-129096904D02*
X159434999Y-130760001D01*
X150440001Y-132134999D02*
X147887859Y-132134999D01*
X150495000Y-132080000D02*
X150440001Y-132134999D01*
X159434999Y-130760001D02*
X159385000Y-130810000D01*
X139431429Y-125944999D02*
X140549999Y-125944999D01*
X146739999Y-132134999D02*
X147887859Y-132134999D01*
X140549999Y-125944999D02*
X146739999Y-132134999D01*
X139431429Y-126594999D02*
X139807859Y-126594999D01*
X139807859Y-126594999D02*
X147887859Y-134674999D01*
X110157856Y-107305001D02*
X110157856Y-108917144D01*
X109841429Y-109233571D02*
X109841429Y-111624999D01*
X110157856Y-108917144D02*
X109841429Y-109233571D01*
X109841429Y-111624999D02*
X109841429Y-116878569D01*
X109841429Y-116878569D02*
X109927859Y-116964999D01*
X151960001Y-130410002D02*
X156609998Y-130410002D01*
X156834999Y-130185001D02*
X156834999Y-129096904D01*
X156609998Y-130410002D02*
X156834999Y-130185001D01*
D24*
X155534999Y-123196904D02*
X155534999Y-124546999D01*
X156834999Y-124470001D02*
X156834999Y-123196904D01*
X156527500Y-124777500D02*
X156834999Y-124470001D01*
X155765500Y-124777500D02*
X156527500Y-124777500D01*
X155534999Y-124546999D02*
X155765500Y-124777500D01*
D25*
X151345001Y-121605002D02*
X154625002Y-121605002D01*
X154625002Y-121605002D02*
X155575000Y-122555000D01*
X155575000Y-122555000D02*
X155534999Y-123196904D01*
X143732499Y-107177499D02*
X152832499Y-107177499D01*
X128547501Y-115769644D02*
X130610356Y-115769644D01*
X130610356Y-115769644D02*
X131445000Y-114935000D01*
X144780000Y-108225000D02*
X143732499Y-107177499D01*
X144780000Y-114300000D02*
X144780000Y-108225000D01*
X143510000Y-115570000D02*
X144780000Y-114300000D01*
X139065000Y-115570000D02*
X143510000Y-115570000D01*
X138430000Y-114935000D02*
X139065000Y-115570000D01*
X138430000Y-113665000D02*
X138430000Y-114935000D01*
X137160000Y-112395000D02*
X138430000Y-113665000D01*
X133985000Y-112395000D02*
X137160000Y-112395000D01*
X131327144Y-115052856D02*
X131445000Y-114935000D01*
X131445000Y-114935000D02*
X133985000Y-112395000D01*
X151345001Y-123105002D02*
X153119998Y-123105002D01*
X157117499Y-115207499D02*
X161609882Y-115207499D01*
X156845000Y-114935000D02*
X157117499Y-115207499D01*
X153119998Y-123105002D02*
X153670000Y-122555000D01*
X151960001Y-128910002D02*
X151960001Y-127195001D01*
X151345001Y-124040001D02*
X151345001Y-123105002D01*
X151765000Y-124460000D02*
X151345001Y-124040001D01*
X151960001Y-127195001D02*
X151765000Y-127000000D01*
X161609882Y-112667499D02*
X160292499Y-112667499D01*
X161193572Y-104678572D02*
X161193572Y-102734999D01*
X161290000Y-104775000D02*
X161193572Y-104678572D01*
X161290000Y-110490000D02*
X161290000Y-109855000D01*
X160020000Y-111760000D02*
X161290000Y-110490000D01*
X160020000Y-112395000D02*
X160020000Y-111760000D01*
X160292499Y-112667499D02*
X160020000Y-112395000D01*
X158092382Y-102829999D02*
X161098572Y-102829999D01*
X161098572Y-102829999D02*
X161193572Y-102734999D01*
X161609882Y-113937499D02*
X160292499Y-113937499D01*
X163830000Y-104140000D02*
X162693572Y-103003572D01*
X161290000Y-106045000D02*
X162560000Y-106045000D01*
X160655000Y-106680000D02*
X161290000Y-106045000D01*
X160655000Y-109855000D02*
X160655000Y-109220000D01*
X159385000Y-111125000D02*
X160655000Y-109855000D01*
X159385000Y-113030000D02*
X159385000Y-111125000D01*
X160292499Y-113937499D02*
X159385000Y-113030000D01*
X162693572Y-103003572D02*
X162693572Y-102734999D01*
X156592382Y-104522382D02*
X156845000Y-104775000D01*
X156592382Y-102829999D02*
X156592382Y-104522382D01*
X133985000Y-133350000D02*
X133985000Y-133347499D01*
X135438691Y-133347499D02*
X133985000Y-133347499D01*
X133985000Y-133347499D02*
X133352501Y-133347499D01*
X121920000Y-139065000D02*
X123012619Y-139065000D01*
X121285000Y-138430000D02*
X121920000Y-139065000D01*
X120650000Y-139065000D02*
X121285000Y-138430000D01*
X120650000Y-139700000D02*
X120650000Y-139065000D01*
X121285000Y-140335000D02*
X120650000Y-139700000D01*
X133352501Y-133347499D02*
X133350000Y-133350000D01*
X123012619Y-139065000D02*
X123180118Y-138897501D01*
X140838691Y-134617499D02*
X142872499Y-134617499D01*
X132080000Y-140970000D02*
X128270000Y-140970000D01*
X133985000Y-140970000D02*
X132080000Y-140970000D01*
X142875000Y-140970000D02*
X137160000Y-140970000D01*
X144145000Y-139700000D02*
X142875000Y-140970000D01*
X142872499Y-134617499D02*
X144145000Y-135890000D01*
X124680118Y-138897501D02*
X126197501Y-138897501D01*
X126197501Y-138897501D02*
X128270000Y-140970000D01*
X123825000Y-140970000D02*
X128270000Y-140970000D01*
X116954999Y-139179999D02*
X118745000Y-140970000D01*
X118745000Y-140970000D02*
X122607619Y-140970000D01*
X116954999Y-139179999D02*
X116954999Y-137633809D01*
X123825000Y-140970000D02*
X122607619Y-140970000D01*
X124680118Y-140114882D02*
X123825000Y-140970000D01*
X140838691Y-134617499D02*
X141602499Y-134617499D01*
X123825000Y-141605000D02*
X134620000Y-141605000D01*
X115684999Y-137633809D02*
X115684999Y-139179999D01*
X115684999Y-139179999D02*
X118110000Y-141605000D01*
X118110000Y-141605000D02*
X123825000Y-141605000D01*
X136525000Y-139700000D02*
X138430000Y-137795000D01*
X138430000Y-137795000D02*
X152222381Y-137795000D01*
X152222381Y-137795000D02*
X156152382Y-133864999D01*
X134620000Y-141605000D02*
X136525000Y-139700000D01*
X156152382Y-133864999D02*
X158927380Y-133864999D01*
X158927380Y-133864999D02*
X159089999Y-134027618D01*
M02*
