G04 #@! TF.FileFunction,Copper,L2,Bot,Signal*
%FSLAX46Y46*%
G04 Gerber Fmt 4.6, Leading zero omitted, Abs format (unit mm)*
G04 Created by KiCad (PCBNEW 4.0.4-stable) date 11/01/17 22:21:58*
%MOMM*%
%LPD*%
G01*
G04 APERTURE LIST*
%ADD10C,0.100000*%
%ADD11R,1.700000X1.700000*%
%ADD12O,1.700000X1.700000*%
%ADD13C,0.600000*%
%ADD14C,0.250000*%
%ADD15C,0.200000*%
G04 APERTURE END LIST*
D10*
D11*
X154312859Y-114354999D03*
D12*
X154312859Y-116894999D03*
D11*
X110222859Y-128034999D03*
D12*
X110222859Y-130574999D03*
X110222859Y-133114999D03*
D11*
X135877859Y-114674999D03*
X123467859Y-111179999D03*
D12*
X123467859Y-113719999D03*
X123467859Y-116259999D03*
X123467859Y-118799999D03*
X123467859Y-121339999D03*
X123467859Y-123879999D03*
X123467859Y-126419999D03*
X123467859Y-128959999D03*
X123467859Y-131499999D03*
X123467859Y-134039999D03*
D11*
X115809641Y-121822501D03*
D12*
X115809641Y-119282501D03*
X115809641Y-116742501D03*
D11*
X147887859Y-111814999D03*
D12*
X147887859Y-114354999D03*
X147887859Y-116894999D03*
X147887859Y-119434999D03*
X147887859Y-121974999D03*
X147887859Y-124514999D03*
X147887859Y-127054999D03*
X147887859Y-129594999D03*
X147887859Y-132134999D03*
X147887859Y-134674999D03*
D11*
X109927859Y-116964999D03*
D12*
X109927859Y-119504999D03*
X109927859Y-122044999D03*
D13*
X157480000Y-107950000D03*
X160020000Y-120650000D03*
X129540000Y-125095000D03*
X132715000Y-111760000D03*
X127000000Y-108585000D03*
X121920000Y-107950000D03*
X117475000Y-107315000D03*
X118745000Y-108585000D03*
X140970000Y-103505000D03*
X139065000Y-103505000D03*
X157353000Y-124777500D03*
X154241500Y-130937000D03*
X153606500Y-132842000D03*
X152400000Y-133921500D03*
X126365000Y-121920000D03*
X130175000Y-118110000D03*
X133350000Y-115570000D03*
X138430000Y-106045000D03*
X154305000Y-106045000D03*
X120015000Y-104775000D03*
X113030000Y-111125000D03*
X114935000Y-110490000D03*
X107315000Y-110490000D03*
X114300000Y-139700000D03*
X118110000Y-139065000D03*
X168910000Y-110490000D03*
X158750000Y-110490000D03*
X151765000Y-136525000D03*
X168211500Y-110299500D03*
X144145000Y-104140000D03*
X168275000Y-112395000D03*
X131445000Y-106045000D03*
X123825000Y-106045000D03*
X123825000Y-104775000D03*
X128270000Y-106743500D03*
X128206500Y-108394500D03*
X127508000Y-111252000D03*
X125666500Y-111252000D03*
X165100000Y-132715000D03*
X162560000Y-120015000D03*
X159385000Y-116840000D03*
X158115000Y-114300000D03*
X152400000Y-108585000D03*
X135890000Y-117475000D03*
X130746500Y-119380000D03*
X130111500Y-113411000D03*
X137160000Y-118745000D03*
X120015000Y-129540000D03*
X141605000Y-120650000D03*
X150495000Y-128270000D03*
X139700000Y-139065000D03*
X132715000Y-136525000D03*
X156845000Y-117475000D03*
X156210000Y-121920000D03*
X150495000Y-118110000D03*
X154305000Y-120650000D03*
X113030000Y-132080000D03*
X145415000Y-128270000D03*
X142875000Y-132080000D03*
X150495000Y-132080000D03*
X159385000Y-130810000D03*
X156845000Y-114935000D03*
X153670000Y-122555000D03*
X151765000Y-124460000D03*
X151765000Y-127000000D03*
X161290000Y-104775000D03*
X161290000Y-109855000D03*
X163830000Y-104140000D03*
X162560000Y-106045000D03*
X160655000Y-106680000D03*
X160655000Y-109220000D03*
X156845000Y-104775000D03*
X121285000Y-140335000D03*
X133350000Y-133350000D03*
X133985000Y-140970000D03*
X137160000Y-140970000D03*
X144145000Y-139700000D03*
X144145000Y-135890000D03*
D14*
X157480000Y-118110000D02*
X157480000Y-107950000D01*
X160020000Y-120650000D02*
X157480000Y-118110000D01*
X131445000Y-123190000D02*
X129540000Y-125095000D01*
X131445000Y-113030000D02*
X131445000Y-123190000D01*
X132715000Y-111760000D02*
X131445000Y-113030000D01*
X122555000Y-108585000D02*
X127000000Y-108585000D01*
X121920000Y-107950000D02*
X122555000Y-108585000D01*
X117475000Y-107315000D02*
X118745000Y-108585000D01*
X139065000Y-103505000D02*
X140970000Y-103505000D01*
D15*
X154178000Y-127952500D02*
X157353000Y-124777500D01*
X154178000Y-130873500D02*
X154178000Y-127952500D01*
X154241500Y-130937000D02*
X154178000Y-130873500D01*
X153479500Y-132842000D02*
X153606500Y-132842000D01*
X152400000Y-133921500D02*
X153479500Y-132842000D01*
D14*
X135890000Y-108585000D02*
X138430000Y-106045000D01*
X126365000Y-121920000D02*
X130175000Y-118110000D01*
X133350000Y-115570000D02*
X133985000Y-114935000D01*
X133985000Y-114935000D02*
X133985000Y-110490000D01*
X133985000Y-110490000D02*
X135890000Y-108585000D01*
X153670000Y-105410000D02*
X154305000Y-106045000D01*
X143510000Y-105410000D02*
X153670000Y-105410000D01*
X141605000Y-103505000D02*
X143510000Y-105410000D01*
X141605000Y-102870000D02*
X141605000Y-103505000D01*
X140970000Y-102235000D02*
X141605000Y-102870000D01*
X140335000Y-102235000D02*
X140970000Y-102235000D01*
X123190000Y-102235000D02*
X140335000Y-102235000D01*
X123190000Y-103505000D02*
X123190000Y-102235000D01*
X121920000Y-104775000D02*
X123190000Y-103505000D01*
X120015000Y-104775000D02*
X121920000Y-104775000D01*
X113030000Y-111125000D02*
X113665000Y-110490000D01*
X107315000Y-110490000D02*
X113665000Y-110490000D01*
X113665000Y-110490000D02*
X114935000Y-110490000D01*
X117475000Y-139700000D02*
X114300000Y-139700000D01*
X118110000Y-139065000D02*
X117475000Y-139700000D01*
X168910000Y-110490000D02*
X168275000Y-111125000D01*
X168275000Y-111125000D02*
X159385000Y-111125000D01*
X159385000Y-111125000D02*
X158750000Y-110490000D01*
D15*
X169545000Y-111125000D02*
X169545000Y-112395000D01*
D14*
X169545000Y-114300000D02*
X169545000Y-112395000D01*
X169545000Y-116840000D02*
X169545000Y-114300000D01*
X166370000Y-120015000D02*
X169545000Y-116840000D01*
X166370000Y-135255000D02*
X166370000Y-120015000D01*
X165100000Y-136525000D02*
X166370000Y-135255000D01*
X159385000Y-136525000D02*
X165100000Y-136525000D01*
X151765000Y-136525000D02*
X159385000Y-136525000D01*
D15*
X170180000Y-108331000D02*
X168211500Y-110299500D01*
D14*
X170180000Y-104140000D02*
X170180000Y-108331000D01*
X170180000Y-108331000D02*
X170180000Y-110490000D01*
X145415000Y-102870000D02*
X144145000Y-104140000D01*
X168910000Y-102870000D02*
X145415000Y-102870000D01*
X170180000Y-104140000D02*
X168910000Y-102870000D01*
X170180000Y-110490000D02*
X169545000Y-111125000D01*
X169545000Y-111125000D02*
X168275000Y-112395000D01*
X124460000Y-106045000D02*
X123825000Y-105410000D01*
X124460000Y-106045000D02*
X131445000Y-106045000D01*
X123825000Y-106045000D02*
X123825000Y-105410000D01*
X123825000Y-105410000D02*
X123825000Y-104775000D01*
D15*
X128270000Y-108331000D02*
X128270000Y-106743500D01*
X128206500Y-108394500D02*
X128270000Y-108331000D01*
X125666500Y-111252000D02*
X127508000Y-111252000D01*
D14*
X165100000Y-122555000D02*
X165100000Y-132715000D01*
X162560000Y-120015000D02*
X165100000Y-122555000D01*
X159385000Y-115570000D02*
X159385000Y-116840000D01*
X158115000Y-114300000D02*
X159385000Y-115570000D01*
X146050000Y-108585000D02*
X152400000Y-108585000D01*
X143510000Y-111125000D02*
X146050000Y-108585000D01*
X143510000Y-114300000D02*
X143510000Y-111125000D01*
X140970000Y-116840000D02*
X143510000Y-114300000D01*
X136525000Y-116840000D02*
X140970000Y-116840000D01*
X135890000Y-117475000D02*
X136525000Y-116840000D01*
D15*
X130746500Y-119062500D02*
X130746500Y-119380000D01*
X130746500Y-118745000D02*
X130746500Y-119062500D01*
X130810000Y-118681500D02*
X130746500Y-118745000D01*
X130810000Y-114109500D02*
X130810000Y-118681500D01*
X130111500Y-113411000D02*
X130810000Y-114109500D01*
D14*
X128270000Y-127635000D02*
X137160000Y-118745000D01*
X121920000Y-127635000D02*
X128270000Y-127635000D01*
X120015000Y-129540000D02*
X121920000Y-127635000D01*
X148590000Y-120650000D02*
X141605000Y-120650000D01*
X149860000Y-121920000D02*
X148590000Y-120650000D01*
X149860000Y-127635000D02*
X149860000Y-121920000D01*
X150495000Y-128270000D02*
X149860000Y-127635000D01*
X139700000Y-139065000D02*
X134620000Y-139065000D01*
X134620000Y-139065000D02*
X132715000Y-137160000D01*
X132715000Y-137160000D02*
X132715000Y-136525000D01*
X156845000Y-121285000D02*
X156845000Y-117475000D01*
X156210000Y-121920000D02*
X156845000Y-121285000D01*
X115809641Y-116742501D02*
X115809641Y-117537501D01*
X150495000Y-119380000D02*
X150495000Y-118110000D01*
X151765000Y-120650000D02*
X150495000Y-119380000D01*
X154305000Y-120650000D02*
X151765000Y-120650000D01*
X143510000Y-131445000D02*
X144780000Y-131445000D01*
X113030000Y-139700000D02*
X113030000Y-132080000D01*
X115570000Y-142240000D02*
X113030000Y-139700000D01*
X142875000Y-142240000D02*
X115570000Y-142240000D01*
X145415000Y-139700000D02*
X142875000Y-142240000D01*
X145415000Y-132080000D02*
X145415000Y-139700000D01*
X144780000Y-131445000D02*
X145415000Y-132080000D01*
X145415000Y-129540000D02*
X145415000Y-128270000D01*
X142875000Y-132080000D02*
X143510000Y-131445000D01*
X143510000Y-131445000D02*
X145415000Y-129540000D01*
X158115000Y-132080000D02*
X150495000Y-132080000D01*
X159385000Y-130810000D02*
X158115000Y-132080000D01*
X155575000Y-116205000D02*
X156845000Y-114935000D01*
X155575000Y-120650000D02*
X155575000Y-116205000D01*
X153670000Y-122555000D02*
X155575000Y-120650000D01*
X151765000Y-127000000D02*
X151765000Y-124460000D01*
X161290000Y-109855000D02*
X161290000Y-104775000D01*
X163830000Y-104775000D02*
X163830000Y-104140000D01*
X162560000Y-106045000D02*
X163830000Y-104775000D01*
X160655000Y-109220000D02*
X160655000Y-106680000D01*
X133985000Y-130175000D02*
X131445000Y-132715000D01*
X156845000Y-104775000D02*
X155575000Y-106045000D01*
X155575000Y-106045000D02*
X155575000Y-107950000D01*
X155575000Y-107950000D02*
X154305000Y-109220000D01*
X154305000Y-109220000D02*
X146685000Y-109220000D01*
X146685000Y-109220000D02*
X144145000Y-111760000D01*
X144145000Y-111760000D02*
X144145000Y-118110000D01*
X144145000Y-118110000D02*
X142875000Y-119380000D01*
X142875000Y-119380000D02*
X138430000Y-119380000D01*
X138430000Y-119380000D02*
X136525000Y-121285000D01*
X136525000Y-121285000D02*
X136525000Y-127635000D01*
X136525000Y-127635000D02*
X133985000Y-130175000D01*
X131445000Y-132715000D02*
X131445000Y-135255000D01*
X125730000Y-140335000D02*
X121285000Y-140335000D01*
X129540000Y-136525000D02*
X125730000Y-140335000D01*
X130175000Y-136525000D02*
X129540000Y-136525000D01*
X133350000Y-133350000D02*
X131445000Y-135255000D01*
X131445000Y-135255000D02*
X130175000Y-136525000D01*
X137160000Y-140970000D02*
X133985000Y-140970000D01*
X144145000Y-135890000D02*
X144145000Y-139700000D01*
M02*
