G04 #@! TF.FileFunction,Legend,Top*
%FSLAX46Y46*%
G04 Gerber Fmt 4.6, Leading zero omitted, Abs format (unit mm)*
G04 Created by KiCad (PCBNEW 4.0.4-stable) date 11/01/17 22:21:58*
%MOMM*%
%LPD*%
G01*
G04 APERTURE LIST*
%ADD10C,0.100000*%
%ADD11C,0.250000*%
%ADD12C,0.300000*%
%ADD13C,0.120000*%
%ADD14C,0.150000*%
%ADD15C,0.050000*%
G04 APERTURE END LIST*
D10*
D11*
X146366666Y-141557143D02*
X146319047Y-141604762D01*
X146176190Y-141652381D01*
X146080952Y-141652381D01*
X145938094Y-141604762D01*
X145842856Y-141509524D01*
X145795237Y-141414286D01*
X145747618Y-141223810D01*
X145747618Y-141080952D01*
X145795237Y-140890476D01*
X145842856Y-140795238D01*
X145938094Y-140700000D01*
X146080952Y-140652381D01*
X146176190Y-140652381D01*
X146319047Y-140700000D01*
X146366666Y-140747619D01*
X146795237Y-141652381D02*
X146795237Y-140652381D01*
X147223809Y-141652381D02*
X147223809Y-141128571D01*
X147176190Y-141033333D01*
X147080952Y-140985714D01*
X146938094Y-140985714D01*
X146842856Y-141033333D01*
X146795237Y-141080952D01*
X147699999Y-141652381D02*
X147699999Y-140985714D01*
X147699999Y-141176190D02*
X147747618Y-141080952D01*
X147795237Y-141033333D01*
X147890475Y-140985714D01*
X147985714Y-140985714D01*
X148319047Y-141652381D02*
X148319047Y-140985714D01*
X148319047Y-140652381D02*
X148271428Y-140700000D01*
X148319047Y-140747619D01*
X148366666Y-140700000D01*
X148319047Y-140652381D01*
X148319047Y-140747619D01*
X148747618Y-141604762D02*
X148842856Y-141652381D01*
X149033332Y-141652381D01*
X149128571Y-141604762D01*
X149176190Y-141509524D01*
X149176190Y-141461905D01*
X149128571Y-141366667D01*
X149033332Y-141319048D01*
X148890475Y-141319048D01*
X148795237Y-141271429D01*
X148747618Y-141176190D01*
X148747618Y-141128571D01*
X148795237Y-141033333D01*
X148890475Y-140985714D01*
X149033332Y-140985714D01*
X149128571Y-141033333D01*
X150366666Y-141652381D02*
X150366666Y-140652381D01*
X150604761Y-140652381D01*
X150747619Y-140700000D01*
X150842857Y-140795238D01*
X150890476Y-140890476D01*
X150938095Y-141080952D01*
X150938095Y-141223810D01*
X150890476Y-141414286D01*
X150842857Y-141509524D01*
X150747619Y-141604762D01*
X150604761Y-141652381D01*
X150366666Y-141652381D01*
X151366666Y-141652381D02*
X151366666Y-140985714D01*
X151366666Y-140652381D02*
X151319047Y-140700000D01*
X151366666Y-140747619D01*
X151414285Y-140700000D01*
X151366666Y-140652381D01*
X151366666Y-140747619D01*
X152223809Y-141604762D02*
X152128571Y-141652381D01*
X151938094Y-141652381D01*
X151842856Y-141604762D01*
X151795237Y-141509524D01*
X151795237Y-141128571D01*
X151842856Y-141033333D01*
X151938094Y-140985714D01*
X152128571Y-140985714D01*
X152223809Y-141033333D01*
X152271428Y-141128571D01*
X152271428Y-141223810D01*
X151795237Y-141319048D01*
X152557142Y-140985714D02*
X152938094Y-140985714D01*
X152699999Y-140652381D02*
X152699999Y-141509524D01*
X152747618Y-141604762D01*
X152842856Y-141652381D01*
X152938094Y-141652381D01*
X153223809Y-141604762D02*
X153319047Y-141652381D01*
X153509523Y-141652381D01*
X153604762Y-141604762D01*
X153652381Y-141509524D01*
X153652381Y-141461905D01*
X153604762Y-141366667D01*
X153509523Y-141319048D01*
X153366666Y-141319048D01*
X153271428Y-141271429D01*
X153223809Y-141176190D01*
X153223809Y-141128571D01*
X153271428Y-141033333D01*
X153366666Y-140985714D01*
X153509523Y-140985714D01*
X153604762Y-141033333D01*
X154509524Y-141604762D02*
X154414286Y-141652381D01*
X154223809Y-141652381D01*
X154128571Y-141604762D01*
X154080952Y-141557143D01*
X154033333Y-141461905D01*
X154033333Y-141176190D01*
X154080952Y-141080952D01*
X154128571Y-141033333D01*
X154223809Y-140985714D01*
X154414286Y-140985714D01*
X154509524Y-141033333D01*
X154938095Y-141652381D02*
X154938095Y-140652381D01*
X155366667Y-141652381D02*
X155366667Y-141128571D01*
X155319048Y-141033333D01*
X155223810Y-140985714D01*
X155080952Y-140985714D01*
X154985714Y-141033333D01*
X154938095Y-141080952D01*
X157414286Y-141652381D02*
X157366667Y-141652381D01*
X157271429Y-141604762D01*
X157128572Y-141461905D01*
X156890477Y-141176190D01*
X156795238Y-141033333D01*
X156747619Y-140890476D01*
X156747619Y-140795238D01*
X156795238Y-140700000D01*
X156890477Y-140652381D01*
X156938096Y-140652381D01*
X157033334Y-140700000D01*
X157080953Y-140795238D01*
X157080953Y-140842857D01*
X157033334Y-140938095D01*
X156985715Y-140985714D01*
X156700000Y-141176190D01*
X156652381Y-141223810D01*
X156604762Y-141319048D01*
X156604762Y-141461905D01*
X156652381Y-141557143D01*
X156700000Y-141604762D01*
X156795238Y-141652381D01*
X156938096Y-141652381D01*
X157033334Y-141604762D01*
X157080953Y-141557143D01*
X157223810Y-141366667D01*
X157271429Y-141223810D01*
X157271429Y-141128571D01*
X159080953Y-141652381D02*
X158604762Y-141652381D01*
X158604762Y-140652381D01*
X159557143Y-141652381D02*
X159461905Y-141604762D01*
X159414286Y-141557143D01*
X159366667Y-141461905D01*
X159366667Y-141176190D01*
X159414286Y-141080952D01*
X159461905Y-141033333D01*
X159557143Y-140985714D01*
X159700001Y-140985714D01*
X159795239Y-141033333D01*
X159842858Y-141080952D01*
X159890477Y-141176190D01*
X159890477Y-141461905D01*
X159842858Y-141557143D01*
X159795239Y-141604762D01*
X159700001Y-141652381D01*
X159557143Y-141652381D01*
X160319048Y-140985714D02*
X160319048Y-141652381D01*
X160319048Y-141080952D02*
X160366667Y-141033333D01*
X160461905Y-140985714D01*
X160604763Y-140985714D01*
X160700001Y-141033333D01*
X160747620Y-141128571D01*
X160747620Y-141652381D01*
X161223810Y-140985714D02*
X161223810Y-141652381D01*
X161223810Y-141080952D02*
X161271429Y-141033333D01*
X161366667Y-140985714D01*
X161509525Y-140985714D01*
X161604763Y-141033333D01*
X161652382Y-141128571D01*
X161652382Y-141652381D01*
X162128572Y-141652381D02*
X162128572Y-140985714D01*
X162128572Y-140652381D02*
X162080953Y-140700000D01*
X162128572Y-140747619D01*
X162176191Y-140700000D01*
X162128572Y-140652381D01*
X162128572Y-140747619D01*
X162985715Y-141604762D02*
X162890477Y-141652381D01*
X162700000Y-141652381D01*
X162604762Y-141604762D01*
X162557143Y-141509524D01*
X162557143Y-141128571D01*
X162604762Y-141033333D01*
X162700000Y-140985714D01*
X162890477Y-140985714D01*
X162985715Y-141033333D01*
X163033334Y-141128571D01*
X163033334Y-141223810D01*
X162557143Y-141319048D01*
X164176191Y-141604762D02*
X164319048Y-141652381D01*
X164557144Y-141652381D01*
X164652382Y-141604762D01*
X164700001Y-141557143D01*
X164747620Y-141461905D01*
X164747620Y-141366667D01*
X164700001Y-141271429D01*
X164652382Y-141223810D01*
X164557144Y-141176190D01*
X164366667Y-141128571D01*
X164271429Y-141080952D01*
X164223810Y-141033333D01*
X164176191Y-140938095D01*
X164176191Y-140842857D01*
X164223810Y-140747619D01*
X164271429Y-140700000D01*
X164366667Y-140652381D01*
X164604763Y-140652381D01*
X164747620Y-140700000D01*
X165319048Y-141652381D02*
X165223810Y-141604762D01*
X165176191Y-141557143D01*
X165128572Y-141461905D01*
X165128572Y-141176190D01*
X165176191Y-141080952D01*
X165223810Y-141033333D01*
X165319048Y-140985714D01*
X165461906Y-140985714D01*
X165557144Y-141033333D01*
X165604763Y-141080952D01*
X165652382Y-141176190D01*
X165652382Y-141461905D01*
X165604763Y-141557143D01*
X165557144Y-141604762D01*
X165461906Y-141652381D01*
X165319048Y-141652381D01*
X166509525Y-140985714D02*
X166509525Y-141652381D01*
X166080953Y-140985714D02*
X166080953Y-141509524D01*
X166128572Y-141604762D01*
X166223810Y-141652381D01*
X166366668Y-141652381D01*
X166461906Y-141604762D01*
X166509525Y-141557143D01*
X167414287Y-141652381D02*
X167414287Y-140652381D01*
X167414287Y-141604762D02*
X167319049Y-141652381D01*
X167128572Y-141652381D01*
X167033334Y-141604762D01*
X166985715Y-141557143D01*
X166938096Y-141461905D01*
X166938096Y-141176190D01*
X166985715Y-141080952D01*
X167033334Y-141033333D01*
X167128572Y-140985714D01*
X167319049Y-140985714D01*
X167414287Y-141033333D01*
X168271430Y-141604762D02*
X168176192Y-141652381D01*
X167985715Y-141652381D01*
X167890477Y-141604762D01*
X167842858Y-141509524D01*
X167842858Y-141128571D01*
X167890477Y-141033333D01*
X167985715Y-140985714D01*
X168176192Y-140985714D01*
X168271430Y-141033333D01*
X168319049Y-141128571D01*
X168319049Y-141223810D01*
X167842858Y-141319048D01*
X168747620Y-141652381D02*
X168747620Y-140985714D01*
X168747620Y-141176190D02*
X168795239Y-141080952D01*
X168842858Y-141033333D01*
X168938096Y-140985714D01*
X169033335Y-140985714D01*
X170128573Y-141652381D02*
X170128573Y-140652381D01*
X170604763Y-141652381D02*
X170604763Y-140652381D01*
D12*
X128651787Y-165628570D02*
X129651787Y-165628570D01*
X129008930Y-167128570D01*
X130866072Y-166128570D02*
X130866072Y-167128570D01*
X130508929Y-165557142D02*
X130151786Y-166628570D01*
X131080358Y-166628570D01*
X131651786Y-166985713D02*
X131723214Y-167057142D01*
X131651786Y-167128570D01*
X131580357Y-167057142D01*
X131651786Y-166985713D01*
X131651786Y-167128570D01*
X132294643Y-165771428D02*
X132366072Y-165699999D01*
X132508929Y-165628570D01*
X132866072Y-165628570D01*
X133008929Y-165699999D01*
X133080358Y-165771428D01*
X133151786Y-165914285D01*
X133151786Y-166057142D01*
X133080358Y-166271428D01*
X132223215Y-167128570D01*
X133151786Y-167128570D01*
X133866071Y-167128570D02*
X134151786Y-167128570D01*
X134294643Y-167057142D01*
X134366071Y-166985713D01*
X134508929Y-166771428D01*
X134580357Y-166485713D01*
X134580357Y-165914285D01*
X134508929Y-165771428D01*
X134437500Y-165699999D01*
X134294643Y-165628570D01*
X134008929Y-165628570D01*
X133866071Y-165699999D01*
X133794643Y-165771428D01*
X133723214Y-165914285D01*
X133723214Y-166271428D01*
X133794643Y-166414285D01*
X133866071Y-166485713D01*
X134008929Y-166557142D01*
X134294643Y-166557142D01*
X134437500Y-166485713D01*
X134508929Y-166414285D01*
X134580357Y-166271428D01*
X135937500Y-165628570D02*
X135223214Y-165628570D01*
X135151785Y-166342856D01*
X135223214Y-166271428D01*
X135366071Y-166199999D01*
X135723214Y-166199999D01*
X135866071Y-166271428D01*
X135937500Y-166342856D01*
X136008928Y-166485713D01*
X136008928Y-166842856D01*
X135937500Y-166985713D01*
X135866071Y-167057142D01*
X135723214Y-167128570D01*
X135366071Y-167128570D01*
X135223214Y-167057142D01*
X135151785Y-166985713D01*
X137794642Y-167128570D02*
X137794642Y-166128570D01*
X137794642Y-166271428D02*
X137866070Y-166199999D01*
X138008928Y-166128570D01*
X138223213Y-166128570D01*
X138366070Y-166199999D01*
X138437499Y-166342856D01*
X138437499Y-167128570D01*
X138437499Y-166342856D02*
X138508928Y-166199999D01*
X138651785Y-166128570D01*
X138866070Y-166128570D01*
X139008928Y-166199999D01*
X139080356Y-166342856D01*
X139080356Y-167128570D01*
X139794642Y-167128570D02*
X139794642Y-166128570D01*
X139794642Y-166271428D02*
X139866070Y-166199999D01*
X140008928Y-166128570D01*
X140223213Y-166128570D01*
X140366070Y-166199999D01*
X140437499Y-166342856D01*
X140437499Y-167128570D01*
X140437499Y-166342856D02*
X140508928Y-166199999D01*
X140651785Y-166128570D01*
X140866070Y-166128570D01*
X141008928Y-166199999D01*
X141080356Y-166342856D01*
X141080356Y-167128570D01*
X97790000Y-165099999D02*
X172085000Y-165099999D01*
X97790000Y-158115000D02*
X97790000Y-167799999D01*
X172085000Y-158115000D02*
X172085000Y-167799999D01*
X172085000Y-165099999D02*
X170958496Y-165686420D01*
X172085000Y-165099999D02*
X170958496Y-164513578D01*
X97790000Y-165099999D02*
X98916504Y-165686420D01*
X97790000Y-165099999D02*
X98916504Y-164513578D01*
D13*
X138309999Y-103849998D02*
X138309999Y-104549998D01*
X137109999Y-104549998D02*
X137109999Y-103849998D01*
X119545001Y-126544048D02*
X119545001Y-125844048D01*
X120745001Y-125844048D02*
X120745001Y-126544048D01*
X130024999Y-107840952D02*
X130024999Y-108540952D01*
X128824999Y-108540952D02*
X128824999Y-107840952D01*
X116052501Y-126704882D02*
X116052501Y-126004882D01*
X117252501Y-126004882D02*
X117252501Y-126704882D01*
X165947382Y-104224999D02*
X165247382Y-104224999D01*
X165247382Y-103024999D02*
X165947382Y-103024999D01*
X115542501Y-104341548D02*
X115542501Y-103641548D01*
X116742501Y-103641548D02*
X116742501Y-104341548D01*
X116459999Y-107245952D02*
X116459999Y-107945952D01*
X115259999Y-107945952D02*
X115259999Y-107245952D01*
X134529999Y-103822618D02*
X134529999Y-104522618D01*
X133329999Y-104522618D02*
X133329999Y-103822618D01*
X168042499Y-107573452D02*
X168042499Y-108273452D01*
X166842499Y-108273452D02*
X166842499Y-107573452D01*
X119317499Y-110585118D02*
X119317499Y-111285118D01*
X118117499Y-111285118D02*
X118117499Y-110585118D01*
X125302382Y-104034999D02*
X124602382Y-104034999D01*
X124602382Y-102834999D02*
X125302382Y-102834999D01*
X120069048Y-104004999D02*
X119369048Y-104004999D01*
X119369048Y-102804999D02*
X120069048Y-102804999D01*
X125149048Y-107844999D02*
X124449048Y-107844999D01*
X124449048Y-106644999D02*
X125149048Y-106644999D01*
X120362382Y-107569999D02*
X119662382Y-107569999D01*
X119662382Y-106369999D02*
X120362382Y-106369999D01*
X138237382Y-109129999D02*
X137537382Y-109129999D01*
X137537382Y-107929999D02*
X138237382Y-107929999D01*
X163889048Y-108639999D02*
X163189048Y-108639999D01*
X163189048Y-107439999D02*
X163889048Y-107439999D01*
X141569048Y-113574999D02*
X140869048Y-113574999D01*
X140869048Y-112374999D02*
X141569048Y-112374999D01*
X130039999Y-103742142D02*
X130039999Y-104442142D01*
X128839999Y-104442142D02*
X128839999Y-103742142D01*
X152982859Y-118224999D02*
X155642859Y-118224999D01*
X152982859Y-115624999D02*
X152982859Y-118224999D01*
X155642859Y-115624999D02*
X155642859Y-118224999D01*
X152982859Y-115624999D02*
X155642859Y-115624999D01*
X152982859Y-114354999D02*
X152982859Y-113024999D01*
X152982859Y-113024999D02*
X154312859Y-113024999D01*
X108892859Y-134444999D02*
X111552859Y-134444999D01*
X108892859Y-129304999D02*
X108892859Y-134444999D01*
X111552859Y-129304999D02*
X111552859Y-134444999D01*
X108892859Y-129304999D02*
X111552859Y-129304999D01*
X108892859Y-128034999D02*
X108892859Y-126704999D01*
X108892859Y-126704999D02*
X110222859Y-126704999D01*
X134547859Y-116004999D02*
X137207859Y-116004999D01*
X134547859Y-115944999D02*
X134547859Y-116004999D01*
X137207859Y-115944999D02*
X137207859Y-116004999D01*
X134547859Y-115944999D02*
X137207859Y-115944999D01*
X134547859Y-114674999D02*
X134547859Y-113344999D01*
X134547859Y-113344999D02*
X135877859Y-113344999D01*
X122137859Y-135369999D02*
X124797859Y-135369999D01*
X122137859Y-112449999D02*
X122137859Y-135369999D01*
X124797859Y-112449999D02*
X124797859Y-135369999D01*
X122137859Y-112449999D02*
X124797859Y-112449999D01*
X122137859Y-111179999D02*
X122137859Y-109849999D01*
X122137859Y-109849999D02*
X123467859Y-109849999D01*
X117139641Y-115412501D02*
X114479641Y-115412501D01*
X117139641Y-120552501D02*
X117139641Y-115412501D01*
X114479641Y-120552501D02*
X114479641Y-115412501D01*
X117139641Y-120552501D02*
X114479641Y-120552501D01*
X117139641Y-121822501D02*
X117139641Y-123152501D01*
X117139641Y-123152501D02*
X115809641Y-123152501D01*
X146557859Y-136004999D02*
X149217859Y-136004999D01*
X146557859Y-113084999D02*
X146557859Y-136004999D01*
X149217859Y-113084999D02*
X149217859Y-136004999D01*
X146557859Y-113084999D02*
X149217859Y-113084999D01*
X146557859Y-111814999D02*
X146557859Y-110484999D01*
X146557859Y-110484999D02*
X147887859Y-110484999D01*
X108597859Y-123374999D02*
X111257859Y-123374999D01*
X108597859Y-118234999D02*
X108597859Y-123374999D01*
X111257859Y-118234999D02*
X111257859Y-123374999D01*
X108597859Y-118234999D02*
X111257859Y-118234999D01*
X108597859Y-116964999D02*
X108597859Y-115634999D01*
X108597859Y-115634999D02*
X109927859Y-115634999D01*
D14*
X154859999Y-128471904D02*
X154984999Y-128471904D01*
X154859999Y-123821904D02*
X155084999Y-123821904D01*
X160109999Y-123821904D02*
X159884999Y-123821904D01*
X160109999Y-128471904D02*
X159884999Y-128471904D01*
X154859999Y-128471904D02*
X154859999Y-123821904D01*
X160109999Y-128471904D02*
X160109999Y-123821904D01*
X154984999Y-128471904D02*
X154984999Y-129821904D01*
D13*
X110407856Y-106625001D02*
X111407856Y-106625001D01*
X111407856Y-107985001D02*
X110407856Y-107985001D01*
X111091429Y-112304999D02*
X110091429Y-112304999D01*
X110091429Y-110944999D02*
X111091429Y-110944999D01*
X127867501Y-115519644D02*
X127867501Y-114519644D01*
X129227501Y-114519644D02*
X129227501Y-115519644D01*
X120499999Y-121787856D02*
X120499999Y-122787856D01*
X119139999Y-122787856D02*
X119139999Y-121787856D01*
X132902856Y-107485001D02*
X133902856Y-107485001D01*
X133902856Y-108845001D02*
X132902856Y-108845001D01*
X159557144Y-108559999D02*
X158557144Y-108559999D01*
X158557144Y-107199999D02*
X159557144Y-107199999D01*
X150665001Y-122855002D02*
X150665001Y-121855002D01*
X152025001Y-121855002D02*
X152025001Y-122855002D01*
X151280001Y-130160002D02*
X151280001Y-129160002D01*
X152640001Y-129160002D02*
X152640001Y-130160002D01*
X162443572Y-103414999D02*
X161443572Y-103414999D01*
X161443572Y-102054999D02*
X162443572Y-102054999D01*
X157842382Y-103509999D02*
X156842382Y-103509999D01*
X156842382Y-102149999D02*
X157842382Y-102149999D01*
X130467499Y-134100118D02*
X130467499Y-135100118D01*
X129107499Y-135100118D02*
X129107499Y-134100118D01*
X123430118Y-138217501D02*
X124430118Y-138217501D01*
X124430118Y-139577501D02*
X123430118Y-139577501D01*
X159769999Y-132777618D02*
X159769999Y-133777618D01*
X158409999Y-133777618D02*
X158409999Y-132777618D01*
X155902382Y-134544999D02*
X154902382Y-134544999D01*
X154902382Y-133184999D02*
X155902382Y-133184999D01*
X164359999Y-132512618D02*
X164359999Y-133512618D01*
X162999999Y-133512618D02*
X162999999Y-132512618D01*
D14*
X162234882Y-111997499D02*
X162234882Y-112047499D01*
X166384882Y-111997499D02*
X166384882Y-112142499D01*
X166384882Y-117147499D02*
X166384882Y-117002499D01*
X162234882Y-117147499D02*
X162234882Y-117002499D01*
X162234882Y-111997499D02*
X166384882Y-111997499D01*
X162234882Y-117147499D02*
X166384882Y-117147499D01*
X162234882Y-112047499D02*
X160834882Y-112047499D01*
X134256429Y-127119999D02*
X138706429Y-127119999D01*
X132731429Y-120219999D02*
X138706429Y-120219999D01*
X136063691Y-131407499D02*
X136063691Y-131457499D01*
X140213691Y-131407499D02*
X140213691Y-131552499D01*
X140213691Y-136557499D02*
X140213691Y-136412499D01*
X136063691Y-136557499D02*
X136063691Y-136412499D01*
X136063691Y-131407499D02*
X140213691Y-131407499D01*
X136063691Y-136557499D02*
X140213691Y-136557499D01*
X136063691Y-131457499D02*
X134663691Y-131457499D01*
X113744999Y-137008809D02*
X113794999Y-137008809D01*
X113744999Y-132858809D02*
X113889999Y-132858809D01*
X118894999Y-132858809D02*
X118749999Y-132858809D01*
X118894999Y-137008809D02*
X118749999Y-137008809D01*
X113744999Y-137008809D02*
X113744999Y-132858809D01*
X118894999Y-137008809D02*
X118894999Y-132858809D01*
X113794999Y-137008809D02*
X113794999Y-138408809D01*
X136567142Y-104366664D02*
X136614761Y-104414283D01*
X136662380Y-104557140D01*
X136662380Y-104652378D01*
X136614761Y-104795236D01*
X136519523Y-104890474D01*
X136424285Y-104938093D01*
X136233809Y-104985712D01*
X136090951Y-104985712D01*
X135900475Y-104938093D01*
X135805237Y-104890474D01*
X135709999Y-104795236D01*
X135662380Y-104652378D01*
X135662380Y-104557140D01*
X135709999Y-104414283D01*
X135757618Y-104366664D01*
X136662380Y-103414283D02*
X136662380Y-103985712D01*
X136662380Y-103699998D02*
X135662380Y-103699998D01*
X135805237Y-103795236D01*
X135900475Y-103890474D01*
X135948094Y-103985712D01*
X122002144Y-126360714D02*
X122049763Y-126408333D01*
X122097382Y-126551190D01*
X122097382Y-126646428D01*
X122049763Y-126789286D01*
X121954525Y-126884524D01*
X121859287Y-126932143D01*
X121668811Y-126979762D01*
X121525953Y-126979762D01*
X121335477Y-126932143D01*
X121240239Y-126884524D01*
X121145001Y-126789286D01*
X121097382Y-126646428D01*
X121097382Y-126551190D01*
X121145001Y-126408333D01*
X121192620Y-126360714D01*
X121097382Y-126027381D02*
X121097382Y-125408333D01*
X121478334Y-125741667D01*
X121478334Y-125598809D01*
X121525953Y-125503571D01*
X121573572Y-125455952D01*
X121668811Y-125408333D01*
X121906906Y-125408333D01*
X122002144Y-125455952D01*
X122049763Y-125503571D01*
X122097382Y-125598809D01*
X122097382Y-125884524D01*
X122049763Y-125979762D01*
X122002144Y-126027381D01*
X128282142Y-108357618D02*
X128329761Y-108405237D01*
X128377380Y-108548094D01*
X128377380Y-108643332D01*
X128329761Y-108786190D01*
X128234523Y-108881428D01*
X128139285Y-108929047D01*
X127948809Y-108976666D01*
X127805951Y-108976666D01*
X127615475Y-108929047D01*
X127520237Y-108881428D01*
X127424999Y-108786190D01*
X127377380Y-108643332D01*
X127377380Y-108548094D01*
X127424999Y-108405237D01*
X127472618Y-108357618D01*
X127377380Y-107452856D02*
X127377380Y-107929047D01*
X127853570Y-107976666D01*
X127805951Y-107929047D01*
X127758332Y-107833809D01*
X127758332Y-107595713D01*
X127805951Y-107500475D01*
X127853570Y-107452856D01*
X127948809Y-107405237D01*
X128186904Y-107405237D01*
X128282142Y-107452856D01*
X128329761Y-107500475D01*
X128377380Y-107595713D01*
X128377380Y-107833809D01*
X128329761Y-107929047D01*
X128282142Y-107976666D01*
X118509644Y-126997739D02*
X118557263Y-127045358D01*
X118604882Y-127188215D01*
X118604882Y-127283453D01*
X118557263Y-127426311D01*
X118462025Y-127521549D01*
X118366787Y-127569168D01*
X118176311Y-127616787D01*
X118033453Y-127616787D01*
X117842977Y-127569168D01*
X117747739Y-127521549D01*
X117652501Y-127426311D01*
X117604882Y-127283453D01*
X117604882Y-127188215D01*
X117652501Y-127045358D01*
X117700120Y-126997739D01*
X118604882Y-126045358D02*
X118604882Y-126616787D01*
X118604882Y-126331073D02*
X117604882Y-126331073D01*
X117747739Y-126426311D01*
X117842977Y-126521549D01*
X117890596Y-126616787D01*
X117700120Y-125664406D02*
X117652501Y-125616787D01*
X117604882Y-125521549D01*
X117604882Y-125283453D01*
X117652501Y-125188215D01*
X117700120Y-125140596D01*
X117795358Y-125092977D01*
X117890596Y-125092977D01*
X118033453Y-125140596D01*
X118604882Y-125712025D01*
X118604882Y-125092977D01*
X164954525Y-102482142D02*
X164906906Y-102529761D01*
X164764049Y-102577380D01*
X164668811Y-102577380D01*
X164525953Y-102529761D01*
X164430715Y-102434523D01*
X164383096Y-102339285D01*
X164335477Y-102148809D01*
X164335477Y-102005951D01*
X164383096Y-101815475D01*
X164430715Y-101720237D01*
X164525953Y-101624999D01*
X164668811Y-101577380D01*
X164764049Y-101577380D01*
X164906906Y-101624999D01*
X164954525Y-101672618D01*
X165906906Y-102577380D02*
X165335477Y-102577380D01*
X165621191Y-102577380D02*
X165621191Y-101577380D01*
X165525953Y-101720237D01*
X165430715Y-101815475D01*
X165335477Y-101863094D01*
X166240239Y-101577380D02*
X166859287Y-101577380D01*
X166525953Y-101958332D01*
X166668811Y-101958332D01*
X166764049Y-102005951D01*
X166811668Y-102053570D01*
X166859287Y-102148809D01*
X166859287Y-102386904D01*
X166811668Y-102482142D01*
X166764049Y-102529761D01*
X166668811Y-102577380D01*
X166383096Y-102577380D01*
X166287858Y-102529761D01*
X166240239Y-102482142D01*
X117999644Y-104634405D02*
X118047263Y-104682024D01*
X118094882Y-104824881D01*
X118094882Y-104920119D01*
X118047263Y-105062977D01*
X117952025Y-105158215D01*
X117856787Y-105205834D01*
X117666311Y-105253453D01*
X117523453Y-105253453D01*
X117332977Y-105205834D01*
X117237739Y-105158215D01*
X117142501Y-105062977D01*
X117094882Y-104920119D01*
X117094882Y-104824881D01*
X117142501Y-104682024D01*
X117190120Y-104634405D01*
X118094882Y-103682024D02*
X118094882Y-104253453D01*
X118094882Y-103967739D02*
X117094882Y-103967739D01*
X117237739Y-104062977D01*
X117332977Y-104158215D01*
X117380596Y-104253453D01*
X117428215Y-102824881D02*
X118094882Y-102824881D01*
X117047263Y-103062977D02*
X117761549Y-103301072D01*
X117761549Y-102682024D01*
X114717142Y-108238809D02*
X114764761Y-108286428D01*
X114812380Y-108429285D01*
X114812380Y-108524523D01*
X114764761Y-108667381D01*
X114669523Y-108762619D01*
X114574285Y-108810238D01*
X114383809Y-108857857D01*
X114240951Y-108857857D01*
X114050475Y-108810238D01*
X113955237Y-108762619D01*
X113859999Y-108667381D01*
X113812380Y-108524523D01*
X113812380Y-108429285D01*
X113859999Y-108286428D01*
X113907618Y-108238809D01*
X114812380Y-107286428D02*
X114812380Y-107857857D01*
X114812380Y-107572143D02*
X113812380Y-107572143D01*
X113955237Y-107667381D01*
X114050475Y-107762619D01*
X114098094Y-107857857D01*
X113812380Y-106381666D02*
X113812380Y-106857857D01*
X114288570Y-106905476D01*
X114240951Y-106857857D01*
X114193332Y-106762619D01*
X114193332Y-106524523D01*
X114240951Y-106429285D01*
X114288570Y-106381666D01*
X114383809Y-106334047D01*
X114621904Y-106334047D01*
X114717142Y-106381666D01*
X114764761Y-106429285D01*
X114812380Y-106524523D01*
X114812380Y-106762619D01*
X114764761Y-106857857D01*
X114717142Y-106905476D01*
X132787142Y-104815475D02*
X132834761Y-104863094D01*
X132882380Y-105005951D01*
X132882380Y-105101189D01*
X132834761Y-105244047D01*
X132739523Y-105339285D01*
X132644285Y-105386904D01*
X132453809Y-105434523D01*
X132310951Y-105434523D01*
X132120475Y-105386904D01*
X132025237Y-105339285D01*
X131929999Y-105244047D01*
X131882380Y-105101189D01*
X131882380Y-105005951D01*
X131929999Y-104863094D01*
X131977618Y-104815475D01*
X132882380Y-103863094D02*
X132882380Y-104434523D01*
X132882380Y-104148809D02*
X131882380Y-104148809D01*
X132025237Y-104244047D01*
X132120475Y-104339285D01*
X132168094Y-104434523D01*
X131882380Y-103005951D02*
X131882380Y-103196428D01*
X131929999Y-103291666D01*
X131977618Y-103339285D01*
X132120475Y-103434523D01*
X132310951Y-103482142D01*
X132691904Y-103482142D01*
X132787142Y-103434523D01*
X132834761Y-103386904D01*
X132882380Y-103291666D01*
X132882380Y-103101189D01*
X132834761Y-103005951D01*
X132787142Y-102958332D01*
X132691904Y-102910713D01*
X132453809Y-102910713D01*
X132358570Y-102958332D01*
X132310951Y-103005951D01*
X132263332Y-103101189D01*
X132263332Y-103291666D01*
X132310951Y-103386904D01*
X132358570Y-103434523D01*
X132453809Y-103482142D01*
X166299642Y-108566309D02*
X166347261Y-108613928D01*
X166394880Y-108756785D01*
X166394880Y-108852023D01*
X166347261Y-108994881D01*
X166252023Y-109090119D01*
X166156785Y-109137738D01*
X165966309Y-109185357D01*
X165823451Y-109185357D01*
X165632975Y-109137738D01*
X165537737Y-109090119D01*
X165442499Y-108994881D01*
X165394880Y-108852023D01*
X165394880Y-108756785D01*
X165442499Y-108613928D01*
X165490118Y-108566309D01*
X166394880Y-107613928D02*
X166394880Y-108185357D01*
X166394880Y-107899643D02*
X165394880Y-107899643D01*
X165537737Y-107994881D01*
X165632975Y-108090119D01*
X165680594Y-108185357D01*
X165394880Y-107280595D02*
X165394880Y-106613928D01*
X166394880Y-107042500D01*
X117574642Y-111577975D02*
X117622261Y-111625594D01*
X117669880Y-111768451D01*
X117669880Y-111863689D01*
X117622261Y-112006547D01*
X117527023Y-112101785D01*
X117431785Y-112149404D01*
X117241309Y-112197023D01*
X117098451Y-112197023D01*
X116907975Y-112149404D01*
X116812737Y-112101785D01*
X116717499Y-112006547D01*
X116669880Y-111863689D01*
X116669880Y-111768451D01*
X116717499Y-111625594D01*
X116765118Y-111577975D01*
X117669880Y-110625594D02*
X117669880Y-111197023D01*
X117669880Y-110911309D02*
X116669880Y-110911309D01*
X116812737Y-111006547D01*
X116907975Y-111101785D01*
X116955594Y-111197023D01*
X117098451Y-110054166D02*
X117050832Y-110149404D01*
X117003213Y-110197023D01*
X116907975Y-110244642D01*
X116860356Y-110244642D01*
X116765118Y-110197023D01*
X116717499Y-110149404D01*
X116669880Y-110054166D01*
X116669880Y-109863689D01*
X116717499Y-109768451D01*
X116765118Y-109720832D01*
X116860356Y-109673213D01*
X116907975Y-109673213D01*
X117003213Y-109720832D01*
X117050832Y-109768451D01*
X117098451Y-109863689D01*
X117098451Y-110054166D01*
X117146070Y-110149404D01*
X117193689Y-110197023D01*
X117288928Y-110244642D01*
X117479404Y-110244642D01*
X117574642Y-110197023D01*
X117622261Y-110149404D01*
X117669880Y-110054166D01*
X117669880Y-109863689D01*
X117622261Y-109768451D01*
X117574642Y-109720832D01*
X117479404Y-109673213D01*
X117288928Y-109673213D01*
X117193689Y-109720832D01*
X117146070Y-109768451D01*
X117098451Y-109863689D01*
X124309525Y-102292142D02*
X124261906Y-102339761D01*
X124119049Y-102387380D01*
X124023811Y-102387380D01*
X123880953Y-102339761D01*
X123785715Y-102244523D01*
X123738096Y-102149285D01*
X123690477Y-101958809D01*
X123690477Y-101815951D01*
X123738096Y-101625475D01*
X123785715Y-101530237D01*
X123880953Y-101434999D01*
X124023811Y-101387380D01*
X124119049Y-101387380D01*
X124261906Y-101434999D01*
X124309525Y-101482618D01*
X125261906Y-102387380D02*
X124690477Y-102387380D01*
X124976191Y-102387380D02*
X124976191Y-101387380D01*
X124880953Y-101530237D01*
X124785715Y-101625475D01*
X124690477Y-101673094D01*
X125738096Y-102387380D02*
X125928572Y-102387380D01*
X126023811Y-102339761D01*
X126071430Y-102292142D01*
X126166668Y-102149285D01*
X126214287Y-101958809D01*
X126214287Y-101577856D01*
X126166668Y-101482618D01*
X126119049Y-101434999D01*
X126023811Y-101387380D01*
X125833334Y-101387380D01*
X125738096Y-101434999D01*
X125690477Y-101482618D01*
X125642858Y-101577856D01*
X125642858Y-101815951D01*
X125690477Y-101911189D01*
X125738096Y-101958809D01*
X125833334Y-102006428D01*
X126023811Y-102006428D01*
X126119049Y-101958809D01*
X126166668Y-101911189D01*
X126214287Y-101815951D01*
X119076191Y-102262142D02*
X119028572Y-102309761D01*
X118885715Y-102357380D01*
X118790477Y-102357380D01*
X118647619Y-102309761D01*
X118552381Y-102214523D01*
X118504762Y-102119285D01*
X118457143Y-101928809D01*
X118457143Y-101785951D01*
X118504762Y-101595475D01*
X118552381Y-101500237D01*
X118647619Y-101404999D01*
X118790477Y-101357380D01*
X118885715Y-101357380D01*
X119028572Y-101404999D01*
X119076191Y-101452618D01*
X119457143Y-101452618D02*
X119504762Y-101404999D01*
X119600000Y-101357380D01*
X119838096Y-101357380D01*
X119933334Y-101404999D01*
X119980953Y-101452618D01*
X120028572Y-101547856D01*
X120028572Y-101643094D01*
X119980953Y-101785951D01*
X119409524Y-102357380D01*
X120028572Y-102357380D01*
X120647619Y-101357380D02*
X120742858Y-101357380D01*
X120838096Y-101404999D01*
X120885715Y-101452618D01*
X120933334Y-101547856D01*
X120980953Y-101738332D01*
X120980953Y-101976428D01*
X120933334Y-102166904D01*
X120885715Y-102262142D01*
X120838096Y-102309761D01*
X120742858Y-102357380D01*
X120647619Y-102357380D01*
X120552381Y-102309761D01*
X120504762Y-102262142D01*
X120457143Y-102166904D01*
X120409524Y-101976428D01*
X120409524Y-101738332D01*
X120457143Y-101547856D01*
X120504762Y-101452618D01*
X120552381Y-101404999D01*
X120647619Y-101357380D01*
X124156191Y-106102142D02*
X124108572Y-106149761D01*
X123965715Y-106197380D01*
X123870477Y-106197380D01*
X123727619Y-106149761D01*
X123632381Y-106054523D01*
X123584762Y-105959285D01*
X123537143Y-105768809D01*
X123537143Y-105625951D01*
X123584762Y-105435475D01*
X123632381Y-105340237D01*
X123727619Y-105244999D01*
X123870477Y-105197380D01*
X123965715Y-105197380D01*
X124108572Y-105244999D01*
X124156191Y-105292618D01*
X124537143Y-105292618D02*
X124584762Y-105244999D01*
X124680000Y-105197380D01*
X124918096Y-105197380D01*
X125013334Y-105244999D01*
X125060953Y-105292618D01*
X125108572Y-105387856D01*
X125108572Y-105483094D01*
X125060953Y-105625951D01*
X124489524Y-106197380D01*
X125108572Y-106197380D01*
X126060953Y-106197380D02*
X125489524Y-106197380D01*
X125775238Y-106197380D02*
X125775238Y-105197380D01*
X125680000Y-105340237D01*
X125584762Y-105435475D01*
X125489524Y-105483094D01*
X119369525Y-105827142D02*
X119321906Y-105874761D01*
X119179049Y-105922380D01*
X119083811Y-105922380D01*
X118940953Y-105874761D01*
X118845715Y-105779523D01*
X118798096Y-105684285D01*
X118750477Y-105493809D01*
X118750477Y-105350951D01*
X118798096Y-105160475D01*
X118845715Y-105065237D01*
X118940953Y-104969999D01*
X119083811Y-104922380D01*
X119179049Y-104922380D01*
X119321906Y-104969999D01*
X119369525Y-105017618D01*
X119750477Y-105017618D02*
X119798096Y-104969999D01*
X119893334Y-104922380D01*
X120131430Y-104922380D01*
X120226668Y-104969999D01*
X120274287Y-105017618D01*
X120321906Y-105112856D01*
X120321906Y-105208094D01*
X120274287Y-105350951D01*
X119702858Y-105922380D01*
X120321906Y-105922380D01*
X120702858Y-105017618D02*
X120750477Y-104969999D01*
X120845715Y-104922380D01*
X121083811Y-104922380D01*
X121179049Y-104969999D01*
X121226668Y-105017618D01*
X121274287Y-105112856D01*
X121274287Y-105208094D01*
X121226668Y-105350951D01*
X120655239Y-105922380D01*
X121274287Y-105922380D01*
X137244525Y-107387142D02*
X137196906Y-107434761D01*
X137054049Y-107482380D01*
X136958811Y-107482380D01*
X136815953Y-107434761D01*
X136720715Y-107339523D01*
X136673096Y-107244285D01*
X136625477Y-107053809D01*
X136625477Y-106910951D01*
X136673096Y-106720475D01*
X136720715Y-106625237D01*
X136815953Y-106529999D01*
X136958811Y-106482380D01*
X137054049Y-106482380D01*
X137196906Y-106529999D01*
X137244525Y-106577618D01*
X137625477Y-106577618D02*
X137673096Y-106529999D01*
X137768334Y-106482380D01*
X138006430Y-106482380D01*
X138101668Y-106529999D01*
X138149287Y-106577618D01*
X138196906Y-106672856D01*
X138196906Y-106768094D01*
X138149287Y-106910951D01*
X137577858Y-107482380D01*
X138196906Y-107482380D01*
X138530239Y-106482380D02*
X139149287Y-106482380D01*
X138815953Y-106863332D01*
X138958811Y-106863332D01*
X139054049Y-106910951D01*
X139101668Y-106958570D01*
X139149287Y-107053809D01*
X139149287Y-107291904D01*
X139101668Y-107387142D01*
X139054049Y-107434761D01*
X138958811Y-107482380D01*
X138673096Y-107482380D01*
X138577858Y-107434761D01*
X138530239Y-107387142D01*
X162896191Y-106897142D02*
X162848572Y-106944761D01*
X162705715Y-106992380D01*
X162610477Y-106992380D01*
X162467619Y-106944761D01*
X162372381Y-106849523D01*
X162324762Y-106754285D01*
X162277143Y-106563809D01*
X162277143Y-106420951D01*
X162324762Y-106230475D01*
X162372381Y-106135237D01*
X162467619Y-106039999D01*
X162610477Y-105992380D01*
X162705715Y-105992380D01*
X162848572Y-106039999D01*
X162896191Y-106087618D01*
X163277143Y-106087618D02*
X163324762Y-106039999D01*
X163420000Y-105992380D01*
X163658096Y-105992380D01*
X163753334Y-106039999D01*
X163800953Y-106087618D01*
X163848572Y-106182856D01*
X163848572Y-106278094D01*
X163800953Y-106420951D01*
X163229524Y-106992380D01*
X163848572Y-106992380D01*
X164705715Y-106325713D02*
X164705715Y-106992380D01*
X164467619Y-105944761D02*
X164229524Y-106659047D01*
X164848572Y-106659047D01*
X140576191Y-111832142D02*
X140528572Y-111879761D01*
X140385715Y-111927380D01*
X140290477Y-111927380D01*
X140147619Y-111879761D01*
X140052381Y-111784523D01*
X140004762Y-111689285D01*
X139957143Y-111498809D01*
X139957143Y-111355951D01*
X140004762Y-111165475D01*
X140052381Y-111070237D01*
X140147619Y-110974999D01*
X140290477Y-110927380D01*
X140385715Y-110927380D01*
X140528572Y-110974999D01*
X140576191Y-111022618D01*
X140957143Y-111022618D02*
X141004762Y-110974999D01*
X141100000Y-110927380D01*
X141338096Y-110927380D01*
X141433334Y-110974999D01*
X141480953Y-111022618D01*
X141528572Y-111117856D01*
X141528572Y-111213094D01*
X141480953Y-111355951D01*
X140909524Y-111927380D01*
X141528572Y-111927380D01*
X142433334Y-110927380D02*
X141957143Y-110927380D01*
X141909524Y-111403570D01*
X141957143Y-111355951D01*
X142052381Y-111308332D01*
X142290477Y-111308332D01*
X142385715Y-111355951D01*
X142433334Y-111403570D01*
X142480953Y-111498809D01*
X142480953Y-111736904D01*
X142433334Y-111832142D01*
X142385715Y-111879761D01*
X142290477Y-111927380D01*
X142052381Y-111927380D01*
X141957143Y-111879761D01*
X141909524Y-111832142D01*
X128297142Y-104734999D02*
X128344761Y-104782618D01*
X128392380Y-104925475D01*
X128392380Y-105020713D01*
X128344761Y-105163571D01*
X128249523Y-105258809D01*
X128154285Y-105306428D01*
X127963809Y-105354047D01*
X127820951Y-105354047D01*
X127630475Y-105306428D01*
X127535237Y-105258809D01*
X127439999Y-105163571D01*
X127392380Y-105020713D01*
X127392380Y-104925475D01*
X127439999Y-104782618D01*
X127487618Y-104734999D01*
X127487618Y-104354047D02*
X127439999Y-104306428D01*
X127392380Y-104211190D01*
X127392380Y-103973094D01*
X127439999Y-103877856D01*
X127487618Y-103830237D01*
X127582856Y-103782618D01*
X127678094Y-103782618D01*
X127820951Y-103830237D01*
X128392380Y-104401666D01*
X128392380Y-103782618D01*
X127392380Y-102925475D02*
X127392380Y-103115952D01*
X127439999Y-103211190D01*
X127487618Y-103258809D01*
X127630475Y-103354047D01*
X127820951Y-103401666D01*
X128201904Y-103401666D01*
X128297142Y-103354047D01*
X128344761Y-103306428D01*
X128392380Y-103211190D01*
X128392380Y-103020713D01*
X128344761Y-102925475D01*
X128297142Y-102877856D01*
X128201904Y-102830237D01*
X127963809Y-102830237D01*
X127868570Y-102877856D01*
X127820951Y-102925475D01*
X127773332Y-103020713D01*
X127773332Y-103211190D01*
X127820951Y-103306428D01*
X127868570Y-103354047D01*
X127963809Y-103401666D01*
X127963096Y-112957380D02*
X127963096Y-111957380D01*
X128201191Y-111957380D01*
X128344049Y-112004999D01*
X128439287Y-112100237D01*
X128486906Y-112195475D01*
X128534525Y-112385951D01*
X128534525Y-112528809D01*
X128486906Y-112719285D01*
X128439287Y-112814523D01*
X128344049Y-112909761D01*
X128201191Y-112957380D01*
X127963096Y-112957380D01*
X129486906Y-112957380D02*
X128915477Y-112957380D01*
X129201191Y-112957380D02*
X129201191Y-111957380D01*
X129105953Y-112100237D01*
X129010715Y-112195475D01*
X128915477Y-112243094D01*
D15*
X129215477Y-111208570D02*
X129786906Y-111208570D01*
X129501192Y-111494285D02*
X129501192Y-110922856D01*
D14*
X153979526Y-111477380D02*
X153979526Y-112191666D01*
X153931906Y-112334523D01*
X153836668Y-112429761D01*
X153693811Y-112477380D01*
X153598573Y-112477380D01*
X154979526Y-112477380D02*
X154408097Y-112477380D01*
X154693811Y-112477380D02*
X154693811Y-111477380D01*
X154598573Y-111620237D01*
X154503335Y-111715475D01*
X154408097Y-111763094D01*
X109889526Y-125157380D02*
X109889526Y-125871666D01*
X109841906Y-126014523D01*
X109746668Y-126109761D01*
X109603811Y-126157380D01*
X109508573Y-126157380D01*
X110318097Y-125252618D02*
X110365716Y-125204999D01*
X110460954Y-125157380D01*
X110699050Y-125157380D01*
X110794288Y-125204999D01*
X110841907Y-125252618D01*
X110889526Y-125347856D01*
X110889526Y-125443094D01*
X110841907Y-125585951D01*
X110270478Y-126157380D01*
X110889526Y-126157380D01*
X135544526Y-111797380D02*
X135544526Y-112511666D01*
X135496906Y-112654523D01*
X135401668Y-112749761D01*
X135258811Y-112797380D01*
X135163573Y-112797380D01*
X135925478Y-111797380D02*
X136544526Y-111797380D01*
X136211192Y-112178332D01*
X136354050Y-112178332D01*
X136449288Y-112225951D01*
X136496907Y-112273570D01*
X136544526Y-112368809D01*
X136544526Y-112606904D01*
X136496907Y-112702142D01*
X136449288Y-112749761D01*
X136354050Y-112797380D01*
X136068335Y-112797380D01*
X135973097Y-112749761D01*
X135925478Y-112702142D01*
X123134526Y-108302380D02*
X123134526Y-109016666D01*
X123086906Y-109159523D01*
X122991668Y-109254761D01*
X122848811Y-109302380D01*
X122753573Y-109302380D01*
X124039288Y-108635713D02*
X124039288Y-109302380D01*
X123801192Y-108254761D02*
X123563097Y-108969047D01*
X124182145Y-108969047D01*
X115476308Y-123604882D02*
X115476308Y-124319168D01*
X115428688Y-124462025D01*
X115333450Y-124557263D01*
X115190593Y-124604882D01*
X115095355Y-124604882D01*
X116428689Y-123604882D02*
X115952498Y-123604882D01*
X115904879Y-124081072D01*
X115952498Y-124033453D01*
X116047736Y-123985834D01*
X116285832Y-123985834D01*
X116381070Y-124033453D01*
X116428689Y-124081072D01*
X116476308Y-124176311D01*
X116476308Y-124414406D01*
X116428689Y-124509644D01*
X116381070Y-124557263D01*
X116285832Y-124604882D01*
X116047736Y-124604882D01*
X115952498Y-124557263D01*
X115904879Y-124509644D01*
X147554526Y-108937380D02*
X147554526Y-109651666D01*
X147506906Y-109794523D01*
X147411668Y-109889761D01*
X147268811Y-109937380D01*
X147173573Y-109937380D01*
X148459288Y-108937380D02*
X148268811Y-108937380D01*
X148173573Y-108984999D01*
X148125954Y-109032618D01*
X148030716Y-109175475D01*
X147983097Y-109365951D01*
X147983097Y-109746904D01*
X148030716Y-109842142D01*
X148078335Y-109889761D01*
X148173573Y-109937380D01*
X148364050Y-109937380D01*
X148459288Y-109889761D01*
X148506907Y-109842142D01*
X148554526Y-109746904D01*
X148554526Y-109508809D01*
X148506907Y-109413570D01*
X148459288Y-109365951D01*
X148364050Y-109318332D01*
X148173573Y-109318332D01*
X148078335Y-109365951D01*
X148030716Y-109413570D01*
X147983097Y-109508809D01*
X109594526Y-114087380D02*
X109594526Y-114801666D01*
X109546906Y-114944523D01*
X109451668Y-115039761D01*
X109308811Y-115087380D01*
X109213573Y-115087380D01*
X109975478Y-114087380D02*
X110642145Y-114087380D01*
X110213573Y-115087380D01*
X154387380Y-126884999D02*
X153387380Y-126884999D01*
X153387380Y-126504046D01*
X153434999Y-126408808D01*
X153482618Y-126361189D01*
X153577856Y-126313570D01*
X153720713Y-126313570D01*
X153815951Y-126361189D01*
X153863570Y-126408808D01*
X153911189Y-126504046D01*
X153911189Y-126884999D01*
X153482618Y-125932618D02*
X153434999Y-125884999D01*
X153387380Y-125789761D01*
X153387380Y-125551665D01*
X153434999Y-125456427D01*
X153482618Y-125408808D01*
X153577856Y-125361189D01*
X153673094Y-125361189D01*
X153815951Y-125408808D01*
X154387380Y-125980237D01*
X154387380Y-125361189D01*
X110741190Y-109207382D02*
X110407856Y-108731191D01*
X110169761Y-109207382D02*
X110169761Y-108207382D01*
X110550714Y-108207382D01*
X110645952Y-108255001D01*
X110693571Y-108302620D01*
X110741190Y-108397858D01*
X110741190Y-108540715D01*
X110693571Y-108635953D01*
X110645952Y-108683572D01*
X110550714Y-108731191D01*
X110169761Y-108731191D01*
X111693571Y-109207382D02*
X111122142Y-109207382D01*
X111407856Y-109207382D02*
X111407856Y-108207382D01*
X111312618Y-108350239D01*
X111217380Y-108445477D01*
X111122142Y-108493096D01*
X110424763Y-110627380D02*
X110091429Y-110151189D01*
X109853334Y-110627380D02*
X109853334Y-109627380D01*
X110234287Y-109627380D01*
X110329525Y-109674999D01*
X110377144Y-109722618D01*
X110424763Y-109817856D01*
X110424763Y-109960713D01*
X110377144Y-110055951D01*
X110329525Y-110103570D01*
X110234287Y-110151189D01*
X109853334Y-110151189D01*
X110805715Y-109722618D02*
X110853334Y-109674999D01*
X110948572Y-109627380D01*
X111186668Y-109627380D01*
X111281906Y-109674999D01*
X111329525Y-109722618D01*
X111377144Y-109817856D01*
X111377144Y-109913094D01*
X111329525Y-110055951D01*
X110758096Y-110627380D01*
X111377144Y-110627380D01*
X130449882Y-115186310D02*
X129973691Y-115519644D01*
X130449882Y-115757739D02*
X129449882Y-115757739D01*
X129449882Y-115376786D01*
X129497501Y-115281548D01*
X129545120Y-115233929D01*
X129640358Y-115186310D01*
X129783215Y-115186310D01*
X129878453Y-115233929D01*
X129926072Y-115281548D01*
X129973691Y-115376786D01*
X129973691Y-115757739D01*
X129449882Y-114852977D02*
X129449882Y-114233929D01*
X129830834Y-114567263D01*
X129830834Y-114424405D01*
X129878453Y-114329167D01*
X129926072Y-114281548D01*
X130021311Y-114233929D01*
X130259406Y-114233929D01*
X130354644Y-114281548D01*
X130402263Y-114329167D01*
X130449882Y-114424405D01*
X130449882Y-114710120D01*
X130402263Y-114805358D01*
X130354644Y-114852977D01*
X118822380Y-122454522D02*
X118346189Y-122787856D01*
X118822380Y-123025951D02*
X117822380Y-123025951D01*
X117822380Y-122644998D01*
X117869999Y-122549760D01*
X117917618Y-122502141D01*
X118012856Y-122454522D01*
X118155713Y-122454522D01*
X118250951Y-122502141D01*
X118298570Y-122549760D01*
X118346189Y-122644998D01*
X118346189Y-123025951D01*
X118155713Y-121597379D02*
X118822380Y-121597379D01*
X117774761Y-121835475D02*
X118489047Y-122073570D01*
X118489047Y-121454522D01*
X133236190Y-110067382D02*
X132902856Y-109591191D01*
X132664761Y-110067382D02*
X132664761Y-109067382D01*
X133045714Y-109067382D01*
X133140952Y-109115001D01*
X133188571Y-109162620D01*
X133236190Y-109257858D01*
X133236190Y-109400715D01*
X133188571Y-109495953D01*
X133140952Y-109543572D01*
X133045714Y-109591191D01*
X132664761Y-109591191D01*
X134140952Y-109067382D02*
X133664761Y-109067382D01*
X133617142Y-109543572D01*
X133664761Y-109495953D01*
X133759999Y-109448334D01*
X133998095Y-109448334D01*
X134093333Y-109495953D01*
X134140952Y-109543572D01*
X134188571Y-109638811D01*
X134188571Y-109876906D01*
X134140952Y-109972144D01*
X134093333Y-110019763D01*
X133998095Y-110067382D01*
X133759999Y-110067382D01*
X133664761Y-110019763D01*
X133617142Y-109972144D01*
X158890478Y-106882380D02*
X158557144Y-106406189D01*
X158319049Y-106882380D02*
X158319049Y-105882380D01*
X158700002Y-105882380D01*
X158795240Y-105929999D01*
X158842859Y-105977618D01*
X158890478Y-106072856D01*
X158890478Y-106215713D01*
X158842859Y-106310951D01*
X158795240Y-106358570D01*
X158700002Y-106406189D01*
X158319049Y-106406189D01*
X159747621Y-105882380D02*
X159557144Y-105882380D01*
X159461906Y-105929999D01*
X159414287Y-105977618D01*
X159319049Y-106120475D01*
X159271430Y-106310951D01*
X159271430Y-106691904D01*
X159319049Y-106787142D01*
X159366668Y-106834761D01*
X159461906Y-106882380D01*
X159652383Y-106882380D01*
X159747621Y-106834761D01*
X159795240Y-106787142D01*
X159842859Y-106691904D01*
X159842859Y-106453809D01*
X159795240Y-106358570D01*
X159747621Y-106310951D01*
X159652383Y-106263332D01*
X159461906Y-106263332D01*
X159366668Y-106310951D01*
X159319049Y-106358570D01*
X159271430Y-106453809D01*
X153247382Y-122521668D02*
X152771191Y-122855002D01*
X153247382Y-123093097D02*
X152247382Y-123093097D01*
X152247382Y-122712144D01*
X152295001Y-122616906D01*
X152342620Y-122569287D01*
X152437858Y-122521668D01*
X152580715Y-122521668D01*
X152675953Y-122569287D01*
X152723572Y-122616906D01*
X152771191Y-122712144D01*
X152771191Y-123093097D01*
X152247382Y-122188335D02*
X152247382Y-121521668D01*
X153247382Y-121950240D01*
X153862382Y-129826668D02*
X153386191Y-130160002D01*
X153862382Y-130398097D02*
X152862382Y-130398097D01*
X152862382Y-130017144D01*
X152910001Y-129921906D01*
X152957620Y-129874287D01*
X153052858Y-129826668D01*
X153195715Y-129826668D01*
X153290953Y-129874287D01*
X153338572Y-129921906D01*
X153386191Y-130017144D01*
X153386191Y-130398097D01*
X153290953Y-129255240D02*
X153243334Y-129350478D01*
X153195715Y-129398097D01*
X153100477Y-129445716D01*
X153052858Y-129445716D01*
X152957620Y-129398097D01*
X152910001Y-129350478D01*
X152862382Y-129255240D01*
X152862382Y-129064763D01*
X152910001Y-128969525D01*
X152957620Y-128921906D01*
X153052858Y-128874287D01*
X153100477Y-128874287D01*
X153195715Y-128921906D01*
X153243334Y-128969525D01*
X153290953Y-129064763D01*
X153290953Y-129255240D01*
X153338572Y-129350478D01*
X153386191Y-129398097D01*
X153481430Y-129445716D01*
X153671906Y-129445716D01*
X153767144Y-129398097D01*
X153814763Y-129350478D01*
X153862382Y-129255240D01*
X153862382Y-129064763D01*
X153814763Y-128969525D01*
X153767144Y-128921906D01*
X153671906Y-128874287D01*
X153481430Y-128874287D01*
X153386191Y-128921906D01*
X153338572Y-128969525D01*
X153290953Y-129064763D01*
X161776906Y-101737380D02*
X161443572Y-101261189D01*
X161205477Y-101737380D02*
X161205477Y-100737380D01*
X161586430Y-100737380D01*
X161681668Y-100784999D01*
X161729287Y-100832618D01*
X161776906Y-100927856D01*
X161776906Y-101070713D01*
X161729287Y-101165951D01*
X161681668Y-101213570D01*
X161586430Y-101261189D01*
X161205477Y-101261189D01*
X162253096Y-101737380D02*
X162443572Y-101737380D01*
X162538811Y-101689761D01*
X162586430Y-101642142D01*
X162681668Y-101499285D01*
X162729287Y-101308809D01*
X162729287Y-100927856D01*
X162681668Y-100832618D01*
X162634049Y-100784999D01*
X162538811Y-100737380D01*
X162348334Y-100737380D01*
X162253096Y-100784999D01*
X162205477Y-100832618D01*
X162157858Y-100927856D01*
X162157858Y-101165951D01*
X162205477Y-101261189D01*
X162253096Y-101308809D01*
X162348334Y-101356428D01*
X162538811Y-101356428D01*
X162634049Y-101308809D01*
X162681668Y-101261189D01*
X162729287Y-101165951D01*
X156699525Y-101832380D02*
X156366191Y-101356189D01*
X156128096Y-101832380D02*
X156128096Y-100832380D01*
X156509049Y-100832380D01*
X156604287Y-100879999D01*
X156651906Y-100927618D01*
X156699525Y-101022856D01*
X156699525Y-101165713D01*
X156651906Y-101260951D01*
X156604287Y-101308570D01*
X156509049Y-101356189D01*
X156128096Y-101356189D01*
X157651906Y-101832380D02*
X157080477Y-101832380D01*
X157366191Y-101832380D02*
X157366191Y-100832380D01*
X157270953Y-100975237D01*
X157175715Y-101070475D01*
X157080477Y-101118094D01*
X158270953Y-100832380D02*
X158366192Y-100832380D01*
X158461430Y-100879999D01*
X158509049Y-100927618D01*
X158556668Y-101022856D01*
X158604287Y-101213332D01*
X158604287Y-101451428D01*
X158556668Y-101641904D01*
X158509049Y-101737142D01*
X158461430Y-101784761D01*
X158366192Y-101832380D01*
X158270953Y-101832380D01*
X158175715Y-101784761D01*
X158128096Y-101737142D01*
X158080477Y-101641904D01*
X158032858Y-101451428D01*
X158032858Y-101213332D01*
X158080477Y-101022856D01*
X158128096Y-100927618D01*
X158175715Y-100879999D01*
X158270953Y-100832380D01*
X128789880Y-135242975D02*
X128313689Y-135576309D01*
X128789880Y-135814404D02*
X127789880Y-135814404D01*
X127789880Y-135433451D01*
X127837499Y-135338213D01*
X127885118Y-135290594D01*
X127980356Y-135242975D01*
X128123213Y-135242975D01*
X128218451Y-135290594D01*
X128266070Y-135338213D01*
X128313689Y-135433451D01*
X128313689Y-135814404D01*
X128789880Y-134290594D02*
X128789880Y-134862023D01*
X128789880Y-134576309D02*
X127789880Y-134576309D01*
X127932737Y-134671547D01*
X128027975Y-134766785D01*
X128075594Y-134862023D01*
X128789880Y-133338213D02*
X128789880Y-133909642D01*
X128789880Y-133623928D02*
X127789880Y-133623928D01*
X127932737Y-133719166D01*
X128027975Y-133814404D01*
X128075594Y-133909642D01*
X123287261Y-140799882D02*
X122953927Y-140323691D01*
X122715832Y-140799882D02*
X122715832Y-139799882D01*
X123096785Y-139799882D01*
X123192023Y-139847501D01*
X123239642Y-139895120D01*
X123287261Y-139990358D01*
X123287261Y-140133215D01*
X123239642Y-140228453D01*
X123192023Y-140276072D01*
X123096785Y-140323691D01*
X122715832Y-140323691D01*
X124239642Y-140799882D02*
X123668213Y-140799882D01*
X123953927Y-140799882D02*
X123953927Y-139799882D01*
X123858689Y-139942739D01*
X123763451Y-140037977D01*
X123668213Y-140085596D01*
X124620594Y-139895120D02*
X124668213Y-139847501D01*
X124763451Y-139799882D01*
X125001547Y-139799882D01*
X125096785Y-139847501D01*
X125144404Y-139895120D01*
X125192023Y-139990358D01*
X125192023Y-140085596D01*
X125144404Y-140228453D01*
X124572975Y-140799882D01*
X125192023Y-140799882D01*
X158092380Y-133920475D02*
X157616189Y-134253809D01*
X158092380Y-134491904D02*
X157092380Y-134491904D01*
X157092380Y-134110951D01*
X157139999Y-134015713D01*
X157187618Y-133968094D01*
X157282856Y-133920475D01*
X157425713Y-133920475D01*
X157520951Y-133968094D01*
X157568570Y-134015713D01*
X157616189Y-134110951D01*
X157616189Y-134491904D01*
X158092380Y-132968094D02*
X158092380Y-133539523D01*
X158092380Y-133253809D02*
X157092380Y-133253809D01*
X157235237Y-133349047D01*
X157330475Y-133444285D01*
X157378094Y-133539523D01*
X157092380Y-132634761D02*
X157092380Y-132015713D01*
X157473332Y-132349047D01*
X157473332Y-132206189D01*
X157520951Y-132110951D01*
X157568570Y-132063332D01*
X157663809Y-132015713D01*
X157901904Y-132015713D01*
X157997142Y-132063332D01*
X158044761Y-132110951D01*
X158092380Y-132206189D01*
X158092380Y-132491904D01*
X158044761Y-132587142D01*
X157997142Y-132634761D01*
X154759525Y-132867380D02*
X154426191Y-132391189D01*
X154188096Y-132867380D02*
X154188096Y-131867380D01*
X154569049Y-131867380D01*
X154664287Y-131914999D01*
X154711906Y-131962618D01*
X154759525Y-132057856D01*
X154759525Y-132200713D01*
X154711906Y-132295951D01*
X154664287Y-132343570D01*
X154569049Y-132391189D01*
X154188096Y-132391189D01*
X155711906Y-132867380D02*
X155140477Y-132867380D01*
X155426191Y-132867380D02*
X155426191Y-131867380D01*
X155330953Y-132010237D01*
X155235715Y-132105475D01*
X155140477Y-132153094D01*
X156569049Y-132200713D02*
X156569049Y-132867380D01*
X156330953Y-131819761D02*
X156092858Y-132534047D01*
X156711906Y-132534047D01*
X162682380Y-133655475D02*
X162206189Y-133988809D01*
X162682380Y-134226904D02*
X161682380Y-134226904D01*
X161682380Y-133845951D01*
X161729999Y-133750713D01*
X161777618Y-133703094D01*
X161872856Y-133655475D01*
X162015713Y-133655475D01*
X162110951Y-133703094D01*
X162158570Y-133750713D01*
X162206189Y-133845951D01*
X162206189Y-134226904D01*
X162682380Y-132703094D02*
X162682380Y-133274523D01*
X162682380Y-132988809D02*
X161682380Y-132988809D01*
X161825237Y-133084047D01*
X161920475Y-133179285D01*
X161968094Y-133274523D01*
X161682380Y-131798332D02*
X161682380Y-132274523D01*
X162158570Y-132322142D01*
X162110951Y-132274523D01*
X162063332Y-132179285D01*
X162063332Y-131941189D01*
X162110951Y-131845951D01*
X162158570Y-131798332D01*
X162253809Y-131750713D01*
X162491904Y-131750713D01*
X162587142Y-131798332D01*
X162634761Y-131845951D01*
X162682380Y-131941189D01*
X162682380Y-132179285D01*
X162634761Y-132274523D01*
X162587142Y-132322142D01*
D15*
X153637261Y-101010832D02*
X153684880Y-100867975D01*
X153684880Y-100629879D01*
X153637261Y-100534641D01*
X153589642Y-100487022D01*
X153494404Y-100439403D01*
X153399166Y-100439403D01*
X153303928Y-100487022D01*
X153256309Y-100534641D01*
X153208689Y-100629879D01*
X153161070Y-100820356D01*
X153113451Y-100915594D01*
X153065832Y-100963213D01*
X152970594Y-101010832D01*
X152875356Y-101010832D01*
X152780118Y-100963213D01*
X152732499Y-100915594D01*
X152684880Y-100820356D01*
X152684880Y-100582260D01*
X152732499Y-100439403D01*
X152684880Y-100106070D02*
X153684880Y-99867975D01*
X152970594Y-99677498D01*
X153684880Y-99487022D01*
X152684880Y-99248927D01*
X153684880Y-98344165D02*
X153684880Y-98915594D01*
X153684880Y-98629880D02*
X152684880Y-98629880D01*
X152827737Y-98725118D01*
X152922975Y-98820356D01*
X152970594Y-98915594D01*
D14*
X163547977Y-110524880D02*
X163547977Y-111334404D01*
X163595596Y-111429642D01*
X163643215Y-111477261D01*
X163738453Y-111524880D01*
X163928930Y-111524880D01*
X164024168Y-111477261D01*
X164071787Y-111429642D01*
X164119406Y-111334404D01*
X164119406Y-110524880D01*
X165119406Y-111524880D02*
X164547977Y-111524880D01*
X164833691Y-111524880D02*
X164833691Y-110524880D01*
X164738453Y-110667737D01*
X164643215Y-110762975D01*
X164547977Y-110810594D01*
X135719524Y-118822380D02*
X135719524Y-119631904D01*
X135767143Y-119727142D01*
X135814762Y-119774761D01*
X135910000Y-119822380D01*
X136100477Y-119822380D01*
X136195715Y-119774761D01*
X136243334Y-119727142D01*
X136290953Y-119631904D01*
X136290953Y-118822380D01*
X136719524Y-118917618D02*
X136767143Y-118869999D01*
X136862381Y-118822380D01*
X137100477Y-118822380D01*
X137195715Y-118869999D01*
X137243334Y-118917618D01*
X137290953Y-119012856D01*
X137290953Y-119108094D01*
X137243334Y-119250951D01*
X136671905Y-119822380D01*
X137290953Y-119822380D01*
X137376786Y-129934880D02*
X137376786Y-130744404D01*
X137424405Y-130839642D01*
X137472024Y-130887261D01*
X137567262Y-130934880D01*
X137757739Y-130934880D01*
X137852977Y-130887261D01*
X137900596Y-130839642D01*
X137948215Y-130744404D01*
X137948215Y-129934880D01*
X138329167Y-129934880D02*
X138948215Y-129934880D01*
X138614881Y-130315832D01*
X138757739Y-130315832D01*
X138852977Y-130363451D01*
X138900596Y-130411070D01*
X138948215Y-130506309D01*
X138948215Y-130744404D01*
X138900596Y-130839642D01*
X138852977Y-130887261D01*
X138757739Y-130934880D01*
X138472024Y-130934880D01*
X138376786Y-130887261D01*
X138329167Y-130839642D01*
X112272380Y-135695714D02*
X113081904Y-135695714D01*
X113177142Y-135648095D01*
X113224761Y-135600476D01*
X113272380Y-135505238D01*
X113272380Y-135314761D01*
X113224761Y-135219523D01*
X113177142Y-135171904D01*
X113081904Y-135124285D01*
X112272380Y-135124285D01*
X112605713Y-134219523D02*
X113272380Y-134219523D01*
X112224761Y-134457619D02*
X112939047Y-134695714D01*
X112939047Y-134076666D01*
M02*
