G04 #@! TF.FileFunction,Copper,L2,Bot,Signal*
%FSLAX46Y46*%
G04 Gerber Fmt 4.6, Leading zero omitted, Abs format (unit mm)*
G04 Created by KiCad (PCBNEW 4.0.4-stable) date 11/20/17 17:19:46*
%MOMM*%
%LPD*%
G01*
G04 APERTURE LIST*
%ADD10C,0.100000*%
%ADD11R,1.700000X1.700000*%
%ADD12O,1.700000X1.700000*%
%ADD13R,1.800000X1.800000*%
%ADD14O,1.800000X1.800000*%
%ADD15C,0.600000*%
%ADD16C,0.250000*%
G04 APERTURE END LIST*
D10*
D11*
X116468359Y-96889499D03*
D12*
X116468359Y-99429499D03*
X116468359Y-101969499D03*
D11*
X114884200Y-129552700D03*
D12*
X117424200Y-129552700D03*
X119964200Y-129552700D03*
D11*
X149936200Y-138493500D03*
D12*
X149936200Y-135953500D03*
X149936200Y-133413500D03*
X149936200Y-130873500D03*
X149936200Y-128333500D03*
X149936200Y-125793500D03*
X149936200Y-123253500D03*
X149936200Y-120713500D03*
X149936200Y-118173500D03*
X149936200Y-115633500D03*
D11*
X164846000Y-136588500D03*
D12*
X162306000Y-136588500D03*
X159766000Y-136588500D03*
D11*
X116532859Y-107381999D03*
D12*
X116532859Y-109921999D03*
D11*
X127838200Y-138010900D03*
D12*
X127838200Y-135470900D03*
X127838200Y-132930900D03*
X127838200Y-130390900D03*
X127838200Y-127850900D03*
X127838200Y-125310900D03*
X127838200Y-122770900D03*
X127838200Y-120230900D03*
X127838200Y-117690900D03*
X127838200Y-115150900D03*
D11*
X136575800Y-111061500D03*
D13*
X120472200Y-119265700D03*
D14*
X117932200Y-119265700D03*
X115392200Y-119265700D03*
D15*
X153339800Y-118021100D03*
X153924000Y-113957100D03*
X152527000Y-125857000D03*
X155956000Y-128905000D03*
X162560000Y-128397000D03*
X157226000Y-113411000D03*
X160147000Y-113665000D03*
X129540000Y-101600000D03*
X136144000Y-101600000D03*
X149225000Y-109601000D03*
X143383000Y-107950000D03*
X122809000Y-116332000D03*
X126365000Y-100203000D03*
X172593000Y-113792000D03*
X172847000Y-109474000D03*
X161417000Y-109601000D03*
X159131000Y-109601000D03*
X155194000Y-109601000D03*
X153670000Y-109601000D03*
X130429000Y-103886000D03*
X123952000Y-103886000D03*
X151384000Y-110744000D03*
X145542000Y-110363000D03*
X148463000Y-104902000D03*
X133731000Y-104902000D03*
X120650000Y-102997000D03*
X157149800Y-131533900D03*
X155194000Y-131826000D03*
X154813000Y-101473000D03*
X156337000Y-101473000D03*
X156972000Y-129159000D03*
X156972000Y-126873000D03*
X156972000Y-124587000D03*
X141351000Y-126365000D03*
X161163000Y-105029000D03*
X161544000Y-113792000D03*
X161544000Y-116713000D03*
X160401000Y-117856000D03*
X160401000Y-122301000D03*
X158496000Y-124460000D03*
X124460000Y-110045500D03*
X124256800Y-108089700D03*
X121183400Y-106591100D03*
X168960800Y-98920300D03*
X166471600Y-109613700D03*
X168579800Y-109613700D03*
X170992800Y-109435900D03*
X170408600Y-104584500D03*
X165608000Y-110236000D03*
X166243000Y-114046000D03*
X168021000Y-128270000D03*
X166370000Y-133223000D03*
X127381000Y-106934000D03*
X164846000Y-105791000D03*
X123571000Y-97536000D03*
X125857000Y-97536000D03*
X158318200Y-93560900D03*
X161137600Y-121704100D03*
X170434000Y-127723900D03*
X172237400Y-128308100D03*
X158242000Y-109220000D03*
X162306000Y-115570000D03*
X162560000Y-117729000D03*
X161798000Y-119253000D03*
X168173400Y-116700300D03*
X171018200Y-105727500D03*
X157861000Y-102044500D03*
X155854400Y-97929700D03*
X157556200Y-96964500D03*
X158572200Y-94399100D03*
X162306000Y-107061000D03*
X151765000Y-105156000D03*
X168249600Y-117868700D03*
X162026600Y-100291900D03*
X154940000Y-94361000D03*
X152908000Y-94361000D03*
X151003000Y-101473000D03*
X145923000Y-102616000D03*
X144399000Y-104140000D03*
X119659400Y-97701100D03*
X170789600Y-93586300D03*
X170408600Y-125818900D03*
X165862000Y-124650500D03*
X163830000Y-124714000D03*
X163449000Y-132334000D03*
X164846000Y-132207000D03*
X166370000Y-132207000D03*
X169037000Y-105791000D03*
X166116000Y-104902000D03*
X164592000Y-103378000D03*
X133731000Y-103378000D03*
X170053000Y-105664000D03*
X145542000Y-104140000D03*
X139954000Y-123698000D03*
X135763000Y-119507000D03*
X156235400Y-123964700D03*
X140589000Y-125945900D03*
X130429000Y-110871000D03*
X157734000Y-133350000D03*
X135255000Y-129286000D03*
X138938000Y-123698000D03*
X136525000Y-121285000D03*
X142748000Y-110363000D03*
X120777000Y-110998000D03*
X123774200Y-130568700D03*
X123621800Y-127571500D03*
X145745200Y-123736100D03*
X154990800Y-124955300D03*
X139065000Y-127381000D03*
X154940000Y-120269000D03*
X138557000Y-125222000D03*
X130429000Y-105156000D03*
X123952000Y-105156000D03*
X148463000Y-106680000D03*
X133731000Y-106680000D03*
X155295600Y-117665500D03*
X160477200Y-134150100D03*
X153949400Y-136334500D03*
X143916400Y-129781300D03*
X148082000Y-114820700D03*
X129667000Y-119189500D03*
X157861000Y-114173000D03*
X160274000Y-116586000D03*
X162687000Y-124714000D03*
X160274000Y-123444000D03*
X129540000Y-103124000D03*
X124714000Y-97536000D03*
X162560000Y-105791000D03*
X157353000Y-105791000D03*
X145161000Y-108712000D03*
X146685000Y-113665000D03*
X147447000Y-115570000D03*
X162560000Y-121031000D03*
X136144000Y-102616000D03*
X148463000Y-101346000D03*
X156083000Y-97155000D03*
X168910000Y-103378000D03*
X139954000Y-105664000D03*
X147828000Y-105664000D03*
X149860000Y-101473000D03*
X154051000Y-97282000D03*
X158775400Y-133413500D03*
X153670000Y-132397500D03*
X160147000Y-132715000D03*
X161925000Y-132207000D03*
X144399000Y-110236000D03*
X152019000Y-116598700D03*
D16*
X153339800Y-114541300D02*
X153339800Y-118021100D01*
X153924000Y-113957100D02*
X153339800Y-114541300D01*
X149936200Y-125793500D02*
X149987000Y-125857000D01*
X149987000Y-125857000D02*
X152527000Y-125857000D01*
X155956000Y-128905000D02*
X156464000Y-128397000D01*
X156464000Y-128397000D02*
X162560000Y-128397000D01*
X157226000Y-113411000D02*
X157353000Y-113538000D01*
X157353000Y-113538000D02*
X158242000Y-113538000D01*
X158242000Y-113538000D02*
X158369000Y-113665000D01*
X158369000Y-113665000D02*
X160147000Y-113665000D01*
X136144000Y-101600000D02*
X129540000Y-101600000D01*
X149225000Y-109601000D02*
X147574000Y-107950000D01*
X147574000Y-107950000D02*
X143383000Y-107950000D01*
X122809000Y-116332000D02*
X122809000Y-116967000D01*
X122809000Y-116967000D02*
X120523000Y-119253000D01*
X120523000Y-119253000D02*
X120472200Y-119265700D01*
X126365000Y-100203000D02*
X125603000Y-99441000D01*
X125603000Y-99441000D02*
X116459000Y-99441000D01*
X116459000Y-99441000D02*
X116468359Y-99429499D01*
X172847000Y-113538000D02*
X172593000Y-113792000D01*
X172847000Y-109474000D02*
X172847000Y-113538000D01*
X161417000Y-109601000D02*
X159131000Y-109601000D01*
X155194000Y-109601000D02*
X153670000Y-109601000D01*
X130429000Y-103886000D02*
X123952000Y-103886000D01*
X151384000Y-110744000D02*
X151003000Y-110363000D01*
X151003000Y-110363000D02*
X145542000Y-110363000D01*
X148463000Y-104902000D02*
X133731000Y-104902000D01*
X120650000Y-102997000D02*
X119634000Y-101981000D01*
X119634000Y-101981000D02*
X116459000Y-101981000D01*
X116459000Y-101981000D02*
X116468359Y-101969499D01*
X157473650Y-131210050D02*
X157473650Y-130295650D01*
X157149800Y-131533900D02*
X157473650Y-131210050D01*
X155194000Y-131826000D02*
X151765000Y-128397000D01*
X151765000Y-128397000D02*
X149987000Y-128397000D01*
X149987000Y-128397000D02*
X149936200Y-128333500D01*
X154813000Y-101473000D02*
X156337000Y-101473000D01*
X156972000Y-129794000D02*
X157473650Y-130295650D01*
X156972000Y-129159000D02*
X156972000Y-129794000D01*
X156972000Y-124587000D02*
X156972000Y-126873000D01*
X141351000Y-126365000D02*
X141097000Y-126619000D01*
X141097000Y-126619000D02*
X126619000Y-126619000D01*
X126619000Y-126619000D02*
X124968000Y-128270000D01*
X124968000Y-128270000D02*
X118745000Y-128270000D01*
X118745000Y-128270000D02*
X117475000Y-129540000D01*
X117475000Y-129540000D02*
X117424200Y-129552700D01*
X161163000Y-105029000D02*
X161290000Y-105156000D01*
X161290000Y-105156000D02*
X165227000Y-105156000D01*
X165227000Y-105156000D02*
X165481000Y-105410000D01*
X165481000Y-105410000D02*
X165481000Y-109347000D01*
X165481000Y-109347000D02*
X164973000Y-109855000D01*
X164973000Y-109855000D02*
X164973000Y-110363000D01*
X164973000Y-110363000D02*
X161544000Y-113792000D01*
X161544000Y-116713000D02*
X160401000Y-117856000D01*
X160401000Y-122301000D02*
X159639000Y-123063000D01*
X159639000Y-123063000D02*
X159639000Y-123317000D01*
X159639000Y-123317000D02*
X158496000Y-124460000D01*
X124460000Y-110045500D02*
X124256800Y-109842300D01*
X124256800Y-109842300D02*
X124256800Y-108089700D01*
X121183400Y-106591100D02*
X119557800Y-104965500D01*
X119557800Y-104965500D02*
X114579400Y-104965500D01*
X114579400Y-104965500D02*
X113944400Y-104330500D01*
X113944400Y-104330500D02*
X113944400Y-95465900D01*
X113944400Y-95465900D02*
X115036600Y-94373700D01*
X115036600Y-94373700D02*
X128193800Y-94373700D01*
X128193800Y-94373700D02*
X132969000Y-99148900D01*
X132969000Y-99148900D02*
X145440400Y-99148900D01*
X145440400Y-99148900D02*
X152298400Y-92290900D01*
X152298400Y-92290900D02*
X170942000Y-92290900D01*
X170942000Y-92290900D02*
X171577000Y-92925900D01*
X171577000Y-92925900D02*
X171577000Y-96304100D01*
X171577000Y-96304100D02*
X168960800Y-98920300D01*
X168579800Y-109613700D02*
X166471600Y-109613700D01*
X171653200Y-108775500D02*
X170992800Y-109435900D01*
X171653200Y-105371900D02*
X171653200Y-108775500D01*
X171221400Y-104940100D02*
X171653200Y-105371900D01*
X170764200Y-104940100D02*
X171221400Y-104940100D01*
X170408600Y-104584500D02*
X170764200Y-104940100D01*
X165608000Y-110236000D02*
X165608000Y-113411000D01*
X165608000Y-113411000D02*
X166243000Y-114046000D01*
X168021000Y-128270000D02*
X168021000Y-131572000D01*
X168021000Y-131572000D02*
X166370000Y-133223000D01*
X127381000Y-106934000D02*
X127762000Y-107315000D01*
X127762000Y-107315000D02*
X147828000Y-107315000D01*
X147828000Y-107315000D02*
X147955000Y-107442000D01*
X147955000Y-107442000D02*
X148082000Y-107442000D01*
X148082000Y-107442000D02*
X148336000Y-107696000D01*
X148336000Y-107696000D02*
X162687000Y-107696000D01*
X162687000Y-107696000D02*
X164592000Y-105791000D01*
X164592000Y-105791000D02*
X164846000Y-105791000D01*
X123571000Y-97536000D02*
X124206000Y-96901000D01*
X124206000Y-96901000D02*
X125095000Y-96901000D01*
X125095000Y-96901000D02*
X125730000Y-97536000D01*
X125730000Y-97536000D02*
X125857000Y-97536000D01*
X174066200Y-105498900D02*
X174066200Y-105676700D01*
X158318200Y-93560900D02*
X158394400Y-93637100D01*
X158394400Y-93637100D02*
X162331400Y-93637100D01*
X162331400Y-93637100D02*
X173913800Y-105219500D01*
X173913800Y-105219500D02*
X173913800Y-105346500D01*
X173913800Y-105346500D02*
X174066200Y-105498900D01*
X164566600Y-121704100D02*
X161137600Y-121704100D01*
X164947600Y-122085100D02*
X164566600Y-121704100D01*
X164947600Y-124167900D02*
X164947600Y-122085100D01*
X164998400Y-124218700D02*
X164947600Y-124167900D01*
X164998400Y-125768100D02*
X164998400Y-124218700D01*
X165760400Y-126530100D02*
X164998400Y-125768100D01*
X169240200Y-126530100D02*
X165760400Y-126530100D01*
X170434000Y-127723900D02*
X169240200Y-126530100D01*
X172237400Y-125818900D02*
X172237400Y-128308100D01*
X175920400Y-122135900D02*
X172237400Y-125818900D01*
X175920400Y-107530900D02*
X175920400Y-122135900D01*
X174066200Y-105676700D02*
X175920400Y-107530900D01*
X158242000Y-109220000D02*
X158242000Y-110744000D01*
X158242000Y-110744000D02*
X160782000Y-113284000D01*
X160782000Y-113284000D02*
X160782000Y-114046000D01*
X160782000Y-114046000D02*
X162306000Y-115570000D01*
X162560000Y-117729000D02*
X162560000Y-118491000D01*
X162560000Y-118491000D02*
X161798000Y-119253000D01*
X168173400Y-116700300D02*
X168198800Y-116674900D01*
X168198800Y-116674900D02*
X168198800Y-115328700D01*
X168198800Y-115328700D02*
X170205400Y-113322100D01*
X170205400Y-113322100D02*
X170205400Y-106616500D01*
X170205400Y-106540300D02*
X170205400Y-106616500D01*
X171018200Y-105727500D02*
X170205400Y-106540300D01*
X157861000Y-101968300D02*
X157861000Y-102044500D01*
X156032200Y-100139500D02*
X157861000Y-101968300D01*
X156032200Y-98107500D02*
X156032200Y-100139500D01*
X155854400Y-97929700D02*
X156032200Y-98107500D01*
X157556200Y-95415100D02*
X157556200Y-96964500D01*
X158572200Y-94399100D02*
X157556200Y-95415100D01*
X162306000Y-107061000D02*
X161671000Y-106426000D01*
X161671000Y-106426000D02*
X156972000Y-106426000D01*
X156972000Y-106426000D02*
X155702000Y-105156000D01*
X155702000Y-105156000D02*
X151765000Y-105156000D01*
X172897800Y-117868700D02*
X168249600Y-117868700D01*
X174802800Y-115963700D02*
X172897800Y-117868700D01*
X174802800Y-107607100D02*
X174802800Y-115963700D01*
X168681400Y-101485700D02*
X174802800Y-107607100D01*
X163220400Y-101485700D02*
X168681400Y-101485700D01*
X162026600Y-100291900D02*
X163220400Y-101485700D01*
X154940000Y-94361000D02*
X152908000Y-94361000D01*
X151003000Y-101473000D02*
X149860000Y-102616000D01*
X149860000Y-102616000D02*
X145923000Y-102616000D01*
X144399000Y-104140000D02*
X144272000Y-104267000D01*
X144272000Y-104267000D02*
X133350000Y-104267000D01*
X133350000Y-104267000D02*
X131318000Y-106299000D01*
X131318000Y-106299000D02*
X127000000Y-106299000D01*
X127000000Y-106299000D02*
X125857000Y-107442000D01*
X125857000Y-107442000D02*
X116586000Y-107442000D01*
X116586000Y-107442000D02*
X116532859Y-107381999D01*
X119659400Y-97574100D02*
X119659400Y-97701100D01*
X122148600Y-95084900D02*
X119659400Y-97574100D01*
X127965200Y-95084900D02*
X122148600Y-95084900D01*
X129082800Y-96202500D02*
X127965200Y-95084900D01*
X129082800Y-98640900D02*
X129082800Y-96202500D01*
X130606800Y-100164900D02*
X129082800Y-98640900D01*
X145465800Y-100164900D02*
X130606800Y-100164900D01*
X152781000Y-92849700D02*
X145465800Y-100164900D01*
X170053000Y-92849700D02*
X152781000Y-92849700D01*
X170789600Y-93586300D02*
X170053000Y-92849700D01*
X169316400Y-124726700D02*
X170408600Y-125818900D01*
X165938200Y-124726700D02*
X169316400Y-124726700D01*
X165862000Y-124650500D02*
X165938200Y-124726700D01*
X163830000Y-124714000D02*
X163830000Y-131953000D01*
X163830000Y-131953000D02*
X163449000Y-132334000D01*
X164846000Y-132207000D02*
X166370000Y-132207000D01*
X169037000Y-105791000D02*
X168148000Y-104902000D01*
X168148000Y-104902000D02*
X166116000Y-104902000D01*
X164592000Y-103378000D02*
X133731000Y-103378000D01*
X170053000Y-105664000D02*
X168529000Y-104140000D01*
X168529000Y-104140000D02*
X145542000Y-104140000D01*
X139954000Y-123698000D02*
X135763000Y-119507000D01*
X156235400Y-123964700D02*
X155803600Y-123532900D01*
X155803600Y-123532900D02*
X151790400Y-123532900D01*
X151790400Y-123532900D02*
X150799800Y-124523500D01*
X150799800Y-124523500D02*
X148259800Y-124523500D01*
X148259800Y-124523500D02*
X147111298Y-125672002D01*
X147111298Y-125672002D02*
X140862898Y-125672002D01*
X140862898Y-125672002D02*
X140589000Y-125945900D01*
X136271000Y-110871000D02*
X130429000Y-110871000D01*
X157734000Y-133350000D02*
X156845000Y-132461000D01*
X156845000Y-132461000D02*
X154813000Y-132461000D01*
X154813000Y-132461000D02*
X151892000Y-129540000D01*
X151892000Y-129540000D02*
X148717000Y-129540000D01*
X148717000Y-129540000D02*
X148209000Y-129032000D01*
X148209000Y-129032000D02*
X143764000Y-129032000D01*
X143764000Y-129032000D02*
X143637000Y-129159000D01*
X143637000Y-129159000D02*
X143510000Y-129159000D01*
X143510000Y-129159000D02*
X143383000Y-129286000D01*
X143383000Y-129286000D02*
X135255000Y-129286000D01*
X138938000Y-123698000D02*
X136525000Y-121285000D01*
X136575800Y-111061500D02*
X136525000Y-111125000D01*
X136525000Y-111125000D02*
X136271000Y-110871000D01*
X136575800Y-111061500D02*
X136525000Y-111125000D01*
X136525000Y-111125000D02*
X137287000Y-110363000D01*
X137287000Y-110363000D02*
X142748000Y-110363000D01*
X149936200Y-130873500D02*
X149987000Y-130937000D01*
X149987000Y-130937000D02*
X155702000Y-136652000D01*
X155702000Y-136652000D02*
X159766000Y-136652000D01*
X159766000Y-136652000D02*
X159766000Y-136588500D01*
X116532859Y-109921999D02*
X116586000Y-109982000D01*
X116586000Y-109982000D02*
X117602000Y-110998000D01*
X117602000Y-110998000D02*
X120777000Y-110998000D01*
X126136400Y-132930900D02*
X127838200Y-132930900D01*
X123774200Y-130568700D02*
X126136400Y-132930900D01*
X123621800Y-125006100D02*
X123621800Y-127571500D01*
X124637800Y-123990100D02*
X123621800Y-125006100D01*
X129794000Y-123990100D02*
X124637800Y-123990100D01*
X130175000Y-124371100D02*
X129794000Y-123990100D01*
X145110200Y-124371100D02*
X130175000Y-124371100D01*
X145745200Y-123736100D02*
X145110200Y-124371100D01*
X152349200Y-127127000D02*
X152819100Y-127127000D01*
X152819100Y-127127000D02*
X154990800Y-124955300D01*
X152400000Y-127127000D02*
X152349200Y-127127000D01*
X152349200Y-127127000D02*
X148717000Y-127127000D01*
X148717000Y-127127000D02*
X148463000Y-127381000D01*
X148463000Y-127381000D02*
X139065000Y-127381000D01*
X154940000Y-120269000D02*
X153162000Y-122047000D01*
X153162000Y-122047000D02*
X148717000Y-122047000D01*
X148717000Y-122047000D02*
X145542000Y-125222000D01*
X145542000Y-125222000D02*
X138557000Y-125222000D01*
X130429000Y-105156000D02*
X123952000Y-105156000D01*
X148463000Y-106680000D02*
X133731000Y-106680000D01*
X157581600Y-119951500D02*
X155295600Y-117665500D01*
X165633400Y-119951500D02*
X157581600Y-119951500D01*
X171373800Y-125691900D02*
X165633400Y-119951500D01*
X171373800Y-133642100D02*
X171373800Y-125691900D01*
X170891200Y-134124700D02*
X171373800Y-133642100D01*
X160502600Y-134124700D02*
X170891200Y-134124700D01*
X160477200Y-134150100D02*
X160502600Y-134124700D01*
X153924000Y-136334500D02*
X153949400Y-136334500D01*
X152273000Y-134683500D02*
X153924000Y-136334500D01*
X148818600Y-134683500D02*
X152273000Y-134683500D01*
X143916400Y-129781300D02*
X148818600Y-134683500D01*
X131343400Y-114820700D02*
X148082000Y-114820700D01*
X129616200Y-116547900D02*
X131343400Y-114820700D01*
X129616200Y-119138700D02*
X129616200Y-116547900D01*
X129667000Y-119189500D02*
X129616200Y-119138700D01*
X157861000Y-114173000D02*
X160274000Y-116586000D01*
X161544000Y-124714000D02*
X162687000Y-124714000D01*
X160274000Y-123444000D02*
X161544000Y-124714000D01*
X129540000Y-103124000D02*
X129540000Y-102616000D01*
X129540000Y-102616000D02*
X128905000Y-101981000D01*
X128905000Y-101981000D02*
X128905000Y-101727000D01*
X128905000Y-101727000D02*
X124714000Y-97536000D01*
X162560000Y-105791000D02*
X157353000Y-105791000D01*
X145161000Y-108712000D02*
X144272000Y-109601000D01*
X144272000Y-109601000D02*
X144018000Y-109601000D01*
X144018000Y-109601000D02*
X143764000Y-109855000D01*
X143764000Y-109855000D02*
X143764000Y-110744000D01*
X143764000Y-110744000D02*
X146685000Y-113665000D01*
X147447000Y-115570000D02*
X148844000Y-116967000D01*
X148844000Y-116967000D02*
X151130000Y-116967000D01*
X151130000Y-116967000D02*
X153797000Y-119634000D01*
X153797000Y-119634000D02*
X156464000Y-119634000D01*
X156464000Y-119634000D02*
X157861000Y-121031000D01*
X157861000Y-121031000D02*
X162560000Y-121031000D01*
X136144000Y-102616000D02*
X137414000Y-101346000D01*
X137414000Y-101346000D02*
X148463000Y-101346000D01*
X156083000Y-97155000D02*
X161671000Y-102743000D01*
X161671000Y-102743000D02*
X164973000Y-102743000D01*
X164973000Y-102743000D02*
X165608000Y-103378000D01*
X165608000Y-103378000D02*
X168910000Y-103378000D01*
X139954000Y-105664000D02*
X147828000Y-105664000D01*
X149860000Y-101473000D02*
X154051000Y-97282000D01*
X158775400Y-133413500D02*
X156946600Y-135242300D01*
X156946600Y-135242300D02*
X155346400Y-135242300D01*
X155346400Y-135242300D02*
X153670000Y-133565900D01*
X153670000Y-133565900D02*
X153670000Y-132397500D01*
X160147000Y-132715000D02*
X160655000Y-132207000D01*
X160655000Y-132207000D02*
X161925000Y-132207000D01*
X151771350Y-116351050D02*
X151771350Y-115068350D01*
X144399000Y-110236000D02*
X148590000Y-114427000D01*
X148590000Y-114427000D02*
X151130000Y-114427000D01*
X151130000Y-114427000D02*
X151771350Y-115068350D01*
X152019000Y-116598700D02*
X151771350Y-116351050D01*
M02*
