G04 #@! TF.FileFunction,Legend,Top*
%FSLAX46Y46*%
G04 Gerber Fmt 4.6, Leading zero omitted, Abs format (unit mm)*
G04 Created by KiCad (PCBNEW 4.0.4-stable) date 11/20/17 17:19:46*
%MOMM*%
%LPD*%
G01*
G04 APERTURE LIST*
%ADD10C,0.100000*%
%ADD11C,0.200000*%
%ADD12C,0.120000*%
%ADD13C,0.150000*%
%ADD14C,0.050000*%
G04 APERTURE END LIST*
D10*
D11*
X111112524Y-141528643D02*
X111064905Y-141576262D01*
X110922048Y-141623881D01*
X110826810Y-141623881D01*
X110683952Y-141576262D01*
X110588714Y-141481024D01*
X110541095Y-141385786D01*
X110493476Y-141195310D01*
X110493476Y-141052452D01*
X110541095Y-140861976D01*
X110588714Y-140766738D01*
X110683952Y-140671500D01*
X110826810Y-140623881D01*
X110922048Y-140623881D01*
X111064905Y-140671500D01*
X111112524Y-140719119D01*
X111541095Y-141623881D02*
X111541095Y-140957214D01*
X111541095Y-140623881D02*
X111493476Y-140671500D01*
X111541095Y-140719119D01*
X111588714Y-140671500D01*
X111541095Y-140623881D01*
X111541095Y-140719119D01*
X112017285Y-141623881D02*
X112017285Y-140957214D01*
X112017285Y-141147690D02*
X112064904Y-141052452D01*
X112112523Y-141004833D01*
X112207761Y-140957214D01*
X112303000Y-140957214D01*
X113064905Y-141576262D02*
X112969667Y-141623881D01*
X112779190Y-141623881D01*
X112683952Y-141576262D01*
X112636333Y-141528643D01*
X112588714Y-141433405D01*
X112588714Y-141147690D01*
X112636333Y-141052452D01*
X112683952Y-141004833D01*
X112779190Y-140957214D01*
X112969667Y-140957214D01*
X113064905Y-141004833D01*
X113922048Y-140957214D02*
X113922048Y-141623881D01*
X113493476Y-140957214D02*
X113493476Y-141481024D01*
X113541095Y-141576262D01*
X113636333Y-141623881D01*
X113779191Y-141623881D01*
X113874429Y-141576262D01*
X113922048Y-141528643D01*
X114398238Y-141623881D02*
X114398238Y-140957214D01*
X114398238Y-140623881D02*
X114350619Y-140671500D01*
X114398238Y-140719119D01*
X114445857Y-140671500D01*
X114398238Y-140623881D01*
X114398238Y-140719119D01*
X114731571Y-140957214D02*
X115112523Y-140957214D01*
X114874428Y-140623881D02*
X114874428Y-141481024D01*
X114922047Y-141576262D01*
X115017285Y-141623881D01*
X115112523Y-141623881D01*
X116207762Y-141623881D02*
X116207762Y-140623881D01*
X116445857Y-140623881D01*
X116588715Y-140671500D01*
X116683953Y-140766738D01*
X116731572Y-140861976D01*
X116779191Y-141052452D01*
X116779191Y-141195310D01*
X116731572Y-141385786D01*
X116683953Y-141481024D01*
X116588715Y-141576262D01*
X116445857Y-141623881D01*
X116207762Y-141623881D01*
X117588715Y-141576262D02*
X117493477Y-141623881D01*
X117303000Y-141623881D01*
X117207762Y-141576262D01*
X117160143Y-141481024D01*
X117160143Y-141100071D01*
X117207762Y-141004833D01*
X117303000Y-140957214D01*
X117493477Y-140957214D01*
X117588715Y-141004833D01*
X117636334Y-141100071D01*
X117636334Y-141195310D01*
X117160143Y-141290548D01*
X118017286Y-141576262D02*
X118112524Y-141623881D01*
X118303000Y-141623881D01*
X118398239Y-141576262D01*
X118445858Y-141481024D01*
X118445858Y-141433405D01*
X118398239Y-141338167D01*
X118303000Y-141290548D01*
X118160143Y-141290548D01*
X118064905Y-141242929D01*
X118017286Y-141147690D01*
X118017286Y-141100071D01*
X118064905Y-141004833D01*
X118160143Y-140957214D01*
X118303000Y-140957214D01*
X118398239Y-141004833D01*
X118874429Y-141623881D02*
X118874429Y-140957214D01*
X118874429Y-140623881D02*
X118826810Y-140671500D01*
X118874429Y-140719119D01*
X118922048Y-140671500D01*
X118874429Y-140623881D01*
X118874429Y-140719119D01*
X119779191Y-140957214D02*
X119779191Y-141766738D01*
X119731572Y-141861976D01*
X119683953Y-141909595D01*
X119588714Y-141957214D01*
X119445857Y-141957214D01*
X119350619Y-141909595D01*
X119779191Y-141576262D02*
X119683953Y-141623881D01*
X119493476Y-141623881D01*
X119398238Y-141576262D01*
X119350619Y-141528643D01*
X119303000Y-141433405D01*
X119303000Y-141147690D01*
X119350619Y-141052452D01*
X119398238Y-141004833D01*
X119493476Y-140957214D01*
X119683953Y-140957214D01*
X119779191Y-141004833D01*
X120255381Y-140957214D02*
X120255381Y-141623881D01*
X120255381Y-141052452D02*
X120303000Y-141004833D01*
X120398238Y-140957214D01*
X120541096Y-140957214D01*
X120636334Y-141004833D01*
X120683953Y-141100071D01*
X120683953Y-141623881D01*
X121922048Y-141623881D02*
X121922048Y-140623881D01*
X121922048Y-141004833D02*
X122017286Y-140957214D01*
X122207763Y-140957214D01*
X122303001Y-141004833D01*
X122350620Y-141052452D01*
X122398239Y-141147690D01*
X122398239Y-141433405D01*
X122350620Y-141528643D01*
X122303001Y-141576262D01*
X122207763Y-141623881D01*
X122017286Y-141623881D01*
X121922048Y-141576262D01*
X122731572Y-140957214D02*
X122969667Y-141623881D01*
X123207763Y-140957214D02*
X122969667Y-141623881D01*
X122874429Y-141861976D01*
X122826810Y-141909595D01*
X122731572Y-141957214D01*
X124826811Y-141623881D02*
X124350620Y-141623881D01*
X124350620Y-140623881D01*
X125303001Y-141623881D02*
X125207763Y-141576262D01*
X125160144Y-141528643D01*
X125112525Y-141433405D01*
X125112525Y-141147690D01*
X125160144Y-141052452D01*
X125207763Y-141004833D01*
X125303001Y-140957214D01*
X125445859Y-140957214D01*
X125541097Y-141004833D01*
X125588716Y-141052452D01*
X125636335Y-141147690D01*
X125636335Y-141433405D01*
X125588716Y-141528643D01*
X125541097Y-141576262D01*
X125445859Y-141623881D01*
X125303001Y-141623881D01*
X126064906Y-140957214D02*
X126064906Y-141623881D01*
X126064906Y-141052452D02*
X126112525Y-141004833D01*
X126207763Y-140957214D01*
X126350621Y-140957214D01*
X126445859Y-141004833D01*
X126493478Y-141100071D01*
X126493478Y-141623881D01*
X126969668Y-140957214D02*
X126969668Y-141623881D01*
X126969668Y-141052452D02*
X127017287Y-141004833D01*
X127112525Y-140957214D01*
X127255383Y-140957214D01*
X127350621Y-141004833D01*
X127398240Y-141100071D01*
X127398240Y-141623881D01*
X127874430Y-141623881D02*
X127874430Y-140957214D01*
X127874430Y-140623881D02*
X127826811Y-140671500D01*
X127874430Y-140719119D01*
X127922049Y-140671500D01*
X127874430Y-140623881D01*
X127874430Y-140719119D01*
X128731573Y-141576262D02*
X128636335Y-141623881D01*
X128445858Y-141623881D01*
X128350620Y-141576262D01*
X128303001Y-141481024D01*
X128303001Y-141100071D01*
X128350620Y-141004833D01*
X128445858Y-140957214D01*
X128636335Y-140957214D01*
X128731573Y-141004833D01*
X128779192Y-141100071D01*
X128779192Y-141195310D01*
X128303001Y-141290548D01*
X129922049Y-141576262D02*
X130064906Y-141623881D01*
X130303002Y-141623881D01*
X130398240Y-141576262D01*
X130445859Y-141528643D01*
X130493478Y-141433405D01*
X130493478Y-141338167D01*
X130445859Y-141242929D01*
X130398240Y-141195310D01*
X130303002Y-141147690D01*
X130112525Y-141100071D01*
X130017287Y-141052452D01*
X129969668Y-141004833D01*
X129922049Y-140909595D01*
X129922049Y-140814357D01*
X129969668Y-140719119D01*
X130017287Y-140671500D01*
X130112525Y-140623881D01*
X130350621Y-140623881D01*
X130493478Y-140671500D01*
X131064906Y-141623881D02*
X130969668Y-141576262D01*
X130922049Y-141528643D01*
X130874430Y-141433405D01*
X130874430Y-141147690D01*
X130922049Y-141052452D01*
X130969668Y-141004833D01*
X131064906Y-140957214D01*
X131207764Y-140957214D01*
X131303002Y-141004833D01*
X131350621Y-141052452D01*
X131398240Y-141147690D01*
X131398240Y-141433405D01*
X131350621Y-141528643D01*
X131303002Y-141576262D01*
X131207764Y-141623881D01*
X131064906Y-141623881D01*
X132255383Y-140957214D02*
X132255383Y-141623881D01*
X131826811Y-140957214D02*
X131826811Y-141481024D01*
X131874430Y-141576262D01*
X131969668Y-141623881D01*
X132112526Y-141623881D01*
X132207764Y-141576262D01*
X132255383Y-141528643D01*
X133160145Y-141623881D02*
X133160145Y-140623881D01*
X133160145Y-141576262D02*
X133064907Y-141623881D01*
X132874430Y-141623881D01*
X132779192Y-141576262D01*
X132731573Y-141528643D01*
X132683954Y-141433405D01*
X132683954Y-141147690D01*
X132731573Y-141052452D01*
X132779192Y-141004833D01*
X132874430Y-140957214D01*
X133064907Y-140957214D01*
X133160145Y-141004833D01*
X134017288Y-141576262D02*
X133922050Y-141623881D01*
X133731573Y-141623881D01*
X133636335Y-141576262D01*
X133588716Y-141481024D01*
X133588716Y-141100071D01*
X133636335Y-141004833D01*
X133731573Y-140957214D01*
X133922050Y-140957214D01*
X134017288Y-141004833D01*
X134064907Y-141100071D01*
X134064907Y-141195310D01*
X133588716Y-141290548D01*
X134493478Y-141623881D02*
X134493478Y-140957214D01*
X134493478Y-141147690D02*
X134541097Y-141052452D01*
X134588716Y-141004833D01*
X134683954Y-140957214D01*
X134779193Y-140957214D01*
X135874431Y-141623881D02*
X135874431Y-140623881D01*
X136350621Y-141623881D02*
X136350621Y-140623881D01*
X111017286Y-143323881D02*
X110541095Y-143323881D01*
X110541095Y-142323881D01*
X111779191Y-143323881D02*
X111779191Y-142800071D01*
X111731572Y-142704833D01*
X111636334Y-142657214D01*
X111445857Y-142657214D01*
X111350619Y-142704833D01*
X111779191Y-143276262D02*
X111683953Y-143323881D01*
X111445857Y-143323881D01*
X111350619Y-143276262D01*
X111303000Y-143181024D01*
X111303000Y-143085786D01*
X111350619Y-142990548D01*
X111445857Y-142942929D01*
X111683953Y-142942929D01*
X111779191Y-142895310D01*
X112160143Y-142657214D02*
X112398238Y-143323881D01*
X112636334Y-142657214D02*
X112398238Y-143323881D01*
X112303000Y-143561976D01*
X112255381Y-143609595D01*
X112160143Y-143657214D01*
X113160143Y-143323881D02*
X113064905Y-143276262D01*
X113017286Y-143228643D01*
X112969667Y-143133405D01*
X112969667Y-142847690D01*
X113017286Y-142752452D01*
X113064905Y-142704833D01*
X113160143Y-142657214D01*
X113303001Y-142657214D01*
X113398239Y-142704833D01*
X113445858Y-142752452D01*
X113493477Y-142847690D01*
X113493477Y-143133405D01*
X113445858Y-143228643D01*
X113398239Y-143276262D01*
X113303001Y-143323881D01*
X113160143Y-143323881D01*
X114350620Y-142657214D02*
X114350620Y-143323881D01*
X113922048Y-142657214D02*
X113922048Y-143181024D01*
X113969667Y-143276262D01*
X114064905Y-143323881D01*
X114207763Y-143323881D01*
X114303001Y-143276262D01*
X114350620Y-143228643D01*
X114683953Y-142657214D02*
X115064905Y-142657214D01*
X114826810Y-142323881D02*
X114826810Y-143181024D01*
X114874429Y-143276262D01*
X114969667Y-143323881D01*
X115064905Y-143323881D01*
X116160144Y-143323881D02*
X116160144Y-142323881D01*
X116160144Y-142704833D02*
X116255382Y-142657214D01*
X116445859Y-142657214D01*
X116541097Y-142704833D01*
X116588716Y-142752452D01*
X116636335Y-142847690D01*
X116636335Y-143133405D01*
X116588716Y-143228643D01*
X116541097Y-143276262D01*
X116445859Y-143323881D01*
X116255382Y-143323881D01*
X116160144Y-143276262D01*
X116969668Y-142657214D02*
X117207763Y-143323881D01*
X117445859Y-142657214D02*
X117207763Y-143323881D01*
X117112525Y-143561976D01*
X117064906Y-143609595D01*
X116969668Y-143657214D01*
X119160145Y-143228643D02*
X119112526Y-143276262D01*
X118969669Y-143323881D01*
X118874431Y-143323881D01*
X118731573Y-143276262D01*
X118636335Y-143181024D01*
X118588716Y-143085786D01*
X118541097Y-142895310D01*
X118541097Y-142752452D01*
X118588716Y-142561976D01*
X118636335Y-142466738D01*
X118731573Y-142371500D01*
X118874431Y-142323881D01*
X118969669Y-142323881D01*
X119112526Y-142371500D01*
X119160145Y-142419119D01*
X119588716Y-143323881D02*
X119588716Y-142323881D01*
X120017288Y-143323881D02*
X120017288Y-142800071D01*
X119969669Y-142704833D01*
X119874431Y-142657214D01*
X119731573Y-142657214D01*
X119636335Y-142704833D01*
X119588716Y-142752452D01*
X120493478Y-143323881D02*
X120493478Y-142657214D01*
X120493478Y-142847690D02*
X120541097Y-142752452D01*
X120588716Y-142704833D01*
X120683954Y-142657214D01*
X120779193Y-142657214D01*
X121112526Y-143323881D02*
X121112526Y-142657214D01*
X121112526Y-142323881D02*
X121064907Y-142371500D01*
X121112526Y-142419119D01*
X121160145Y-142371500D01*
X121112526Y-142323881D01*
X121112526Y-142419119D01*
X121541097Y-143276262D02*
X121636335Y-143323881D01*
X121826811Y-143323881D01*
X121922050Y-143276262D01*
X121969669Y-143181024D01*
X121969669Y-143133405D01*
X121922050Y-143038167D01*
X121826811Y-142990548D01*
X121683954Y-142990548D01*
X121588716Y-142942929D01*
X121541097Y-142847690D01*
X121541097Y-142800071D01*
X121588716Y-142704833D01*
X121683954Y-142657214D01*
X121826811Y-142657214D01*
X121922050Y-142704833D01*
X123160145Y-143323881D02*
X123160145Y-142323881D01*
X123398240Y-142323881D01*
X123541098Y-142371500D01*
X123636336Y-142466738D01*
X123683955Y-142561976D01*
X123731574Y-142752452D01*
X123731574Y-142895310D01*
X123683955Y-143085786D01*
X123636336Y-143181024D01*
X123541098Y-143276262D01*
X123398240Y-143323881D01*
X123160145Y-143323881D01*
X124160145Y-143323881D02*
X124160145Y-142657214D01*
X124160145Y-142323881D02*
X124112526Y-142371500D01*
X124160145Y-142419119D01*
X124207764Y-142371500D01*
X124160145Y-142323881D01*
X124160145Y-142419119D01*
X125017288Y-143276262D02*
X124922050Y-143323881D01*
X124731573Y-143323881D01*
X124636335Y-143276262D01*
X124588716Y-143181024D01*
X124588716Y-142800071D01*
X124636335Y-142704833D01*
X124731573Y-142657214D01*
X124922050Y-142657214D01*
X125017288Y-142704833D01*
X125064907Y-142800071D01*
X125064907Y-142895310D01*
X124588716Y-142990548D01*
X125350621Y-142657214D02*
X125731573Y-142657214D01*
X125493478Y-142323881D02*
X125493478Y-143181024D01*
X125541097Y-143276262D01*
X125636335Y-143323881D01*
X125731573Y-143323881D01*
X126017288Y-143276262D02*
X126112526Y-143323881D01*
X126303002Y-143323881D01*
X126398241Y-143276262D01*
X126445860Y-143181024D01*
X126445860Y-143133405D01*
X126398241Y-143038167D01*
X126303002Y-142990548D01*
X126160145Y-142990548D01*
X126064907Y-142942929D01*
X126017288Y-142847690D01*
X126017288Y-142800071D01*
X126064907Y-142704833D01*
X126160145Y-142657214D01*
X126303002Y-142657214D01*
X126398241Y-142704833D01*
X127303003Y-143276262D02*
X127207765Y-143323881D01*
X127017288Y-143323881D01*
X126922050Y-143276262D01*
X126874431Y-143228643D01*
X126826812Y-143133405D01*
X126826812Y-142847690D01*
X126874431Y-142752452D01*
X126922050Y-142704833D01*
X127017288Y-142657214D01*
X127207765Y-142657214D01*
X127303003Y-142704833D01*
X127731574Y-143323881D02*
X127731574Y-142323881D01*
X128160146Y-143323881D02*
X128160146Y-142800071D01*
X128112527Y-142704833D01*
X128017289Y-142657214D01*
X127874431Y-142657214D01*
X127779193Y-142704833D01*
X127731574Y-142752452D01*
D12*
X163674500Y-112110000D02*
X163674500Y-111410000D01*
X164874500Y-111410000D02*
X164874500Y-112110000D01*
X157826000Y-99027500D02*
X157826000Y-99727500D01*
X156626000Y-99727500D02*
X156626000Y-99027500D01*
X155275800Y-132711900D02*
X155975800Y-132711900D01*
X155975800Y-133911900D02*
X155275800Y-133911900D01*
X118129800Y-125352100D02*
X117429800Y-125352100D01*
X117429800Y-124152100D02*
X118129800Y-124152100D01*
X160048500Y-99027500D02*
X160048500Y-99727500D01*
X158848500Y-99727500D02*
X158848500Y-99027500D01*
X165566800Y-108058700D02*
X165566800Y-107358700D01*
X166766800Y-107358700D02*
X166766800Y-108058700D01*
X168627500Y-112046500D02*
X168627500Y-111346500D01*
X169827500Y-111346500D02*
X169827500Y-112046500D01*
X123906800Y-95602500D02*
X124606800Y-95602500D01*
X124606800Y-96802500D02*
X123906800Y-96802500D01*
X166468500Y-112046500D02*
X166468500Y-111346500D01*
X167668500Y-111346500D02*
X167668500Y-112046500D01*
X155326600Y-129892500D02*
X156026600Y-129892500D01*
X156026600Y-131092500D02*
X155326600Y-131092500D01*
X160065200Y-108359500D02*
X159365200Y-108359500D01*
X159365200Y-107159500D02*
X160065200Y-107159500D01*
X155381250Y-99059250D02*
X155381250Y-99759250D01*
X154181250Y-99759250D02*
X154181250Y-99059250D01*
X160753500Y-112046500D02*
X160753500Y-111346500D01*
X161953500Y-111346500D02*
X161953500Y-112046500D01*
X152181000Y-112046500D02*
X152181000Y-111346500D01*
X153381000Y-111346500D02*
X153381000Y-112046500D01*
X152623000Y-96358000D02*
X151923000Y-96358000D01*
X151923000Y-95158000D02*
X152623000Y-95158000D01*
X151419000Y-99727500D02*
X151419000Y-99027500D01*
X152619000Y-99027500D02*
X152619000Y-99727500D01*
X122752600Y-109629500D02*
X122052600Y-109629500D01*
X122052600Y-108429500D02*
X122752600Y-108429500D01*
X157959500Y-112110000D02*
X157959500Y-111410000D01*
X159159500Y-111410000D02*
X159159500Y-112110000D01*
X172945500Y-111983000D02*
X172945500Y-111283000D01*
X174145500Y-111283000D02*
X174145500Y-111983000D01*
X170875400Y-108109500D02*
X170875400Y-107409500D01*
X172075400Y-107409500D02*
X172075400Y-108109500D01*
X154721000Y-112046500D02*
X154721000Y-111346500D01*
X155921000Y-111346500D02*
X155921000Y-112046500D01*
X171040500Y-112046500D02*
X171040500Y-111346500D01*
X172240500Y-111346500D02*
X172240500Y-112046500D01*
X125964200Y-108327900D02*
X126664200Y-108327900D01*
X126664200Y-109527900D02*
X125964200Y-109527900D01*
X115138359Y-103299499D02*
X117798359Y-103299499D01*
X115138359Y-98159499D02*
X115138359Y-103299499D01*
X117798359Y-98159499D02*
X117798359Y-103299499D01*
X115138359Y-98159499D02*
X117798359Y-98159499D01*
X115138359Y-96889499D02*
X115138359Y-95559499D01*
X115138359Y-95559499D02*
X116468359Y-95559499D01*
X121294200Y-130882700D02*
X121294200Y-128222700D01*
X116154200Y-130882700D02*
X121294200Y-130882700D01*
X116154200Y-128222700D02*
X121294200Y-128222700D01*
X116154200Y-130882700D02*
X116154200Y-128222700D01*
X114884200Y-130882700D02*
X113554200Y-130882700D01*
X113554200Y-130882700D02*
X113554200Y-129552700D01*
X151266200Y-114303500D02*
X148606200Y-114303500D01*
X151266200Y-137223500D02*
X151266200Y-114303500D01*
X148606200Y-137223500D02*
X148606200Y-114303500D01*
X151266200Y-137223500D02*
X148606200Y-137223500D01*
X151266200Y-138493500D02*
X151266200Y-139823500D01*
X151266200Y-139823500D02*
X149936200Y-139823500D01*
X158436000Y-135258500D02*
X158436000Y-137918500D01*
X163576000Y-135258500D02*
X158436000Y-135258500D01*
X163576000Y-137918500D02*
X158436000Y-137918500D01*
X163576000Y-135258500D02*
X163576000Y-137918500D01*
X164846000Y-135258500D02*
X166176000Y-135258500D01*
X166176000Y-135258500D02*
X166176000Y-136588500D01*
X115202859Y-111251999D02*
X117862859Y-111251999D01*
X115202859Y-108651999D02*
X115202859Y-111251999D01*
X117862859Y-108651999D02*
X117862859Y-111251999D01*
X115202859Y-108651999D02*
X117862859Y-108651999D01*
X115202859Y-107381999D02*
X115202859Y-106051999D01*
X115202859Y-106051999D02*
X116532859Y-106051999D01*
X129168200Y-113820900D02*
X126508200Y-113820900D01*
X129168200Y-136740900D02*
X129168200Y-113820900D01*
X126508200Y-136740900D02*
X126508200Y-113820900D01*
X129168200Y-136740900D02*
X126508200Y-136740900D01*
X129168200Y-138010900D02*
X129168200Y-139340900D01*
X129168200Y-139340900D02*
X127838200Y-139340900D01*
X135245800Y-112391500D02*
X137905800Y-112391500D01*
X135245800Y-112331500D02*
X135245800Y-112391500D01*
X137905800Y-112331500D02*
X137905800Y-112391500D01*
X135245800Y-112331500D02*
X137905800Y-112331500D01*
X135245800Y-111061500D02*
X135245800Y-109731500D01*
X135245800Y-109731500D02*
X136575800Y-109731500D01*
D13*
X159343000Y-116559700D02*
X159218000Y-116559700D01*
X159343000Y-121209700D02*
X159118000Y-121209700D01*
X154093000Y-121209700D02*
X154318000Y-121209700D01*
X154093000Y-116559700D02*
X154318000Y-116559700D01*
X159343000Y-116559700D02*
X159343000Y-121209700D01*
X154093000Y-116559700D02*
X154093000Y-121209700D01*
X159218000Y-116559700D02*
X159218000Y-115209700D01*
D12*
X161104200Y-104299300D02*
X160104200Y-104299300D01*
X160104200Y-102939300D02*
X161104200Y-102939300D01*
X159201400Y-126258700D02*
X159201400Y-127258700D01*
X157841400Y-127258700D02*
X157841400Y-126258700D01*
X123207400Y-112757500D02*
X122207400Y-112757500D01*
X122207400Y-111397500D02*
X123207400Y-111397500D01*
X126915800Y-112757500D02*
X125915800Y-112757500D01*
X125915800Y-111397500D02*
X126915800Y-111397500D01*
X168814200Y-130713100D02*
X168814200Y-129713100D01*
X170174200Y-129713100D02*
X170174200Y-130713100D01*
X166364200Y-129763900D02*
X166364200Y-130763900D01*
X165004200Y-130763900D02*
X165004200Y-129763900D01*
X123909200Y-98341900D02*
X124909200Y-98341900D01*
X124909200Y-99701900D02*
X123909200Y-99701900D01*
X128315000Y-96947100D02*
X128315000Y-97947100D01*
X126955000Y-97947100D02*
X126955000Y-96947100D01*
X160483000Y-127207900D02*
X160483000Y-126207900D01*
X161843000Y-126207900D02*
X161843000Y-127207900D01*
X163124600Y-127157100D02*
X163124600Y-126157100D01*
X164484600Y-126157100D02*
X164484600Y-127157100D01*
X167227800Y-126157100D02*
X167227800Y-127157100D01*
X165867800Y-127157100D02*
X165867800Y-126157100D01*
X169971000Y-118892700D02*
X169971000Y-119892700D01*
X168611000Y-119892700D02*
X168611000Y-118892700D01*
X170072600Y-115844700D02*
X170072600Y-116844700D01*
X168712600Y-116844700D02*
X168712600Y-115844700D01*
X164433800Y-107208700D02*
X164433800Y-108208700D01*
X163073800Y-108208700D02*
X163073800Y-107208700D01*
X168015200Y-118816500D02*
X168015200Y-119816500D01*
X166655200Y-119816500D02*
X166655200Y-118816500D01*
X167761200Y-115844700D02*
X167761200Y-116844700D01*
X166401200Y-116844700D02*
X166401200Y-115844700D01*
X150413000Y-98826700D02*
X150413000Y-99826700D01*
X149053000Y-99826700D02*
X149053000Y-98826700D01*
X156011500Y-96438000D02*
X155011500Y-96438000D01*
X155011500Y-95078000D02*
X156011500Y-95078000D01*
X162669600Y-121786100D02*
X163669600Y-121786100D01*
X163669600Y-123146100D02*
X162669600Y-123146100D01*
X166883800Y-130763900D02*
X166883800Y-129763900D01*
X168243800Y-129763900D02*
X168243800Y-130763900D01*
X164078200Y-129814700D02*
X164078200Y-130814700D01*
X162718200Y-130814700D02*
X162718200Y-129814700D01*
X169437600Y-107208700D02*
X169437600Y-108208700D01*
X168077600Y-108208700D02*
X168077600Y-107208700D01*
X172003000Y-118892700D02*
X172003000Y-119892700D01*
X170643000Y-119892700D02*
X170643000Y-118892700D01*
X172409400Y-115743100D02*
X172409400Y-116743100D01*
X171049400Y-116743100D02*
X171049400Y-115743100D01*
X161843000Y-129763900D02*
X161843000Y-130763900D01*
X160483000Y-130763900D02*
X160483000Y-129763900D01*
X158095400Y-131830700D02*
X158095400Y-130830700D01*
X159455400Y-130830700D02*
X159455400Y-131830700D01*
X154895000Y-127436500D02*
X154895000Y-126436500D01*
X156255000Y-126436500D02*
X156255000Y-127436500D01*
X123052200Y-121885700D02*
X112812200Y-121885700D01*
X123052200Y-117244700D02*
X112812200Y-117244700D01*
X123052200Y-121885700D02*
X123052200Y-117244700D01*
X112812200Y-121885700D02*
X112812200Y-117244700D01*
X123052200Y-120375700D02*
X112812200Y-120375700D01*
X119782200Y-121885700D02*
X119782200Y-120375700D01*
X116081200Y-121885700D02*
X116081200Y-120375700D01*
D13*
X142204400Y-122064100D02*
X137754400Y-122064100D01*
X143729400Y-128964100D02*
X137754400Y-128964100D01*
X127220800Y-106143500D02*
X127220800Y-106093500D01*
X123070800Y-106143500D02*
X123070800Y-105998500D01*
X123070800Y-100993500D02*
X123070800Y-101138500D01*
X127220800Y-100993500D02*
X127220800Y-101138500D01*
X127220800Y-106143500D02*
X123070800Y-106143500D01*
X127220800Y-100993500D02*
X123070800Y-100993500D01*
X127220800Y-106093500D02*
X128620800Y-106093500D01*
X155033800Y-107464300D02*
X155033800Y-107414300D01*
X150883800Y-107464300D02*
X150883800Y-107319300D01*
X150883800Y-102314300D02*
X150883800Y-102459300D01*
X155033800Y-102314300D02*
X155033800Y-102459300D01*
X155033800Y-107464300D02*
X150883800Y-107464300D01*
X155033800Y-102314300D02*
X150883800Y-102314300D01*
X155033800Y-107414300D02*
X156433800Y-107414300D01*
X136999800Y-105838700D02*
X136999800Y-105788700D01*
X132849800Y-105838700D02*
X132849800Y-105693700D01*
X132849800Y-100688700D02*
X132849800Y-100833700D01*
X136999800Y-100688700D02*
X136999800Y-100833700D01*
X136999800Y-105838700D02*
X132849800Y-105838700D01*
X136999800Y-100688700D02*
X132849800Y-100688700D01*
X136999800Y-105788700D02*
X138399800Y-105788700D01*
X146974000Y-107106900D02*
X146924000Y-107106900D01*
X146974000Y-111256900D02*
X146829000Y-111256900D01*
X141824000Y-111256900D02*
X141969000Y-111256900D01*
X141824000Y-107106900D02*
X141969000Y-107106900D01*
X146974000Y-107106900D02*
X146974000Y-111256900D01*
X141824000Y-107106900D02*
X141824000Y-111256900D01*
X146924000Y-107106900D02*
X146924000Y-105706900D01*
X166131643Y-111926666D02*
X166179262Y-111974285D01*
X166226881Y-112117142D01*
X166226881Y-112212380D01*
X166179262Y-112355238D01*
X166084024Y-112450476D01*
X165988786Y-112498095D01*
X165798310Y-112545714D01*
X165655452Y-112545714D01*
X165464976Y-112498095D01*
X165369738Y-112450476D01*
X165274500Y-112355238D01*
X165226881Y-112212380D01*
X165226881Y-112117142D01*
X165274500Y-111974285D01*
X165322119Y-111926666D01*
X166226881Y-110974285D02*
X166226881Y-111545714D01*
X166226881Y-111260000D02*
X165226881Y-111260000D01*
X165369738Y-111355238D01*
X165464976Y-111450476D01*
X165512595Y-111545714D01*
X156083143Y-99544166D02*
X156130762Y-99591785D01*
X156178381Y-99734642D01*
X156178381Y-99829880D01*
X156130762Y-99972738D01*
X156035524Y-100067976D01*
X155940286Y-100115595D01*
X155749810Y-100163214D01*
X155606952Y-100163214D01*
X155416476Y-100115595D01*
X155321238Y-100067976D01*
X155226000Y-99972738D01*
X155178381Y-99829880D01*
X155178381Y-99734642D01*
X155226000Y-99591785D01*
X155273619Y-99544166D01*
X155273619Y-99163214D02*
X155226000Y-99115595D01*
X155178381Y-99020357D01*
X155178381Y-98782261D01*
X155226000Y-98687023D01*
X155273619Y-98639404D01*
X155368857Y-98591785D01*
X155464095Y-98591785D01*
X155606952Y-98639404D01*
X156178381Y-99210833D01*
X156178381Y-98591785D01*
X155459134Y-135169043D02*
X155411515Y-135216662D01*
X155268658Y-135264281D01*
X155173420Y-135264281D01*
X155030562Y-135216662D01*
X154935324Y-135121424D01*
X154887705Y-135026186D01*
X154840086Y-134835710D01*
X154840086Y-134692852D01*
X154887705Y-134502376D01*
X154935324Y-134407138D01*
X155030562Y-134311900D01*
X155173420Y-134264281D01*
X155268658Y-134264281D01*
X155411515Y-134311900D01*
X155459134Y-134359519D01*
X155792467Y-134264281D02*
X156411515Y-134264281D01*
X156078181Y-134645233D01*
X156221039Y-134645233D01*
X156316277Y-134692852D01*
X156363896Y-134740471D01*
X156411515Y-134835710D01*
X156411515Y-135073805D01*
X156363896Y-135169043D01*
X156316277Y-135216662D01*
X156221039Y-135264281D01*
X155935324Y-135264281D01*
X155840086Y-135216662D01*
X155792467Y-135169043D01*
X117613134Y-123609243D02*
X117565515Y-123656862D01*
X117422658Y-123704481D01*
X117327420Y-123704481D01*
X117184562Y-123656862D01*
X117089324Y-123561624D01*
X117041705Y-123466386D01*
X116994086Y-123275910D01*
X116994086Y-123133052D01*
X117041705Y-122942576D01*
X117089324Y-122847338D01*
X117184562Y-122752100D01*
X117327420Y-122704481D01*
X117422658Y-122704481D01*
X117565515Y-122752100D01*
X117613134Y-122799719D01*
X118470277Y-123037814D02*
X118470277Y-123704481D01*
X118232181Y-122656862D02*
X117994086Y-123371148D01*
X118613134Y-123371148D01*
X158305643Y-99544166D02*
X158353262Y-99591785D01*
X158400881Y-99734642D01*
X158400881Y-99829880D01*
X158353262Y-99972738D01*
X158258024Y-100067976D01*
X158162786Y-100115595D01*
X157972310Y-100163214D01*
X157829452Y-100163214D01*
X157638976Y-100115595D01*
X157543738Y-100067976D01*
X157448500Y-99972738D01*
X157400881Y-99829880D01*
X157400881Y-99734642D01*
X157448500Y-99591785D01*
X157496119Y-99544166D01*
X157400881Y-98639404D02*
X157400881Y-99115595D01*
X157877071Y-99163214D01*
X157829452Y-99115595D01*
X157781833Y-99020357D01*
X157781833Y-98782261D01*
X157829452Y-98687023D01*
X157877071Y-98639404D01*
X157972310Y-98591785D01*
X158210405Y-98591785D01*
X158305643Y-98639404D01*
X158353262Y-98687023D01*
X158400881Y-98782261D01*
X158400881Y-99020357D01*
X158353262Y-99115595D01*
X158305643Y-99163214D01*
X168023943Y-107875366D02*
X168071562Y-107922985D01*
X168119181Y-108065842D01*
X168119181Y-108161080D01*
X168071562Y-108303938D01*
X167976324Y-108399176D01*
X167881086Y-108446795D01*
X167690610Y-108494414D01*
X167547752Y-108494414D01*
X167357276Y-108446795D01*
X167262038Y-108399176D01*
X167166800Y-108303938D01*
X167119181Y-108161080D01*
X167119181Y-108065842D01*
X167166800Y-107922985D01*
X167214419Y-107875366D01*
X167119181Y-107018223D02*
X167119181Y-107208700D01*
X167166800Y-107303938D01*
X167214419Y-107351557D01*
X167357276Y-107446795D01*
X167547752Y-107494414D01*
X167928705Y-107494414D01*
X168023943Y-107446795D01*
X168071562Y-107399176D01*
X168119181Y-107303938D01*
X168119181Y-107113461D01*
X168071562Y-107018223D01*
X168023943Y-106970604D01*
X167928705Y-106922985D01*
X167690610Y-106922985D01*
X167595371Y-106970604D01*
X167547752Y-107018223D01*
X167500133Y-107113461D01*
X167500133Y-107303938D01*
X167547752Y-107399176D01*
X167595371Y-107446795D01*
X167690610Y-107494414D01*
X171084643Y-111863166D02*
X171132262Y-111910785D01*
X171179881Y-112053642D01*
X171179881Y-112148880D01*
X171132262Y-112291738D01*
X171037024Y-112386976D01*
X170941786Y-112434595D01*
X170751310Y-112482214D01*
X170608452Y-112482214D01*
X170417976Y-112434595D01*
X170322738Y-112386976D01*
X170227500Y-112291738D01*
X170179881Y-112148880D01*
X170179881Y-112053642D01*
X170227500Y-111910785D01*
X170275119Y-111863166D01*
X170179881Y-111529833D02*
X170179881Y-110863166D01*
X171179881Y-111291738D01*
X124090134Y-98059643D02*
X124042515Y-98107262D01*
X123899658Y-98154881D01*
X123804420Y-98154881D01*
X123661562Y-98107262D01*
X123566324Y-98012024D01*
X123518705Y-97916786D01*
X123471086Y-97726310D01*
X123471086Y-97583452D01*
X123518705Y-97392976D01*
X123566324Y-97297738D01*
X123661562Y-97202500D01*
X123804420Y-97154881D01*
X123899658Y-97154881D01*
X124042515Y-97202500D01*
X124090134Y-97250119D01*
X124661562Y-97583452D02*
X124566324Y-97535833D01*
X124518705Y-97488214D01*
X124471086Y-97392976D01*
X124471086Y-97345357D01*
X124518705Y-97250119D01*
X124566324Y-97202500D01*
X124661562Y-97154881D01*
X124852039Y-97154881D01*
X124947277Y-97202500D01*
X124994896Y-97250119D01*
X125042515Y-97345357D01*
X125042515Y-97392976D01*
X124994896Y-97488214D01*
X124947277Y-97535833D01*
X124852039Y-97583452D01*
X124661562Y-97583452D01*
X124566324Y-97631071D01*
X124518705Y-97678690D01*
X124471086Y-97773929D01*
X124471086Y-97964405D01*
X124518705Y-98059643D01*
X124566324Y-98107262D01*
X124661562Y-98154881D01*
X124852039Y-98154881D01*
X124947277Y-98107262D01*
X124994896Y-98059643D01*
X125042515Y-97964405D01*
X125042515Y-97773929D01*
X124994896Y-97678690D01*
X124947277Y-97631071D01*
X124852039Y-97583452D01*
X168925643Y-111863166D02*
X168973262Y-111910785D01*
X169020881Y-112053642D01*
X169020881Y-112148880D01*
X168973262Y-112291738D01*
X168878024Y-112386976D01*
X168782786Y-112434595D01*
X168592310Y-112482214D01*
X168449452Y-112482214D01*
X168258976Y-112434595D01*
X168163738Y-112386976D01*
X168068500Y-112291738D01*
X168020881Y-112148880D01*
X168020881Y-112053642D01*
X168068500Y-111910785D01*
X168116119Y-111863166D01*
X169020881Y-111386976D02*
X169020881Y-111196500D01*
X168973262Y-111101261D01*
X168925643Y-111053642D01*
X168782786Y-110958404D01*
X168592310Y-110910785D01*
X168211357Y-110910785D01*
X168116119Y-110958404D01*
X168068500Y-111006023D01*
X168020881Y-111101261D01*
X168020881Y-111291738D01*
X168068500Y-111386976D01*
X168116119Y-111434595D01*
X168211357Y-111482214D01*
X168449452Y-111482214D01*
X168544690Y-111434595D01*
X168592310Y-111386976D01*
X168639929Y-111291738D01*
X168639929Y-111101261D01*
X168592310Y-111006023D01*
X168544690Y-110958404D01*
X168449452Y-110910785D01*
X155033743Y-132349643D02*
X154986124Y-132397262D01*
X154843267Y-132444881D01*
X154748029Y-132444881D01*
X154605171Y-132397262D01*
X154509933Y-132302024D01*
X154462314Y-132206786D01*
X154414695Y-132016310D01*
X154414695Y-131873452D01*
X154462314Y-131682976D01*
X154509933Y-131587738D01*
X154605171Y-131492500D01*
X154748029Y-131444881D01*
X154843267Y-131444881D01*
X154986124Y-131492500D01*
X155033743Y-131540119D01*
X155986124Y-132444881D02*
X155414695Y-132444881D01*
X155700409Y-132444881D02*
X155700409Y-131444881D01*
X155605171Y-131587738D01*
X155509933Y-131682976D01*
X155414695Y-131730595D01*
X156605171Y-131444881D02*
X156700410Y-131444881D01*
X156795648Y-131492500D01*
X156843267Y-131540119D01*
X156890886Y-131635357D01*
X156938505Y-131825833D01*
X156938505Y-132063929D01*
X156890886Y-132254405D01*
X156843267Y-132349643D01*
X156795648Y-132397262D01*
X156700410Y-132444881D01*
X156605171Y-132444881D01*
X156509933Y-132397262D01*
X156462314Y-132349643D01*
X156414695Y-132254405D01*
X156367076Y-132063929D01*
X156367076Y-131825833D01*
X156414695Y-131635357D01*
X156462314Y-131540119D01*
X156509933Y-131492500D01*
X156605171Y-131444881D01*
X159072343Y-106616643D02*
X159024724Y-106664262D01*
X158881867Y-106711881D01*
X158786629Y-106711881D01*
X158643771Y-106664262D01*
X158548533Y-106569024D01*
X158500914Y-106473786D01*
X158453295Y-106283310D01*
X158453295Y-106140452D01*
X158500914Y-105949976D01*
X158548533Y-105854738D01*
X158643771Y-105759500D01*
X158786629Y-105711881D01*
X158881867Y-105711881D01*
X159024724Y-105759500D01*
X159072343Y-105807119D01*
X160024724Y-106711881D02*
X159453295Y-106711881D01*
X159739009Y-106711881D02*
X159739009Y-105711881D01*
X159643771Y-105854738D01*
X159548533Y-105949976D01*
X159453295Y-105997595D01*
X160977105Y-106711881D02*
X160405676Y-106711881D01*
X160691390Y-106711881D02*
X160691390Y-105711881D01*
X160596152Y-105854738D01*
X160500914Y-105949976D01*
X160405676Y-105997595D01*
X153638393Y-100052107D02*
X153686012Y-100099726D01*
X153733631Y-100242583D01*
X153733631Y-100337821D01*
X153686012Y-100480679D01*
X153590774Y-100575917D01*
X153495536Y-100623536D01*
X153305060Y-100671155D01*
X153162202Y-100671155D01*
X152971726Y-100623536D01*
X152876488Y-100575917D01*
X152781250Y-100480679D01*
X152733631Y-100337821D01*
X152733631Y-100242583D01*
X152781250Y-100099726D01*
X152828869Y-100052107D01*
X153733631Y-99099726D02*
X153733631Y-99671155D01*
X153733631Y-99385441D02*
X152733631Y-99385441D01*
X152876488Y-99480679D01*
X152971726Y-99575917D01*
X153019345Y-99671155D01*
X152828869Y-98718774D02*
X152781250Y-98671155D01*
X152733631Y-98575917D01*
X152733631Y-98337821D01*
X152781250Y-98242583D01*
X152828869Y-98194964D01*
X152924107Y-98147345D01*
X153019345Y-98147345D01*
X153162202Y-98194964D01*
X153733631Y-98766393D01*
X153733631Y-98147345D01*
X163210643Y-112339357D02*
X163258262Y-112386976D01*
X163305881Y-112529833D01*
X163305881Y-112625071D01*
X163258262Y-112767929D01*
X163163024Y-112863167D01*
X163067786Y-112910786D01*
X162877310Y-112958405D01*
X162734452Y-112958405D01*
X162543976Y-112910786D01*
X162448738Y-112863167D01*
X162353500Y-112767929D01*
X162305881Y-112625071D01*
X162305881Y-112529833D01*
X162353500Y-112386976D01*
X162401119Y-112339357D01*
X163305881Y-111386976D02*
X163305881Y-111958405D01*
X163305881Y-111672691D02*
X162305881Y-111672691D01*
X162448738Y-111767929D01*
X162543976Y-111863167D01*
X162591595Y-111958405D01*
X162305881Y-111053643D02*
X162305881Y-110434595D01*
X162686833Y-110767929D01*
X162686833Y-110625071D01*
X162734452Y-110529833D01*
X162782071Y-110482214D01*
X162877310Y-110434595D01*
X163115405Y-110434595D01*
X163210643Y-110482214D01*
X163258262Y-110529833D01*
X163305881Y-110625071D01*
X163305881Y-110910786D01*
X163258262Y-111006024D01*
X163210643Y-111053643D01*
X154638143Y-112339357D02*
X154685762Y-112386976D01*
X154733381Y-112529833D01*
X154733381Y-112625071D01*
X154685762Y-112767929D01*
X154590524Y-112863167D01*
X154495286Y-112910786D01*
X154304810Y-112958405D01*
X154161952Y-112958405D01*
X153971476Y-112910786D01*
X153876238Y-112863167D01*
X153781000Y-112767929D01*
X153733381Y-112625071D01*
X153733381Y-112529833D01*
X153781000Y-112386976D01*
X153828619Y-112339357D01*
X154733381Y-111386976D02*
X154733381Y-111958405D01*
X154733381Y-111672691D02*
X153733381Y-111672691D01*
X153876238Y-111767929D01*
X153971476Y-111863167D01*
X154019095Y-111958405D01*
X154066714Y-110529833D02*
X154733381Y-110529833D01*
X153685762Y-110767929D02*
X154400048Y-111006024D01*
X154400048Y-110386976D01*
X151630143Y-94615143D02*
X151582524Y-94662762D01*
X151439667Y-94710381D01*
X151344429Y-94710381D01*
X151201571Y-94662762D01*
X151106333Y-94567524D01*
X151058714Y-94472286D01*
X151011095Y-94281810D01*
X151011095Y-94138952D01*
X151058714Y-93948476D01*
X151106333Y-93853238D01*
X151201571Y-93758000D01*
X151344429Y-93710381D01*
X151439667Y-93710381D01*
X151582524Y-93758000D01*
X151630143Y-93805619D01*
X152582524Y-94710381D02*
X152011095Y-94710381D01*
X152296809Y-94710381D02*
X152296809Y-93710381D01*
X152201571Y-93853238D01*
X152106333Y-93948476D01*
X152011095Y-93996095D01*
X153487286Y-93710381D02*
X153011095Y-93710381D01*
X152963476Y-94186571D01*
X153011095Y-94138952D01*
X153106333Y-94091333D01*
X153344429Y-94091333D01*
X153439667Y-94138952D01*
X153487286Y-94186571D01*
X153534905Y-94281810D01*
X153534905Y-94519905D01*
X153487286Y-94615143D01*
X153439667Y-94662762D01*
X153344429Y-94710381D01*
X153106333Y-94710381D01*
X153011095Y-94662762D01*
X152963476Y-94615143D01*
X153876143Y-100020357D02*
X153923762Y-100067976D01*
X153971381Y-100210833D01*
X153971381Y-100306071D01*
X153923762Y-100448929D01*
X153828524Y-100544167D01*
X153733286Y-100591786D01*
X153542810Y-100639405D01*
X153399952Y-100639405D01*
X153209476Y-100591786D01*
X153114238Y-100544167D01*
X153019000Y-100448929D01*
X152971381Y-100306071D01*
X152971381Y-100210833D01*
X153019000Y-100067976D01*
X153066619Y-100020357D01*
X153971381Y-99067976D02*
X153971381Y-99639405D01*
X153971381Y-99353691D02*
X152971381Y-99353691D01*
X153114238Y-99448929D01*
X153209476Y-99544167D01*
X153257095Y-99639405D01*
X152971381Y-98210833D02*
X152971381Y-98401310D01*
X153019000Y-98496548D01*
X153066619Y-98544167D01*
X153209476Y-98639405D01*
X153399952Y-98687024D01*
X153780905Y-98687024D01*
X153876143Y-98639405D01*
X153923762Y-98591786D01*
X153971381Y-98496548D01*
X153971381Y-98306071D01*
X153923762Y-98210833D01*
X153876143Y-98163214D01*
X153780905Y-98115595D01*
X153542810Y-98115595D01*
X153447571Y-98163214D01*
X153399952Y-98210833D01*
X153352333Y-98306071D01*
X153352333Y-98496548D01*
X153399952Y-98591786D01*
X153447571Y-98639405D01*
X153542810Y-98687024D01*
X121759743Y-107886643D02*
X121712124Y-107934262D01*
X121569267Y-107981881D01*
X121474029Y-107981881D01*
X121331171Y-107934262D01*
X121235933Y-107839024D01*
X121188314Y-107743786D01*
X121140695Y-107553310D01*
X121140695Y-107410452D01*
X121188314Y-107219976D01*
X121235933Y-107124738D01*
X121331171Y-107029500D01*
X121474029Y-106981881D01*
X121569267Y-106981881D01*
X121712124Y-107029500D01*
X121759743Y-107077119D01*
X122712124Y-107981881D02*
X122140695Y-107981881D01*
X122426409Y-107981881D02*
X122426409Y-106981881D01*
X122331171Y-107124738D01*
X122235933Y-107219976D01*
X122140695Y-107267595D01*
X123045457Y-106981881D02*
X123712124Y-106981881D01*
X123283552Y-107981881D01*
X160416643Y-112402857D02*
X160464262Y-112450476D01*
X160511881Y-112593333D01*
X160511881Y-112688571D01*
X160464262Y-112831429D01*
X160369024Y-112926667D01*
X160273786Y-112974286D01*
X160083310Y-113021905D01*
X159940452Y-113021905D01*
X159749976Y-112974286D01*
X159654738Y-112926667D01*
X159559500Y-112831429D01*
X159511881Y-112688571D01*
X159511881Y-112593333D01*
X159559500Y-112450476D01*
X159607119Y-112402857D01*
X160511881Y-111450476D02*
X160511881Y-112021905D01*
X160511881Y-111736191D02*
X159511881Y-111736191D01*
X159654738Y-111831429D01*
X159749976Y-111926667D01*
X159797595Y-112021905D01*
X159940452Y-110879048D02*
X159892833Y-110974286D01*
X159845214Y-111021905D01*
X159749976Y-111069524D01*
X159702357Y-111069524D01*
X159607119Y-111021905D01*
X159559500Y-110974286D01*
X159511881Y-110879048D01*
X159511881Y-110688571D01*
X159559500Y-110593333D01*
X159607119Y-110545714D01*
X159702357Y-110498095D01*
X159749976Y-110498095D01*
X159845214Y-110545714D01*
X159892833Y-110593333D01*
X159940452Y-110688571D01*
X159940452Y-110879048D01*
X159988071Y-110974286D01*
X160035690Y-111021905D01*
X160130929Y-111069524D01*
X160321405Y-111069524D01*
X160416643Y-111021905D01*
X160464262Y-110974286D01*
X160511881Y-110879048D01*
X160511881Y-110688571D01*
X160464262Y-110593333D01*
X160416643Y-110545714D01*
X160321405Y-110498095D01*
X160130929Y-110498095D01*
X160035690Y-110545714D01*
X159988071Y-110593333D01*
X159940452Y-110688571D01*
X175402643Y-112275857D02*
X175450262Y-112323476D01*
X175497881Y-112466333D01*
X175497881Y-112561571D01*
X175450262Y-112704429D01*
X175355024Y-112799667D01*
X175259786Y-112847286D01*
X175069310Y-112894905D01*
X174926452Y-112894905D01*
X174735976Y-112847286D01*
X174640738Y-112799667D01*
X174545500Y-112704429D01*
X174497881Y-112561571D01*
X174497881Y-112466333D01*
X174545500Y-112323476D01*
X174593119Y-112275857D01*
X175497881Y-111323476D02*
X175497881Y-111894905D01*
X175497881Y-111609191D02*
X174497881Y-111609191D01*
X174640738Y-111704429D01*
X174735976Y-111799667D01*
X174783595Y-111894905D01*
X175497881Y-110847286D02*
X175497881Y-110656810D01*
X175450262Y-110561571D01*
X175402643Y-110513952D01*
X175259786Y-110418714D01*
X175069310Y-110371095D01*
X174688357Y-110371095D01*
X174593119Y-110418714D01*
X174545500Y-110466333D01*
X174497881Y-110561571D01*
X174497881Y-110752048D01*
X174545500Y-110847286D01*
X174593119Y-110894905D01*
X174688357Y-110942524D01*
X174926452Y-110942524D01*
X175021690Y-110894905D01*
X175069310Y-110847286D01*
X175116929Y-110752048D01*
X175116929Y-110561571D01*
X175069310Y-110466333D01*
X175021690Y-110418714D01*
X174926452Y-110371095D01*
X173332543Y-108402357D02*
X173380162Y-108449976D01*
X173427781Y-108592833D01*
X173427781Y-108688071D01*
X173380162Y-108830929D01*
X173284924Y-108926167D01*
X173189686Y-108973786D01*
X172999210Y-109021405D01*
X172856352Y-109021405D01*
X172665876Y-108973786D01*
X172570638Y-108926167D01*
X172475400Y-108830929D01*
X172427781Y-108688071D01*
X172427781Y-108592833D01*
X172475400Y-108449976D01*
X172523019Y-108402357D01*
X172523019Y-108021405D02*
X172475400Y-107973786D01*
X172427781Y-107878548D01*
X172427781Y-107640452D01*
X172475400Y-107545214D01*
X172523019Y-107497595D01*
X172618257Y-107449976D01*
X172713495Y-107449976D01*
X172856352Y-107497595D01*
X173427781Y-108069024D01*
X173427781Y-107449976D01*
X172427781Y-106830929D02*
X172427781Y-106735690D01*
X172475400Y-106640452D01*
X172523019Y-106592833D01*
X172618257Y-106545214D01*
X172808733Y-106497595D01*
X173046829Y-106497595D01*
X173237305Y-106545214D01*
X173332543Y-106592833D01*
X173380162Y-106640452D01*
X173427781Y-106735690D01*
X173427781Y-106830929D01*
X173380162Y-106926167D01*
X173332543Y-106973786D01*
X173237305Y-107021405D01*
X173046829Y-107069024D01*
X172808733Y-107069024D01*
X172618257Y-107021405D01*
X172523019Y-106973786D01*
X172475400Y-106926167D01*
X172427781Y-106830929D01*
X157178143Y-112339357D02*
X157225762Y-112386976D01*
X157273381Y-112529833D01*
X157273381Y-112625071D01*
X157225762Y-112767929D01*
X157130524Y-112863167D01*
X157035286Y-112910786D01*
X156844810Y-112958405D01*
X156701952Y-112958405D01*
X156511476Y-112910786D01*
X156416238Y-112863167D01*
X156321000Y-112767929D01*
X156273381Y-112625071D01*
X156273381Y-112529833D01*
X156321000Y-112386976D01*
X156368619Y-112339357D01*
X156368619Y-111958405D02*
X156321000Y-111910786D01*
X156273381Y-111815548D01*
X156273381Y-111577452D01*
X156321000Y-111482214D01*
X156368619Y-111434595D01*
X156463857Y-111386976D01*
X156559095Y-111386976D01*
X156701952Y-111434595D01*
X157273381Y-112006024D01*
X157273381Y-111386976D01*
X157273381Y-110434595D02*
X157273381Y-111006024D01*
X157273381Y-110720310D02*
X156273381Y-110720310D01*
X156416238Y-110815548D01*
X156511476Y-110910786D01*
X156559095Y-111006024D01*
X173497643Y-112339357D02*
X173545262Y-112386976D01*
X173592881Y-112529833D01*
X173592881Y-112625071D01*
X173545262Y-112767929D01*
X173450024Y-112863167D01*
X173354786Y-112910786D01*
X173164310Y-112958405D01*
X173021452Y-112958405D01*
X172830976Y-112910786D01*
X172735738Y-112863167D01*
X172640500Y-112767929D01*
X172592881Y-112625071D01*
X172592881Y-112529833D01*
X172640500Y-112386976D01*
X172688119Y-112339357D01*
X172688119Y-111958405D02*
X172640500Y-111910786D01*
X172592881Y-111815548D01*
X172592881Y-111577452D01*
X172640500Y-111482214D01*
X172688119Y-111434595D01*
X172783357Y-111386976D01*
X172878595Y-111386976D01*
X173021452Y-111434595D01*
X173592881Y-112006024D01*
X173592881Y-111386976D01*
X172688119Y-111006024D02*
X172640500Y-110958405D01*
X172592881Y-110863167D01*
X172592881Y-110625071D01*
X172640500Y-110529833D01*
X172688119Y-110482214D01*
X172783357Y-110434595D01*
X172878595Y-110434595D01*
X173021452Y-110482214D01*
X173592881Y-111053643D01*
X173592881Y-110434595D01*
X125671343Y-110785043D02*
X125623724Y-110832662D01*
X125480867Y-110880281D01*
X125385629Y-110880281D01*
X125242771Y-110832662D01*
X125147533Y-110737424D01*
X125099914Y-110642186D01*
X125052295Y-110451710D01*
X125052295Y-110308852D01*
X125099914Y-110118376D01*
X125147533Y-110023138D01*
X125242771Y-109927900D01*
X125385629Y-109880281D01*
X125480867Y-109880281D01*
X125623724Y-109927900D01*
X125671343Y-109975519D01*
X126052295Y-109975519D02*
X126099914Y-109927900D01*
X126195152Y-109880281D01*
X126433248Y-109880281D01*
X126528486Y-109927900D01*
X126576105Y-109975519D01*
X126623724Y-110070757D01*
X126623724Y-110165995D01*
X126576105Y-110308852D01*
X126004676Y-110880281D01*
X126623724Y-110880281D01*
X126957057Y-109880281D02*
X127576105Y-109880281D01*
X127242771Y-110261233D01*
X127385629Y-110261233D01*
X127480867Y-110308852D01*
X127528486Y-110356471D01*
X127576105Y-110451710D01*
X127576105Y-110689805D01*
X127528486Y-110785043D01*
X127480867Y-110832662D01*
X127385629Y-110880281D01*
X127099914Y-110880281D01*
X127004676Y-110832662D01*
X126957057Y-110785043D01*
X128420905Y-111548681D02*
X128420905Y-110548681D01*
X128659000Y-110548681D01*
X128801858Y-110596300D01*
X128897096Y-110691538D01*
X128944715Y-110786776D01*
X128992334Y-110977252D01*
X128992334Y-111120110D01*
X128944715Y-111310586D01*
X128897096Y-111405824D01*
X128801858Y-111501062D01*
X128659000Y-111548681D01*
X128420905Y-111548681D01*
X129944715Y-111548681D02*
X129373286Y-111548681D01*
X129659000Y-111548681D02*
X129659000Y-110548681D01*
X129563762Y-110691538D01*
X129468524Y-110786776D01*
X129373286Y-110834395D01*
D14*
X129673286Y-109799871D02*
X130244715Y-109799871D01*
X129959001Y-110085586D02*
X129959001Y-109514157D01*
D13*
X116135026Y-94011880D02*
X116135026Y-94726166D01*
X116087406Y-94869023D01*
X115992168Y-94964261D01*
X115849311Y-95011880D01*
X115754073Y-95011880D01*
X117135026Y-95011880D02*
X116563597Y-95011880D01*
X116849311Y-95011880D02*
X116849311Y-94011880D01*
X116754073Y-94154737D01*
X116658835Y-94249975D01*
X116563597Y-94297594D01*
X112006581Y-129886033D02*
X112720867Y-129886033D01*
X112863724Y-129933653D01*
X112958962Y-130028891D01*
X113006581Y-130171748D01*
X113006581Y-130266986D01*
X112101819Y-129457462D02*
X112054200Y-129409843D01*
X112006581Y-129314605D01*
X112006581Y-129076509D01*
X112054200Y-128981271D01*
X112101819Y-128933652D01*
X112197057Y-128886033D01*
X112292295Y-128886033D01*
X112435152Y-128933652D01*
X113006581Y-129505081D01*
X113006581Y-128886033D01*
X149602867Y-140275881D02*
X149602867Y-140990167D01*
X149555247Y-141133024D01*
X149460009Y-141228262D01*
X149317152Y-141275881D01*
X149221914Y-141275881D01*
X149983819Y-140275881D02*
X150602867Y-140275881D01*
X150269533Y-140656833D01*
X150412391Y-140656833D01*
X150507629Y-140704452D01*
X150555248Y-140752071D01*
X150602867Y-140847310D01*
X150602867Y-141085405D01*
X150555248Y-141180643D01*
X150507629Y-141228262D01*
X150412391Y-141275881D01*
X150126676Y-141275881D01*
X150031438Y-141228262D01*
X149983819Y-141180643D01*
X166628381Y-136921833D02*
X167342667Y-136921833D01*
X167485524Y-136969453D01*
X167580762Y-137064691D01*
X167628381Y-137207548D01*
X167628381Y-137302786D01*
X166961714Y-136017071D02*
X167628381Y-136017071D01*
X166580762Y-136255167D02*
X167295048Y-136493262D01*
X167295048Y-135874214D01*
X116199526Y-104504380D02*
X116199526Y-105218666D01*
X116151906Y-105361523D01*
X116056668Y-105456761D01*
X115913811Y-105504380D01*
X115818573Y-105504380D01*
X117151907Y-104504380D02*
X116675716Y-104504380D01*
X116628097Y-104980570D01*
X116675716Y-104932951D01*
X116770954Y-104885332D01*
X117009050Y-104885332D01*
X117104288Y-104932951D01*
X117151907Y-104980570D01*
X117199526Y-105075809D01*
X117199526Y-105313904D01*
X117151907Y-105409142D01*
X117104288Y-105456761D01*
X117009050Y-105504380D01*
X116770954Y-105504380D01*
X116675716Y-105456761D01*
X116628097Y-105409142D01*
X127504867Y-139793281D02*
X127504867Y-140507567D01*
X127457247Y-140650424D01*
X127362009Y-140745662D01*
X127219152Y-140793281D01*
X127123914Y-140793281D01*
X128409629Y-139793281D02*
X128219152Y-139793281D01*
X128123914Y-139840900D01*
X128076295Y-139888519D01*
X127981057Y-140031376D01*
X127933438Y-140221852D01*
X127933438Y-140602805D01*
X127981057Y-140698043D01*
X128028676Y-140745662D01*
X128123914Y-140793281D01*
X128314391Y-140793281D01*
X128409629Y-140745662D01*
X128457248Y-140698043D01*
X128504867Y-140602805D01*
X128504867Y-140364710D01*
X128457248Y-140269471D01*
X128409629Y-140221852D01*
X128314391Y-140174233D01*
X128123914Y-140174233D01*
X128028676Y-140221852D01*
X127981057Y-140269471D01*
X127933438Y-140364710D01*
X136242467Y-108183881D02*
X136242467Y-108898167D01*
X136194847Y-109041024D01*
X136099609Y-109136262D01*
X135956752Y-109183881D01*
X135861514Y-109183881D01*
X136623419Y-108183881D02*
X137290086Y-108183881D01*
X136861514Y-109183881D01*
X160720381Y-119622795D02*
X159720381Y-119622795D01*
X159720381Y-119241842D01*
X159768000Y-119146604D01*
X159815619Y-119098985D01*
X159910857Y-119051366D01*
X160053714Y-119051366D01*
X160148952Y-119098985D01*
X160196571Y-119146604D01*
X160244190Y-119241842D01*
X160244190Y-119622795D01*
X160720381Y-118098985D02*
X160720381Y-118670414D01*
X160720381Y-118384700D02*
X159720381Y-118384700D01*
X159863238Y-118479938D01*
X159958476Y-118575176D01*
X160006095Y-118670414D01*
X160437534Y-102621681D02*
X160104200Y-102145490D01*
X159866105Y-102621681D02*
X159866105Y-101621681D01*
X160247058Y-101621681D01*
X160342296Y-101669300D01*
X160389915Y-101716919D01*
X160437534Y-101812157D01*
X160437534Y-101955014D01*
X160389915Y-102050252D01*
X160342296Y-102097871D01*
X160247058Y-102145490D01*
X159866105Y-102145490D01*
X161389915Y-102621681D02*
X160818486Y-102621681D01*
X161104200Y-102621681D02*
X161104200Y-101621681D01*
X161008962Y-101764538D01*
X160913724Y-101859776D01*
X160818486Y-101907395D01*
X157523781Y-126925366D02*
X157047590Y-127258700D01*
X157523781Y-127496795D02*
X156523781Y-127496795D01*
X156523781Y-127115842D01*
X156571400Y-127020604D01*
X156619019Y-126972985D01*
X156714257Y-126925366D01*
X156857114Y-126925366D01*
X156952352Y-126972985D01*
X156999971Y-127020604D01*
X157047590Y-127115842D01*
X157047590Y-127496795D01*
X156619019Y-126544414D02*
X156571400Y-126496795D01*
X156523781Y-126401557D01*
X156523781Y-126163461D01*
X156571400Y-126068223D01*
X156619019Y-126020604D01*
X156714257Y-125972985D01*
X156809495Y-125972985D01*
X156952352Y-126020604D01*
X157523781Y-126592033D01*
X157523781Y-125972985D01*
X122540734Y-111079881D02*
X122207400Y-110603690D01*
X121969305Y-111079881D02*
X121969305Y-110079881D01*
X122350258Y-110079881D01*
X122445496Y-110127500D01*
X122493115Y-110175119D01*
X122540734Y-110270357D01*
X122540734Y-110413214D01*
X122493115Y-110508452D01*
X122445496Y-110556071D01*
X122350258Y-110603690D01*
X121969305Y-110603690D01*
X122874067Y-110079881D02*
X123493115Y-110079881D01*
X123159781Y-110460833D01*
X123302639Y-110460833D01*
X123397877Y-110508452D01*
X123445496Y-110556071D01*
X123493115Y-110651310D01*
X123493115Y-110889405D01*
X123445496Y-110984643D01*
X123397877Y-111032262D01*
X123302639Y-111079881D01*
X123016924Y-111079881D01*
X122921686Y-111032262D01*
X122874067Y-110984643D01*
X126249134Y-111079881D02*
X125915800Y-110603690D01*
X125677705Y-111079881D02*
X125677705Y-110079881D01*
X126058658Y-110079881D01*
X126153896Y-110127500D01*
X126201515Y-110175119D01*
X126249134Y-110270357D01*
X126249134Y-110413214D01*
X126201515Y-110508452D01*
X126153896Y-110556071D01*
X126058658Y-110603690D01*
X125677705Y-110603690D01*
X127106277Y-110413214D02*
X127106277Y-111079881D01*
X126868181Y-110032262D02*
X126630086Y-110746548D01*
X127249134Y-110746548D01*
X171396581Y-130379766D02*
X170920390Y-130713100D01*
X171396581Y-130951195D02*
X170396581Y-130951195D01*
X170396581Y-130570242D01*
X170444200Y-130475004D01*
X170491819Y-130427385D01*
X170587057Y-130379766D01*
X170729914Y-130379766D01*
X170825152Y-130427385D01*
X170872771Y-130475004D01*
X170920390Y-130570242D01*
X170920390Y-130951195D01*
X170396581Y-129475004D02*
X170396581Y-129951195D01*
X170872771Y-129998814D01*
X170825152Y-129951195D01*
X170777533Y-129855957D01*
X170777533Y-129617861D01*
X170825152Y-129522623D01*
X170872771Y-129475004D01*
X170968010Y-129427385D01*
X171206105Y-129427385D01*
X171301343Y-129475004D01*
X171348962Y-129522623D01*
X171396581Y-129617861D01*
X171396581Y-129855957D01*
X171348962Y-129951195D01*
X171301343Y-129998814D01*
X164686581Y-130430566D02*
X164210390Y-130763900D01*
X164686581Y-131001995D02*
X163686581Y-131001995D01*
X163686581Y-130621042D01*
X163734200Y-130525804D01*
X163781819Y-130478185D01*
X163877057Y-130430566D01*
X164019914Y-130430566D01*
X164115152Y-130478185D01*
X164162771Y-130525804D01*
X164210390Y-130621042D01*
X164210390Y-131001995D01*
X163686581Y-129573423D02*
X163686581Y-129763900D01*
X163734200Y-129859138D01*
X163781819Y-129906757D01*
X163924676Y-130001995D01*
X164115152Y-130049614D01*
X164496105Y-130049614D01*
X164591343Y-130001995D01*
X164638962Y-129954376D01*
X164686581Y-129859138D01*
X164686581Y-129668661D01*
X164638962Y-129573423D01*
X164591343Y-129525804D01*
X164496105Y-129478185D01*
X164258010Y-129478185D01*
X164162771Y-129525804D01*
X164115152Y-129573423D01*
X164067533Y-129668661D01*
X164067533Y-129859138D01*
X164115152Y-129954376D01*
X164162771Y-130001995D01*
X164258010Y-130049614D01*
X124242534Y-100924281D02*
X123909200Y-100448090D01*
X123671105Y-100924281D02*
X123671105Y-99924281D01*
X124052058Y-99924281D01*
X124147296Y-99971900D01*
X124194915Y-100019519D01*
X124242534Y-100114757D01*
X124242534Y-100257614D01*
X124194915Y-100352852D01*
X124147296Y-100400471D01*
X124052058Y-100448090D01*
X123671105Y-100448090D01*
X124575867Y-99924281D02*
X125242534Y-99924281D01*
X124813962Y-100924281D01*
X126637381Y-97613766D02*
X126161190Y-97947100D01*
X126637381Y-98185195D02*
X125637381Y-98185195D01*
X125637381Y-97804242D01*
X125685000Y-97709004D01*
X125732619Y-97661385D01*
X125827857Y-97613766D01*
X125970714Y-97613766D01*
X126065952Y-97661385D01*
X126113571Y-97709004D01*
X126161190Y-97804242D01*
X126161190Y-98185195D01*
X126065952Y-97042338D02*
X126018333Y-97137576D01*
X125970714Y-97185195D01*
X125875476Y-97232814D01*
X125827857Y-97232814D01*
X125732619Y-97185195D01*
X125685000Y-97137576D01*
X125637381Y-97042338D01*
X125637381Y-96851861D01*
X125685000Y-96756623D01*
X125732619Y-96709004D01*
X125827857Y-96661385D01*
X125875476Y-96661385D01*
X125970714Y-96709004D01*
X126018333Y-96756623D01*
X126065952Y-96851861D01*
X126065952Y-97042338D01*
X126113571Y-97137576D01*
X126161190Y-97185195D01*
X126256429Y-97232814D01*
X126446905Y-97232814D01*
X126542143Y-97185195D01*
X126589762Y-97137576D01*
X126637381Y-97042338D01*
X126637381Y-96851861D01*
X126589762Y-96756623D01*
X126542143Y-96709004D01*
X126446905Y-96661385D01*
X126256429Y-96661385D01*
X126161190Y-96709004D01*
X126113571Y-96756623D01*
X126065952Y-96851861D01*
X163065381Y-126874566D02*
X162589190Y-127207900D01*
X163065381Y-127445995D02*
X162065381Y-127445995D01*
X162065381Y-127065042D01*
X162113000Y-126969804D01*
X162160619Y-126922185D01*
X162255857Y-126874566D01*
X162398714Y-126874566D01*
X162493952Y-126922185D01*
X162541571Y-126969804D01*
X162589190Y-127065042D01*
X162589190Y-127445995D01*
X163065381Y-126398376D02*
X163065381Y-126207900D01*
X163017762Y-126112661D01*
X162970143Y-126065042D01*
X162827286Y-125969804D01*
X162636810Y-125922185D01*
X162255857Y-125922185D01*
X162160619Y-125969804D01*
X162113000Y-126017423D01*
X162065381Y-126112661D01*
X162065381Y-126303138D01*
X162113000Y-126398376D01*
X162160619Y-126445995D01*
X162255857Y-126493614D01*
X162493952Y-126493614D01*
X162589190Y-126445995D01*
X162636810Y-126398376D01*
X162684429Y-126303138D01*
X162684429Y-126112661D01*
X162636810Y-126017423D01*
X162589190Y-125969804D01*
X162493952Y-125922185D01*
X165706981Y-127299957D02*
X165230790Y-127633291D01*
X165706981Y-127871386D02*
X164706981Y-127871386D01*
X164706981Y-127490433D01*
X164754600Y-127395195D01*
X164802219Y-127347576D01*
X164897457Y-127299957D01*
X165040314Y-127299957D01*
X165135552Y-127347576D01*
X165183171Y-127395195D01*
X165230790Y-127490433D01*
X165230790Y-127871386D01*
X165706981Y-126347576D02*
X165706981Y-126919005D01*
X165706981Y-126633291D02*
X164706981Y-126633291D01*
X164849838Y-126728529D01*
X164945076Y-126823767D01*
X164992695Y-126919005D01*
X164706981Y-125728529D02*
X164706981Y-125633290D01*
X164754600Y-125538052D01*
X164802219Y-125490433D01*
X164897457Y-125442814D01*
X165087933Y-125395195D01*
X165326029Y-125395195D01*
X165516505Y-125442814D01*
X165611743Y-125490433D01*
X165659362Y-125538052D01*
X165706981Y-125633290D01*
X165706981Y-125728529D01*
X165659362Y-125823767D01*
X165611743Y-125871386D01*
X165516505Y-125919005D01*
X165326029Y-125966624D01*
X165087933Y-125966624D01*
X164897457Y-125919005D01*
X164802219Y-125871386D01*
X164754600Y-125823767D01*
X164706981Y-125728529D01*
X165550181Y-127299957D02*
X165073990Y-127633291D01*
X165550181Y-127871386D02*
X164550181Y-127871386D01*
X164550181Y-127490433D01*
X164597800Y-127395195D01*
X164645419Y-127347576D01*
X164740657Y-127299957D01*
X164883514Y-127299957D01*
X164978752Y-127347576D01*
X165026371Y-127395195D01*
X165073990Y-127490433D01*
X165073990Y-127871386D01*
X165550181Y-126347576D02*
X165550181Y-126919005D01*
X165550181Y-126633291D02*
X164550181Y-126633291D01*
X164693038Y-126728529D01*
X164788276Y-126823767D01*
X164835895Y-126919005D01*
X165550181Y-125395195D02*
X165550181Y-125966624D01*
X165550181Y-125680910D02*
X164550181Y-125680910D01*
X164693038Y-125776148D01*
X164788276Y-125871386D01*
X164835895Y-125966624D01*
X168293381Y-120035557D02*
X167817190Y-120368891D01*
X168293381Y-120606986D02*
X167293381Y-120606986D01*
X167293381Y-120226033D01*
X167341000Y-120130795D01*
X167388619Y-120083176D01*
X167483857Y-120035557D01*
X167626714Y-120035557D01*
X167721952Y-120083176D01*
X167769571Y-120130795D01*
X167817190Y-120226033D01*
X167817190Y-120606986D01*
X168293381Y-119083176D02*
X168293381Y-119654605D01*
X168293381Y-119368891D02*
X167293381Y-119368891D01*
X167436238Y-119464129D01*
X167531476Y-119559367D01*
X167579095Y-119654605D01*
X167388619Y-118702224D02*
X167341000Y-118654605D01*
X167293381Y-118559367D01*
X167293381Y-118321271D01*
X167341000Y-118226033D01*
X167388619Y-118178414D01*
X167483857Y-118130795D01*
X167579095Y-118130795D01*
X167721952Y-118178414D01*
X168293381Y-118749843D01*
X168293381Y-118130795D01*
X168394981Y-116987557D02*
X167918790Y-117320891D01*
X168394981Y-117558986D02*
X167394981Y-117558986D01*
X167394981Y-117178033D01*
X167442600Y-117082795D01*
X167490219Y-117035176D01*
X167585457Y-116987557D01*
X167728314Y-116987557D01*
X167823552Y-117035176D01*
X167871171Y-117082795D01*
X167918790Y-117178033D01*
X167918790Y-117558986D01*
X168394981Y-116035176D02*
X168394981Y-116606605D01*
X168394981Y-116320891D02*
X167394981Y-116320891D01*
X167537838Y-116416129D01*
X167633076Y-116511367D01*
X167680695Y-116606605D01*
X167394981Y-115701843D02*
X167394981Y-115082795D01*
X167775933Y-115416129D01*
X167775933Y-115273271D01*
X167823552Y-115178033D01*
X167871171Y-115130414D01*
X167966410Y-115082795D01*
X168204505Y-115082795D01*
X168299743Y-115130414D01*
X168347362Y-115178033D01*
X168394981Y-115273271D01*
X168394981Y-115558986D01*
X168347362Y-115654224D01*
X168299743Y-115701843D01*
X162756181Y-108351557D02*
X162279990Y-108684891D01*
X162756181Y-108922986D02*
X161756181Y-108922986D01*
X161756181Y-108542033D01*
X161803800Y-108446795D01*
X161851419Y-108399176D01*
X161946657Y-108351557D01*
X162089514Y-108351557D01*
X162184752Y-108399176D01*
X162232371Y-108446795D01*
X162279990Y-108542033D01*
X162279990Y-108922986D01*
X162756181Y-107399176D02*
X162756181Y-107970605D01*
X162756181Y-107684891D02*
X161756181Y-107684891D01*
X161899038Y-107780129D01*
X161994276Y-107875367D01*
X162041895Y-107970605D01*
X162089514Y-106542033D02*
X162756181Y-106542033D01*
X161708562Y-106780129D02*
X162422848Y-107018224D01*
X162422848Y-106399176D01*
X166337581Y-119959357D02*
X165861390Y-120292691D01*
X166337581Y-120530786D02*
X165337581Y-120530786D01*
X165337581Y-120149833D01*
X165385200Y-120054595D01*
X165432819Y-120006976D01*
X165528057Y-119959357D01*
X165670914Y-119959357D01*
X165766152Y-120006976D01*
X165813771Y-120054595D01*
X165861390Y-120149833D01*
X165861390Y-120530786D01*
X166337581Y-119006976D02*
X166337581Y-119578405D01*
X166337581Y-119292691D02*
X165337581Y-119292691D01*
X165480438Y-119387929D01*
X165575676Y-119483167D01*
X165623295Y-119578405D01*
X165337581Y-118102214D02*
X165337581Y-118578405D01*
X165813771Y-118626024D01*
X165766152Y-118578405D01*
X165718533Y-118483167D01*
X165718533Y-118245071D01*
X165766152Y-118149833D01*
X165813771Y-118102214D01*
X165909010Y-118054595D01*
X166147105Y-118054595D01*
X166242343Y-118102214D01*
X166289962Y-118149833D01*
X166337581Y-118245071D01*
X166337581Y-118483167D01*
X166289962Y-118578405D01*
X166242343Y-118626024D01*
X166083581Y-116987557D02*
X165607390Y-117320891D01*
X166083581Y-117558986D02*
X165083581Y-117558986D01*
X165083581Y-117178033D01*
X165131200Y-117082795D01*
X165178819Y-117035176D01*
X165274057Y-116987557D01*
X165416914Y-116987557D01*
X165512152Y-117035176D01*
X165559771Y-117082795D01*
X165607390Y-117178033D01*
X165607390Y-117558986D01*
X166083581Y-116035176D02*
X166083581Y-116606605D01*
X166083581Y-116320891D02*
X165083581Y-116320891D01*
X165226438Y-116416129D01*
X165321676Y-116511367D01*
X165369295Y-116606605D01*
X165083581Y-115178033D02*
X165083581Y-115368510D01*
X165131200Y-115463748D01*
X165178819Y-115511367D01*
X165321676Y-115606605D01*
X165512152Y-115654224D01*
X165893105Y-115654224D01*
X165988343Y-115606605D01*
X166035962Y-115558986D01*
X166083581Y-115463748D01*
X166083581Y-115273271D01*
X166035962Y-115178033D01*
X165988343Y-115130414D01*
X165893105Y-115082795D01*
X165655010Y-115082795D01*
X165559771Y-115130414D01*
X165512152Y-115178033D01*
X165464533Y-115273271D01*
X165464533Y-115463748D01*
X165512152Y-115558986D01*
X165559771Y-115606605D01*
X165655010Y-115654224D01*
X148735381Y-99969557D02*
X148259190Y-100302891D01*
X148735381Y-100540986D02*
X147735381Y-100540986D01*
X147735381Y-100160033D01*
X147783000Y-100064795D01*
X147830619Y-100017176D01*
X147925857Y-99969557D01*
X148068714Y-99969557D01*
X148163952Y-100017176D01*
X148211571Y-100064795D01*
X148259190Y-100160033D01*
X148259190Y-100540986D01*
X148735381Y-99017176D02*
X148735381Y-99588605D01*
X148735381Y-99302891D02*
X147735381Y-99302891D01*
X147878238Y-99398129D01*
X147973476Y-99493367D01*
X148021095Y-99588605D01*
X147735381Y-98683843D02*
X147735381Y-98017176D01*
X148735381Y-98445748D01*
X154868643Y-94760381D02*
X154535309Y-94284190D01*
X154297214Y-94760381D02*
X154297214Y-93760381D01*
X154678167Y-93760381D01*
X154773405Y-93808000D01*
X154821024Y-93855619D01*
X154868643Y-93950857D01*
X154868643Y-94093714D01*
X154821024Y-94188952D01*
X154773405Y-94236571D01*
X154678167Y-94284190D01*
X154297214Y-94284190D01*
X155821024Y-94760381D02*
X155249595Y-94760381D01*
X155535309Y-94760381D02*
X155535309Y-93760381D01*
X155440071Y-93903238D01*
X155344833Y-93998476D01*
X155249595Y-94046095D01*
X156392452Y-94188952D02*
X156297214Y-94141333D01*
X156249595Y-94093714D01*
X156201976Y-93998476D01*
X156201976Y-93950857D01*
X156249595Y-93855619D01*
X156297214Y-93808000D01*
X156392452Y-93760381D01*
X156582929Y-93760381D01*
X156678167Y-93808000D01*
X156725786Y-93855619D01*
X156773405Y-93950857D01*
X156773405Y-93998476D01*
X156725786Y-94093714D01*
X156678167Y-94141333D01*
X156582929Y-94188952D01*
X156392452Y-94188952D01*
X156297214Y-94236571D01*
X156249595Y-94284190D01*
X156201976Y-94379429D01*
X156201976Y-94569905D01*
X156249595Y-94665143D01*
X156297214Y-94712762D01*
X156392452Y-94760381D01*
X156582929Y-94760381D01*
X156678167Y-94712762D01*
X156725786Y-94665143D01*
X156773405Y-94569905D01*
X156773405Y-94379429D01*
X156725786Y-94284190D01*
X156678167Y-94236571D01*
X156582929Y-94188952D01*
X162526743Y-124368481D02*
X162193409Y-123892290D01*
X161955314Y-124368481D02*
X161955314Y-123368481D01*
X162336267Y-123368481D01*
X162431505Y-123416100D01*
X162479124Y-123463719D01*
X162526743Y-123558957D01*
X162526743Y-123701814D01*
X162479124Y-123797052D01*
X162431505Y-123844671D01*
X162336267Y-123892290D01*
X161955314Y-123892290D01*
X163479124Y-124368481D02*
X162907695Y-124368481D01*
X163193409Y-124368481D02*
X163193409Y-123368481D01*
X163098171Y-123511338D01*
X163002933Y-123606576D01*
X162907695Y-123654195D01*
X163955314Y-124368481D02*
X164145790Y-124368481D01*
X164241029Y-124320862D01*
X164288648Y-124273243D01*
X164383886Y-124130386D01*
X164431505Y-123939910D01*
X164431505Y-123558957D01*
X164383886Y-123463719D01*
X164336267Y-123416100D01*
X164241029Y-123368481D01*
X164050552Y-123368481D01*
X163955314Y-123416100D01*
X163907695Y-123463719D01*
X163860076Y-123558957D01*
X163860076Y-123797052D01*
X163907695Y-123892290D01*
X163955314Y-123939910D01*
X164050552Y-123987529D01*
X164241029Y-123987529D01*
X164336267Y-123939910D01*
X164383886Y-123892290D01*
X164431505Y-123797052D01*
X169466181Y-130906757D02*
X168989990Y-131240091D01*
X169466181Y-131478186D02*
X168466181Y-131478186D01*
X168466181Y-131097233D01*
X168513800Y-131001995D01*
X168561419Y-130954376D01*
X168656657Y-130906757D01*
X168799514Y-130906757D01*
X168894752Y-130954376D01*
X168942371Y-131001995D01*
X168989990Y-131097233D01*
X168989990Y-131478186D01*
X168561419Y-130525805D02*
X168513800Y-130478186D01*
X168466181Y-130382948D01*
X168466181Y-130144852D01*
X168513800Y-130049614D01*
X168561419Y-130001995D01*
X168656657Y-129954376D01*
X168751895Y-129954376D01*
X168894752Y-130001995D01*
X169466181Y-130573424D01*
X169466181Y-129954376D01*
X168466181Y-129335329D02*
X168466181Y-129240090D01*
X168513800Y-129144852D01*
X168561419Y-129097233D01*
X168656657Y-129049614D01*
X168847133Y-129001995D01*
X169085229Y-129001995D01*
X169275705Y-129049614D01*
X169370943Y-129097233D01*
X169418562Y-129144852D01*
X169466181Y-129240090D01*
X169466181Y-129335329D01*
X169418562Y-129430567D01*
X169370943Y-129478186D01*
X169275705Y-129525805D01*
X169085229Y-129573424D01*
X168847133Y-129573424D01*
X168656657Y-129525805D01*
X168561419Y-129478186D01*
X168513800Y-129430567D01*
X168466181Y-129335329D01*
X162400581Y-130957557D02*
X161924390Y-131290891D01*
X162400581Y-131528986D02*
X161400581Y-131528986D01*
X161400581Y-131148033D01*
X161448200Y-131052795D01*
X161495819Y-131005176D01*
X161591057Y-130957557D01*
X161733914Y-130957557D01*
X161829152Y-131005176D01*
X161876771Y-131052795D01*
X161924390Y-131148033D01*
X161924390Y-131528986D01*
X161495819Y-130576605D02*
X161448200Y-130528986D01*
X161400581Y-130433748D01*
X161400581Y-130195652D01*
X161448200Y-130100414D01*
X161495819Y-130052795D01*
X161591057Y-130005176D01*
X161686295Y-130005176D01*
X161829152Y-130052795D01*
X162400581Y-130624224D01*
X162400581Y-130005176D01*
X162400581Y-129052795D02*
X162400581Y-129624224D01*
X162400581Y-129338510D02*
X161400581Y-129338510D01*
X161543438Y-129433748D01*
X161638676Y-129528986D01*
X161686295Y-129624224D01*
X167759981Y-108351557D02*
X167283790Y-108684891D01*
X167759981Y-108922986D02*
X166759981Y-108922986D01*
X166759981Y-108542033D01*
X166807600Y-108446795D01*
X166855219Y-108399176D01*
X166950457Y-108351557D01*
X167093314Y-108351557D01*
X167188552Y-108399176D01*
X167236171Y-108446795D01*
X167283790Y-108542033D01*
X167283790Y-108922986D01*
X166855219Y-107970605D02*
X166807600Y-107922986D01*
X166759981Y-107827748D01*
X166759981Y-107589652D01*
X166807600Y-107494414D01*
X166855219Y-107446795D01*
X166950457Y-107399176D01*
X167045695Y-107399176D01*
X167188552Y-107446795D01*
X167759981Y-108018224D01*
X167759981Y-107399176D01*
X166855219Y-107018224D02*
X166807600Y-106970605D01*
X166759981Y-106875367D01*
X166759981Y-106637271D01*
X166807600Y-106542033D01*
X166855219Y-106494414D01*
X166950457Y-106446795D01*
X167045695Y-106446795D01*
X167188552Y-106494414D01*
X167759981Y-107065843D01*
X167759981Y-106446795D01*
X170325381Y-120035557D02*
X169849190Y-120368891D01*
X170325381Y-120606986D02*
X169325381Y-120606986D01*
X169325381Y-120226033D01*
X169373000Y-120130795D01*
X169420619Y-120083176D01*
X169515857Y-120035557D01*
X169658714Y-120035557D01*
X169753952Y-120083176D01*
X169801571Y-120130795D01*
X169849190Y-120226033D01*
X169849190Y-120606986D01*
X169420619Y-119654605D02*
X169373000Y-119606986D01*
X169325381Y-119511748D01*
X169325381Y-119273652D01*
X169373000Y-119178414D01*
X169420619Y-119130795D01*
X169515857Y-119083176D01*
X169611095Y-119083176D01*
X169753952Y-119130795D01*
X170325381Y-119702224D01*
X170325381Y-119083176D01*
X169325381Y-118749843D02*
X169325381Y-118130795D01*
X169706333Y-118464129D01*
X169706333Y-118321271D01*
X169753952Y-118226033D01*
X169801571Y-118178414D01*
X169896810Y-118130795D01*
X170134905Y-118130795D01*
X170230143Y-118178414D01*
X170277762Y-118226033D01*
X170325381Y-118321271D01*
X170325381Y-118606986D01*
X170277762Y-118702224D01*
X170230143Y-118749843D01*
X170731781Y-116885957D02*
X170255590Y-117219291D01*
X170731781Y-117457386D02*
X169731781Y-117457386D01*
X169731781Y-117076433D01*
X169779400Y-116981195D01*
X169827019Y-116933576D01*
X169922257Y-116885957D01*
X170065114Y-116885957D01*
X170160352Y-116933576D01*
X170207971Y-116981195D01*
X170255590Y-117076433D01*
X170255590Y-117457386D01*
X169827019Y-116505005D02*
X169779400Y-116457386D01*
X169731781Y-116362148D01*
X169731781Y-116124052D01*
X169779400Y-116028814D01*
X169827019Y-115981195D01*
X169922257Y-115933576D01*
X170017495Y-115933576D01*
X170160352Y-115981195D01*
X170731781Y-116552624D01*
X170731781Y-115933576D01*
X170065114Y-115076433D02*
X170731781Y-115076433D01*
X169684162Y-115314529D02*
X170398448Y-115552624D01*
X170398448Y-114933576D01*
X160165381Y-130906757D02*
X159689190Y-131240091D01*
X160165381Y-131478186D02*
X159165381Y-131478186D01*
X159165381Y-131097233D01*
X159213000Y-131001995D01*
X159260619Y-130954376D01*
X159355857Y-130906757D01*
X159498714Y-130906757D01*
X159593952Y-130954376D01*
X159641571Y-131001995D01*
X159689190Y-131097233D01*
X159689190Y-131478186D01*
X159260619Y-130525805D02*
X159213000Y-130478186D01*
X159165381Y-130382948D01*
X159165381Y-130144852D01*
X159213000Y-130049614D01*
X159260619Y-130001995D01*
X159355857Y-129954376D01*
X159451095Y-129954376D01*
X159593952Y-130001995D01*
X160165381Y-130573424D01*
X160165381Y-129954376D01*
X159165381Y-129049614D02*
X159165381Y-129525805D01*
X159641571Y-129573424D01*
X159593952Y-129525805D01*
X159546333Y-129430567D01*
X159546333Y-129192471D01*
X159593952Y-129097233D01*
X159641571Y-129049614D01*
X159736810Y-129001995D01*
X159974905Y-129001995D01*
X160070143Y-129049614D01*
X160117762Y-129097233D01*
X160165381Y-129192471D01*
X160165381Y-129430567D01*
X160117762Y-129525805D01*
X160070143Y-129573424D01*
X160677781Y-131973557D02*
X160201590Y-132306891D01*
X160677781Y-132544986D02*
X159677781Y-132544986D01*
X159677781Y-132164033D01*
X159725400Y-132068795D01*
X159773019Y-132021176D01*
X159868257Y-131973557D01*
X160011114Y-131973557D01*
X160106352Y-132021176D01*
X160153971Y-132068795D01*
X160201590Y-132164033D01*
X160201590Y-132544986D01*
X159773019Y-131592605D02*
X159725400Y-131544986D01*
X159677781Y-131449748D01*
X159677781Y-131211652D01*
X159725400Y-131116414D01*
X159773019Y-131068795D01*
X159868257Y-131021176D01*
X159963495Y-131021176D01*
X160106352Y-131068795D01*
X160677781Y-131640224D01*
X160677781Y-131021176D01*
X159677781Y-130164033D02*
X159677781Y-130354510D01*
X159725400Y-130449748D01*
X159773019Y-130497367D01*
X159915876Y-130592605D01*
X160106352Y-130640224D01*
X160487305Y-130640224D01*
X160582543Y-130592605D01*
X160630162Y-130544986D01*
X160677781Y-130449748D01*
X160677781Y-130259271D01*
X160630162Y-130164033D01*
X160582543Y-130116414D01*
X160487305Y-130068795D01*
X160249210Y-130068795D01*
X160153971Y-130116414D01*
X160106352Y-130164033D01*
X160058733Y-130259271D01*
X160058733Y-130449748D01*
X160106352Y-130544986D01*
X160153971Y-130592605D01*
X160249210Y-130640224D01*
X157477381Y-127579357D02*
X157001190Y-127912691D01*
X157477381Y-128150786D02*
X156477381Y-128150786D01*
X156477381Y-127769833D01*
X156525000Y-127674595D01*
X156572619Y-127626976D01*
X156667857Y-127579357D01*
X156810714Y-127579357D01*
X156905952Y-127626976D01*
X156953571Y-127674595D01*
X157001190Y-127769833D01*
X157001190Y-128150786D01*
X156572619Y-127198405D02*
X156525000Y-127150786D01*
X156477381Y-127055548D01*
X156477381Y-126817452D01*
X156525000Y-126722214D01*
X156572619Y-126674595D01*
X156667857Y-126626976D01*
X156763095Y-126626976D01*
X156905952Y-126674595D01*
X157477381Y-127246024D01*
X157477381Y-126626976D01*
X156477381Y-126293643D02*
X156477381Y-125626976D01*
X157477381Y-126055548D01*
D14*
X169179667Y-104392762D02*
X169322524Y-104440381D01*
X169560620Y-104440381D01*
X169655858Y-104392762D01*
X169703477Y-104345143D01*
X169751096Y-104249905D01*
X169751096Y-104154667D01*
X169703477Y-104059429D01*
X169655858Y-104011810D01*
X169560620Y-103964190D01*
X169370143Y-103916571D01*
X169274905Y-103868952D01*
X169227286Y-103821333D01*
X169179667Y-103726095D01*
X169179667Y-103630857D01*
X169227286Y-103535619D01*
X169274905Y-103488000D01*
X169370143Y-103440381D01*
X169608239Y-103440381D01*
X169751096Y-103488000D01*
X170084429Y-103440381D02*
X170322524Y-104440381D01*
X170513001Y-103726095D01*
X170703477Y-104440381D01*
X170941572Y-103440381D01*
X171846334Y-104440381D02*
X171274905Y-104440381D01*
X171560619Y-104440381D02*
X171560619Y-103440381D01*
X171465381Y-103583238D01*
X171370143Y-103678476D01*
X171274905Y-103726095D01*
D13*
X117170295Y-122338081D02*
X117170295Y-123147605D01*
X117217914Y-123242843D01*
X117265533Y-123290462D01*
X117360771Y-123338081D01*
X117551248Y-123338081D01*
X117646486Y-123290462D01*
X117694105Y-123242843D01*
X117741724Y-123147605D01*
X117741724Y-122338081D01*
X118741724Y-123338081D02*
X118170295Y-123338081D01*
X118456009Y-123338081D02*
X118456009Y-122338081D01*
X118360771Y-122480938D01*
X118265533Y-122576176D01*
X118170295Y-122623795D01*
X139217495Y-129266481D02*
X139217495Y-130076005D01*
X139265114Y-130171243D01*
X139312733Y-130218862D01*
X139407971Y-130266481D01*
X139598448Y-130266481D01*
X139693686Y-130218862D01*
X139741305Y-130171243D01*
X139788924Y-130076005D01*
X139788924Y-129266481D01*
X140217495Y-129361719D02*
X140265114Y-129314100D01*
X140360352Y-129266481D01*
X140598448Y-129266481D01*
X140693686Y-129314100D01*
X140741305Y-129361719D01*
X140788924Y-129456957D01*
X140788924Y-129552195D01*
X140741305Y-129695052D01*
X140169876Y-130266481D01*
X140788924Y-130266481D01*
X124383895Y-106520881D02*
X124383895Y-107330405D01*
X124431514Y-107425643D01*
X124479133Y-107473262D01*
X124574371Y-107520881D01*
X124764848Y-107520881D01*
X124860086Y-107473262D01*
X124907705Y-107425643D01*
X124955324Y-107330405D01*
X124955324Y-106520881D01*
X125336276Y-106520881D02*
X125955324Y-106520881D01*
X125621990Y-106901833D01*
X125764848Y-106901833D01*
X125860086Y-106949452D01*
X125907705Y-106997071D01*
X125955324Y-107092310D01*
X125955324Y-107330405D01*
X125907705Y-107425643D01*
X125860086Y-107473262D01*
X125764848Y-107520881D01*
X125479133Y-107520881D01*
X125383895Y-107473262D01*
X125336276Y-107425643D01*
X152196895Y-107841681D02*
X152196895Y-108651205D01*
X152244514Y-108746443D01*
X152292133Y-108794062D01*
X152387371Y-108841681D01*
X152577848Y-108841681D01*
X152673086Y-108794062D01*
X152720705Y-108746443D01*
X152768324Y-108651205D01*
X152768324Y-107841681D01*
X153673086Y-108175014D02*
X153673086Y-108841681D01*
X153434990Y-107794062D02*
X153196895Y-108508348D01*
X153815943Y-108508348D01*
X134162895Y-106216081D02*
X134162895Y-107025605D01*
X134210514Y-107120843D01*
X134258133Y-107168462D01*
X134353371Y-107216081D01*
X134543848Y-107216081D01*
X134639086Y-107168462D01*
X134686705Y-107120843D01*
X134734324Y-107025605D01*
X134734324Y-106216081D01*
X135686705Y-106216081D02*
X135210514Y-106216081D01*
X135162895Y-106692271D01*
X135210514Y-106644652D01*
X135305752Y-106597033D01*
X135543848Y-106597033D01*
X135639086Y-106644652D01*
X135686705Y-106692271D01*
X135734324Y-106787510D01*
X135734324Y-107025605D01*
X135686705Y-107120843D01*
X135639086Y-107168462D01*
X135543848Y-107216081D01*
X135305752Y-107216081D01*
X135210514Y-107168462D01*
X135162895Y-107120843D01*
X147351381Y-109943805D02*
X148160905Y-109943805D01*
X148256143Y-109896186D01*
X148303762Y-109848567D01*
X148351381Y-109753329D01*
X148351381Y-109562852D01*
X148303762Y-109467614D01*
X148256143Y-109419995D01*
X148160905Y-109372376D01*
X147351381Y-109372376D01*
X147351381Y-108467614D02*
X147351381Y-108658091D01*
X147399000Y-108753329D01*
X147446619Y-108800948D01*
X147589476Y-108896186D01*
X147779952Y-108943805D01*
X148160905Y-108943805D01*
X148256143Y-108896186D01*
X148303762Y-108848567D01*
X148351381Y-108753329D01*
X148351381Y-108562852D01*
X148303762Y-108467614D01*
X148256143Y-108419995D01*
X148160905Y-108372376D01*
X147922810Y-108372376D01*
X147827571Y-108419995D01*
X147779952Y-108467614D01*
X147732333Y-108562852D01*
X147732333Y-108753329D01*
X147779952Y-108848567D01*
X147827571Y-108896186D01*
X147922810Y-108943805D01*
M02*
